<?xml version="1.0" encoding="UTF-8" standalone="no"?>
<!-- Created with Inkscape (http://www.inkscape.org/) -->

<svg
   xmlns:dc="http://purl.org/dc/elements/1.1/"
   xmlns:cc="http://creativecommons.org/ns#"
   xmlns:rdf="http://www.w3.org/1999/02/22-rdf-syntax-ns#"
   xmlns:svg="http://www.w3.org/2000/svg"
   xmlns="http://www.w3.org/2000/svg"
   xmlns:sodipodi="http://sodipodi.sourceforge.net/DTD/sodipodi-0.dtd"
   xmlns:inkscape="http://www.inkscape.org/namespaces/inkscape"
   width="21.450417mm"
   height="22.577778mm"
   viewBox="0 0 76.005413 80"
   id="svg2"
   version="1.1"
   inkscape:version="0.91 r13725"
   sodipodi:docname="flask.svg">
  <defs
     id="defs4" />
  <sodipodi:namedview
     id="base"
     pagecolor="#ffffff"
     bordercolor="#666666"
     borderopacity="1.0"
     inkscape:pageopacity="0.0"
     inkscape:pageshadow="2"
     inkscape:zoom="0.49497475"
     inkscape:cx="-374.71524"
     inkscape:cy="-276.02563"
     inkscape:document-units="px"
     inkscape:current-layer="layer1"
     showgrid="false"
     inkscape:window-width="1570"
     inkscape:window-height="871"
     inkscape:window-x="0"
     inkscape:window-y="0"
     inkscape:window-maximized="1"
     fit-margin-top="0"
     fit-margin-left="0"
     fit-margin-right="0"
     fit-margin-bottom="0" />
  <metadata
     id="metadata7">
    <rdf:RDF>
      <cc:Work
         rdf:about="">
        <dc:format>image/svg+xml</dc:format>
        <dc:type
           rdf:resource="http://purl.org/dc/dcmitype/StillImage" />
        <dc:title></dc:title>
      </cc:Work>
    </rdf:RDF>
  </metadata>
  <g
     inkscape:label="Calque 1"
     inkscape:groupmode="layer"
     id="layer1"
     transform="translate(-137.60877,-570.07255)">
    <g
       id="use100733"
       transform="matrix(1.0416667,0,0,1.0416667,132.27814,563.40588)"
       style="fill:#8959a8;fill-opacity:1">
      <title
         id="title100973">Flask</title>
      <path
         id="path100975"
         d="M 1527,88 Q 1583,-1 1548.5,-64.5 1514,-128 1408,-128 l -1152,0 Q 150,-128 115.5,-64.5 81,-1 137,88 l 503,793 0,399 -64,0 q -26,0 -45,19 -19,19 -19,45 0,26 19,45 19,19 45,19 l 512,0 q 26,0 45,-19 19,-19 19,-45 0,-26 -19,-45 -19,-19 -45,-19 l -64,0 0,-399 z M 748,813 476,384 l 712,0 -272,429 -20,31 0,37 0,399 -128,0 0,-399 0,-37 z"
         transform="matrix(0.05,0,0,-0.05,0,76.8)"
         inkscape:connector-curvature="0"
         style="fill:#8959a8;fill-opacity:1" />
    </g>
  </g>
</svg>
