<?xml version="1.0" encoding="UTF-8" standalone="no"?>
<!-- Created with Inkscape (http://www.inkscape.org/) -->

<svg
   xmlns:dc="http://purl.org/dc/elements/1.1/"
   xmlns:cc="http://creativecommons.org/ns#"
   xmlns:rdf="http://www.w3.org/1999/02/22-rdf-syntax-ns#"
   xmlns:svg="http://www.w3.org/2000/svg"
   xmlns="http://www.w3.org/2000/svg"
   xmlns:sodipodi="http://sodipodi.sourceforge.net/DTD/sodipodi-0.dtd"
   xmlns:inkscape="http://www.inkscape.org/namespaces/inkscape"
   width="19.352381mm"
   height="22.577778mm"
   viewBox="0 0 68.571428 80"
   id="svg2"
   version="1.1"
   inkscape:version="0.91 r13725"
   sodipodi:docname="srcfile.svg">
  <defs
     id="defs4" />
  <sodipodi:namedview
     id="base"
     pagecolor="#ffffff"
     bordercolor="#666666"
     borderopacity="1.0"
     inkscape:pageopacity="0.0"
     inkscape:pageshadow="2"
     inkscape:zoom="0.49497475"
     inkscape:cx="-634.89612"
     inkscape:cy="-214.48768"
     inkscape:document-units="px"
     inkscape:current-layer="layer1"
     showgrid="false"
     inkscape:window-width="1570"
     inkscape:window-height="871"
     inkscape:window-x="0"
     inkscape:window-y="0"
     inkscape:window-maximized="1"
     fit-margin-top="0"
     fit-margin-left="0"
     fit-margin-right="0"
     fit-margin-bottom="0" />
  <metadata
     id="metadata7">
    <rdf:RDF>
      <cc:Work
         rdf:about="">
        <dc:format>image/svg+xml</dc:format>
        <dc:type
           rdf:resource="http://purl.org/dc/dcmitype/StillImage" />
        <dc:title></dc:title>
      </cc:Work>
    </rdf:RDF>
  </metadata>
  <g
     inkscape:label="Calque 1"
     inkscape:groupmode="layer"
     id="layer1"
     transform="translate(-127.31429,-835.73364)">
    <g
       id="use100858"
       transform="matrix(0.89285714,0,0,0.89285714,127.31429,835.73364)"
       style="fill:#003b22;fill-opacity:1">
      <title
         id="title100961">Code File Outlined</title>
      <path
         id="path100963"
         d="m 1468,1156 q 28,-28 48,-76 20,-48 20,-88 l 0,-1152 q 0,-40 -28,-68 -28,-28 -68,-28 l -1344,0 q -40,0 -68,28 -28,28 -28,68 l 0,1600 q 0,40 28,68 28,28 68,28 l 896,0 q 40,0 88,-20 48,-20 76,-48 z m -444,244 0,-376 376,0 q -10,29 -22,41 l -313,313 q -12,12 -41,22 z m 384,-1528 0,1024 -416,0 q -40,0 -68,28 -28,28 -28,68 l 0,416 -768,0 0,-1536 1280,0 z M 480,768 q 8,11 21,12.5 13,1.5 24,-6.5 l 51,-38 q 11,-8 12.5,-21 1.5,-13 -6.5,-24 L 400,448 582,205 q 8,-11 6.5,-24 Q 587,168 576,160 l -51,-38 q -11,-8 -24,-6.5 -13,1.5 -21,12.5 L 254,429 q -14,19 0,38 z m 802,-301 q 14,-19 0,-38 L 1056,128 q -8,-11 -21,-12.5 -13,-1.5 -24,6.5 l -51,38 q -11,8 -12.5,21 -1.5,13 6.5,24 l 182,243 -182,243 q -8,11 -6.5,24 1.5,13 12.5,21 l 51,38 q 11,8 24,6.5 13,-1.5 21,-12.5 z M 662,6 Q 649,8 641.5,19 634,30 636,43 l 138,831 q 2,13 13,20.5 11,7.5 24,5.5 l 63,-10 q 13,-2 20.5,-13 7.5,-11 5.5,-24 L 762,22 Q 760,9 749,1.5 738,-6 725,-4 Z"
         transform="matrix(0.05,0,0,-0.05,0,76.8)"
         inkscape:connector-curvature="0"
         style="fill:#003b22;fill-opacity:1" />
    </g>
  </g>
</svg>
