<?xml version="1.0" encoding="UTF-8" standalone="no"?>
<!-- Created with Inkscape (http://www.inkscape.org/) -->

<svg
   xmlns:dc="http://purl.org/dc/elements/1.1/"
   xmlns:cc="http://creativecommons.org/ns#"
   xmlns:rdf="http://www.w3.org/1999/02/22-rdf-syntax-ns#"
   xmlns:svg="http://www.w3.org/2000/svg"
   xmlns="http://www.w3.org/2000/svg"
   xmlns:sodipodi="http://sodipodi.sourceforge.net/DTD/sodipodi-0.dtd"
   xmlns:inkscape="http://www.inkscape.org/namespaces/inkscape"
   width="22.577778mm"
   height="22.577778mm"
   viewBox="0 0 80 80"
   id="svg2"
   version="1.1"
   inkscape:version="0.91 r13725"
   sodipodi:docname="wand.svg">
  <defs
     id="defs4" />
  <sodipodi:namedview
     id="base"
     pagecolor="#ffffff"
     bordercolor="#666666"
     borderopacity="1.0"
     inkscape:pageopacity="0.0"
     inkscape:pageshadow="2"
     inkscape:zoom="0.49497475"
     inkscape:cx="-278.38361"
     inkscape:cy="-253.56268"
     inkscape:document-units="px"
     inkscape:current-layer="layer1"
     showgrid="false"
     inkscape:window-width="1570"
     inkscape:window-height="871"
     inkscape:window-x="0"
     inkscape:window-y="0"
     inkscape:window-maximized="1"
     fit-margin-top="0"
     fit-margin-left="0"
     fit-margin-right="0"
     fit-margin-bottom="0" />
  <metadata
     id="metadata7">
    <rdf:RDF>
      <cc:Work
         rdf:about="">
        <dc:format>image/svg+xml</dc:format>
        <dc:type
           rdf:resource="http://purl.org/dc/dcmitype/StillImage" />
        <dc:title></dc:title>
      </cc:Work>
    </rdf:RDF>
  </metadata>
  <g
     inkscape:label="Calque 1"
     inkscape:groupmode="layer"
     id="layer1"
     transform="translate(-128.36071,-933.28721)">
    <g
       id="use100933"
       transform="matrix(0.97739768,0,0,0.97739768,127.04122,933.28721)"
       style="fill:#c82829;fill-opacity:1">
      <title
         id="title100949">magic</title>
      <path
         id="path100951"
         d="m 1190,955 293,293 -107,107 -293,-293 z m 447,293 q 0,-27 -18,-45 L 333,-83 q -18,-18 -45,-18 -27,0 -45,18 L 45,115 q -18,18 -18,45 0,27 18,45 l 1286,1286 q 18,18 45,18 27,0 45,-18 l 198,-198 q 18,-18 18,-45 z m -1351,190 98,-30 -98,-30 -30,-98 -30,98 -98,30 98,30 30,98 z m 350,-162 196,-60 -196,-60 -60,-196 -60,196 -196,60 196,60 60,196 z m 930,-478 98,-30 -98,-30 -30,-98 -30,98 -98,30 98,30 30,98 z m -640,640 98,-30 -98,-30 -30,-98 -30,98 -98,30 98,30 30,98 z"
         transform="matrix(0.05,0,0,-0.05,0,76.8)"
         inkscape:connector-curvature="0"
         style="fill:#c82829;fill-opacity:1" />
    </g>
  </g>
</svg>
