<?xml version="1.0" encoding="UTF-8" standalone="no"?>
<!-- Created with Inkscape (http://www.inkscape.org/) -->

<svg
   xmlns:dc="http://purl.org/dc/elements/1.1/"
   xmlns:cc="http://creativecommons.org/ns#"
   xmlns:rdf="http://www.w3.org/1999/02/22-rdf-syntax-ns#"
   xmlns:svg="http://www.w3.org/2000/svg"
   xmlns="http://www.w3.org/2000/svg"
   xmlns:sodipodi="http://sodipodi.sourceforge.net/DTD/sodipodi-0.dtd"
   xmlns:inkscape="http://www.inkscape.org/namespaces/inkscape"
   width="23.480888mm"
   height="22.577778mm"
   viewBox="0 0 83.199998 80"
   id="svg2"
   version="1.1"
   inkscape:version="0.91 r13725"
   sodipodi:docname="zoomin.svg">
  <defs
     id="defs4" />
  <sodipodi:namedview
     id="base"
     pagecolor="#ffffff"
     bordercolor="#666666"
     borderopacity="1.0"
     inkscape:pageopacity="0.0"
     inkscape:pageshadow="2"
     inkscape:zoom="0.98994949"
     inkscape:cx="-200.80232"
     inkscape:cy="0.57799667"
     inkscape:document-units="px"
     inkscape:current-layer="layer1"
     showgrid="false"
     fit-margin-top="0"
     fit-margin-left="0"
     fit-margin-right="0"
     fit-margin-bottom="0"
     inkscape:window-width="1570"
     inkscape:window-height="871"
     inkscape:window-x="0"
     inkscape:window-y="0"
     inkscape:window-maximized="1" />
  <metadata
     id="metadata7">
    <rdf:RDF>
      <cc:Work
         rdf:about="">
        <dc:format>image/svg+xml</dc:format>
        <dc:type
           rdf:resource="http://purl.org/dc/dcmitype/StillImage" />
        <dc:title></dc:title>
      </cc:Work>
    </rdf:RDF>
  </metadata>
  <g
     inkscape:label="Calque 1"
     inkscape:groupmode="layer"
     id="layer1"
     transform="translate(-301.25714,-419.67649)">
    <g
       id="use143204"
       transform="matrix(1,0,0,0.96153846,301.25714,413.52264)"
       style="fill:#29506f;fill-opacity:0.94117647">
      <title
         id="title143239">Search Plus</title>
      <path
         inkscape:connector-curvature="0"
         id="path143241"
         d="m 1024,736 0,-64 q 0,-13 -9.5,-22.5 Q 1005,640 992,640 l -224,0 0,-224 q 0,-13 -9.5,-22.5 Q 749,384 736,384 l -64,0 q -13,0 -22.5,9.5 Q 640,403 640,416 l 0,224 -224,0 q -13,0 -22.5,9.5 Q 384,659 384,672 l 0,64 q 0,13 9.5,22.5 9.5,9.5 22.5,9.5 l 224,0 0,224 q 0,13 9.5,22.5 9.5,9.5 22.5,9.5 l 64,0 q 13,0 22.5,-9.5 9.5,-9.5 9.5,-22.5 l 0,-224 224,0 q 13,0 22.5,-9.5 9.5,-9.5 9.5,-22.5 z m 128,-32 q 0,185 -131.5,316.5 Q 889,1152 704,1152 519,1152 387.5,1020.5 256,889 256,704 256,519 387.5,387.5 519,256 704,256 889,256 1020.5,387.5 1152,519 1152,704 Z m 512,-832 q 0,-53 -37.5,-90.5 -37.5,-37.5 -90.5,-37.5 -54,0 -90,38 L 1103,124 Q 924,0 704,0 561,0 430.5,55.5 300,111 205.5,205.5 111,300 55.5,430.5 0,561 0,704 q 0,143 55.5,273.5 55.5,130.5 150,225 94.5,94.5 225,150 130.5,55.5 273.5,55.5 143,0 273.5,-55.5 130.5,-55.5 225,-150 94.5,-94.5 150,-225 Q 1408,847 1408,704 1408,484 1284,305 l 343,-343 q 37,-37 37,-90 z"
         transform="matrix(0.05,0,0,-0.05,0,76.8)"
         style="fill:#29506f;fill-opacity:0.94117647" />
    </g>
  </g>
</svg>
