<?xml version="1.0" encoding="UTF-8" standalone="no"?>
<!-- Creator: CorelDRAW X7 -->

<svg
   xmlns:dc="http://purl.org/dc/elements/1.1/"
   xmlns:cc="http://creativecommons.org/ns#"
   xmlns:rdf="http://www.w3.org/1999/02/22-rdf-syntax-ns#"
   xmlns:svg="http://www.w3.org/2000/svg"
   xmlns="http://www.w3.org/2000/svg"
   xmlns:sodipodi="http://sodipodi.sourceforge.net/DTD/sodipodi-0.dtd"
   xmlns:inkscape="http://www.inkscape.org/namespaces/inkscape"
   xml:space="preserve"
   width="407.48962"
   height="124.68504"
   version="1.1"
   style="fill-rule:evenodd"
   viewBox="0 0 11500.262 3518.8889"
   id="svg3254"
   inkscape:version="0.91 r13725"
   sodipodi:docname="6WIND.svg"><metadata
     id="metadata3425"><rdf:RDF><cc:Work
         rdf:about=""><dc:format>image/svg+xml</dc:format><dc:type
           rdf:resource="http://purl.org/dc/dcmitype/StillImage" /><dc:title></dc:title></cc:Work></rdf:RDF></metadata><sodipodi:namedview
     pagecolor="#ffffff"
     bordercolor="#666666"
     borderopacity="1"
     objecttolerance="10"
     gridtolerance="10"
     guidetolerance="10"
     inkscape:pageopacity="0"
     inkscape:pageshadow="2"
     inkscape:window-width="1028"
     inkscape:window-height="421"
     id="namedview3423"
     showgrid="false"
     fit-margin-left="0"
     fit-margin-top="0"
     fit-margin-bottom="0"
     fit-margin-right="0"
     inkscape:zoom="1.4611414"
     inkscape:cx="184.18546"
     inkscape:cy="66.253316"
     inkscape:window-x="2283"
     inkscape:window-y="475"
     inkscape:window-maximized="0"
     inkscape:current-layer="svg3254" /><defs
     id="defs3256"><style
       type="text/css"
       id="style3258">
    .fil1 {fill:#0055A5}
    .fil3 {fill:#1469B4}
    .fil6 {fill:#1599D6}
    .fil0 {fill:#585859}
    .fil5 {fill:#B7B8BB}
    .fil7 {fill:#B7B9BE}
    .fil4 {fill:#CFD0D2}
    .fil2 {fill:#F8991D}
   </style></defs><path
     style="fill:#4a4a4a;fill-opacity:1"
     inkscape:connector-curvature="0"
     id="path3265"
     d="m 6656,2720 c -6,-27 -16,-47 -24,-72 -64,-215 -123,-486 -168,-709 -13,-65 -14,-107 -20,-180 -3,-47 -12,-131 -30,-163 -40,-72 -201,-94 -255,-32 -62,70 -71,168 -118,251 l -84,157 c -15,31 -28,50 -42,79 l -407,705 c -56,-12 -54,-43 -55,-109 -1,-153 -90,-510 -121,-695 -9,-57 -42,-240 -42,-284 0,-52 12,-110 6,-157 -11,-78 -142,-60 -224,-60 -10,0 -51,18 -34,70 22,67 48,122 62,192 l 103,532 c 32,192 51,462 112,644 17,51 55,128 104,149 59,26 130,13 165,-54 l 353,-663 c 41,-79 136,-256 182,-325 23,-33 79,-117 114,-140 64,46 77,222 90,297 20,118 144,650 207,759 50,85 95,80 175,80 51,0 75,-72 102,-127 9,-17 16,-36 24,-54 l 342,-602 c 119,-198 290,-478 420,-674 84,-126 74,-95 14,-134 -131,-85 -169,94 -292,309 l -209,348 c -115,192 -228,363 -352,549 -18,27 -68,105 -98,113 z"
     class="fil0" /><path
     style="fill:#4a4a4a;fill-opacity:1"
     inkscape:connector-curvature="0"
     id="path3271"
     d="m 9987.0008,2829 c 0,-126 80.0002,-455 109.0002,-599 19,-97 31,-198 48,-297 44,-266 69,-460 381,-476 28,-2 58,1 85,0 33,-1 46,-10 84,-6 169,15 284,12 430,84 58,29 105,65 142,119 12,18 19,33 29,54 18,36 33,95 25,144 -9,62 -6,75 -27,142 -89,277 -336,493 -590,619 -22,11 -36,18 -56,30 -19,11 -32,20 -53,31 -89,45 -607.0002,321 -607.0002,155 z M 9727,3004 c 43,29 26,43 133,43 175.001,0 493.001,-121 659.001,-188 54,-21 248,-101 294,-129 105,-64 228,-161 324,-239 55,-44 170,-160 212,-216 64,-86 119,-166 142,-276 11,-47 10,-81 8,-125 -8,-226 -228,-359 -403,-444 -171,-82 -505,-155 -697,-155 -108,0 -177,-6 -282,15 -51,10 -64,14 -79,60 -23,70 -30,157 -45.0002,233 C 9932,1887 9879,2226 9817,2531 c -29,142 -60,345 -90,473 z"
     class="fil0" /><path
     style="fill:#4a4a4a;fill-opacity:1"
     inkscape:connector-curvature="0"
     id="path3273"
     d="m 8089,3041 c 41,0 81,-21 108,-50 15,-16 10,-9 13,-35 18,-157 59,-336 90,-490 23,-114 113,-557 170,-598 28,7 44,42 54,67 12,31 24,59 37,90 66,166 147,355 240,503 34,53 63,97 101,147 39,53 71,86 117,131 45,45 79,78 136,112 64,38 201,102 272,28 37,-39 45,-218 61,-308 28,-155 102,-429 143,-589 19,-76 128,-606 123,-614 -12,-22 -118,-15 -149,-10 -27,4 -26,2 -33,28 l -41,207 c -27,138 -55,269 -82,407 -13,65 -28,137 -40,201 l -55,315 c -6,39 -13,73 -19,108 -6,37 -13,62 -22,98 -10,41 -16,63 -45,82 -45,-24 -114,-93 -145,-133 -20,-26 -42,-49 -62,-77 -9,-14 -18,-30 -27,-46 -145,-266 -251,-556 -349,-848 l -66,-212 c -32,-109 -50,-159 -149,-159 -27,0 -79,21 -97,30 -72,37 -55,97 -69,197 -42,307 -138,678 -201,996 -11,53 -114,422 -14,422 z"
     class="fil0" /><path
     style="fill:#4a4a4a;fill-opacity:1"
     inkscape:connector-curvature="0"
     id="path3279"
     d="m 7847,1366 c 0,161 -24,306 -46,443 -24,144 -47,284 -74,422 -44,221 -73,400 -128,616 -45,183 28,151 170,139 l 38,-197 c 14,-68 27,-131 40,-196 26,-134 53,-265 79,-398 34,-168 81,-431 121,-593 25,-105 93,-311 -60,-291 -46,7 -108,34 -140,55 z"
     class="fil0" /><g
     id="g4508"><path
       class="fil1"
       d="m 2545,3174 c 14,-13 30,-14 48,-25 34,-19 79,-55 79,25 -55,0 -83,-5 -127,0 z M 0,2085 0,1994 c 2,-12 42,-111 42,-199 -17,13 -12,5 -12,36 l -6,0 c 0,-48 -4,-125 28,-165 39,-50 31,-85 45,-143 5,9 1,-2 2,12 5,66 17,30 5,67 -15,46 -19,11 -1,84 46,-34 -5,-166 110,-343 19,-31 103,-142 131,-160 26,-18 9,7 26,-5 21,-16 -4,-53 53,-54 l 0,30 c 43,-28 102,-133 179,-190 128,-95 25,17 148,-57 167,-102 394,-261 598,-261 5,-19 2,-8 13,-23 27,-40 82,-39 167,-57 137,-29 280,-68 423,-91 60,-9 48,-11 92,-34 25,-13 59,-30 97,-30 l 0,30 c 26,-6 78,-36 103,-48 28,-15 71,-40 110,-42 l -19,23 c 59,0 50,-24 96,0 -9,29 -2,4 -8,9 -5,4 -4,10 -34,10 l 0,6 c 33,0 45,5 67,6 23,1 28,-3 34,-15 l 1,-7 c 0,-1 0,-2 1,-3 21,12 17,1 12,25 40,0 40,2 54,-25 -11,-16 -20,-18 -22,-19 l -8,-5 c 97,0 147,19 176,1 8,-5 2,-1 11,-8 l 30,-18 c 112,-43 332,-58 460,-72 37,-4 77,-16 115,-18 42,-2 90,0 133,0 l -128,36 c -74,8 -57,20 -120,25 10,13 20,15 38,17 75,10 28,-42 107,-23 -9,12 -3,5 -22,14 l -8,4 c 24,5 18,6 21,13 3,5 3,11 3,11 0,0 0,4 0,3 0,-1 0,2 0,3 22,-5 43,-14 55,-30 l -49,0 c 21,-28 54,-3 103,-31 46,-26 67,19 91,13 7,-2 23,-36 96,-36 -8,31 -5,5 -24,30 51,12 74,16 115,-12 -38,0 -36,7 -45,8 -13,1 -16,-5 -21,-8 7,-30 30,-36 54,-49 16,61 110,0 157,0 8,16 6,7 6,31 74,-18 82,-40 99,-47 l 55,-17 c 20,-8 34,-15 58,-15 -9,24 -1,1 -18,24 63,0 70,-28 96,12 l -11,6 c -13,5 -11,2 -31,0 15,21 -1,9 30,13 102,13 41,-9 85,-13 9,22 1,1 0,19 l 0,5 c 53,-1 50,-13 54,-30 -33,0 -35,-6 -66,-6 l 0,-12 c 35,-1 25,-7 62,-2 l 121,19 c 15,1 15,0 27,-6 l 15,-9 c 33,-24 60,-27 110,-36 36,-6 87,-14 124,-14 l 393,-25 c 28,2 29,7 61,7 32,0 40,-7 54,12 -37,3 -86,14 -127,17 -41,3 -24,-6 -66,8 l -61,11 c 55,48 94,-5 122,-6 21,-1 31,5 23,18 65,-15 49,8 111,-22 29,-15 56,21 95,22 9,-35 55,-30 91,-30 -15,22 -17,11 -31,30 23,1 39,7 56,11 26,5 31,5 59,8 31,3 84,11 115,11 -74,-64 -36,-26 -127,-24 1,-1 3,-2 4,-2 1,-1 3,-2 4,-2 l 16,-14 c -67,0 -64,31 -70,0 -4,-20 32,-41 52,-42 10,26 42,23 75,33 33,11 11,14 40,14 19,0 15,-9 42,-11 l 0,12 c 85,0 49,-32 103,-6 -12,31 15,-25 -9,10 -4,6 -10,7 8,8 14,1 35,0 50,0 6,25 10,16 48,36 -4,-14 -6,-24 -12,-36 36,3 72,26 110,14 l 53,-14 c 35,-6 23,-11 48,-18 49,11 8,24 85,24 -24,33 -8,-7 -76,20 -1,0 -11,5 -13,6 -1,0 -3,3 -4,2 0,-1 -2,2 -4,2 92,0 48,-8 145,0 5,9 3,7 6,19 28,-1 48,-6 55,-31 24,6 59,18 85,19 37,0 64,-19 36,24 44,0 31,-15 72,-19 9,23 1,2 1,20 l -1,5 c 75,0 64,-52 132,-11 24,15 39,8 73,3 23,-2 57,-5 79,-10 -18,24 -28,11 -45,26 -11,10 -6,2 -3,10 8,20 -7,10 20,9 72,-4 36,3 83,3 8,-18 7,-20 18,-36 l 36,0 c 5,10 7,19 12,30 31,0 32,-1 55,-6 2,-7 -10,-10 0,-19 16,-15 59,6 103,7 -18,23 -10,0 -19,24 l 25,12 c -76,0 -59,35 -121,36 22,-30 42,-2 54,-36 -18,-9 -50,-8 -76,-4 -50,7 -29,7 -45,40 -27,2 -98,14 -115,37 l -60,6 c 8,-32 41,-13 6,-30 -45,-21 -111,32 -139,-7 14,-3 27,-6 45,-9 31,-5 26,4 40,-15 -22,2 -61,10 -79,9 -23,-1 -34,-21 -56,-26 -22,-4 -130,16 -144,23 8,-18 -8,-5 34,-20 l 9,-4 c -48,-11 -47,-24 -109,-24 1,1 3,1 4,2 l 20,16 c -52,-12 -58,-1 -103,0 l 0,18 c 47,11 46,12 55,24 -42,-9 -75,-11 -115,-12 -36,0 -29,15 -53,10 -23,-5 -16,-4 -14,-23 0,0 0,-1 0,-2 0,-1 1,-2 0,-3 -35,0 -89,-6 -115,6 19,25 29,3 61,18 -18,24 -3,8 -25,9 -16,1 -10,2 -29,3 l 30,18 c -64,0 -88,17 -97,-18 32,0 36,0 60,-6 -22,-19 -39,-12 -55,-26 l -5,-10 c -79,0 -64,12 -109,12 l 0,-18 c -26,1 -38,6 -72,6 -7,-27 8,-61 -37,-58 -19,1 -44,30 -54,46 39,19 28,7 23,22 -1,1 -2,5 -2,4 -1,-1 -2,3 -3,4 l 30,6 c -69,0 -47,7 -50,8 -4,3 10,2 -10,4 -3,-7 -2,1 -2,-9 0,0 2,-13 2,-15 l -115,0 c 36,31 66,12 91,6 -8,14 2,24 -55,24 l 19,6 c 11,1 12,-1 21,-2 16,-2 19,-4 39,-4 l 0,12 c -80,0 -54,-4 -61,12 l -36,0 c -3,-32 -53,-44 -97,-54 -25,17 -16,22 -60,24 -40,2 -39,12 -73,12 16,-13 22,-13 40,-20 19,-8 23,-14 45,-16 l 0,-12 c -20,0 -42,-1 -62,0 -49,1 -24,7 -24,8 l 1,4 c -26,1 -18,4 -42,6 10,28 15,1 18,36 -141,0 -61,-19 -211,18 -22,6 -44,9 -55,25 l 21,3 c 1,-1 2,2 3,3 -37,0 -57,5 -84,6 6,-24 0,-1 8,-16 7,-13 8,4 4,-8 -16,-18 -83,6 -145,6 l 0,-12 c 30,-3 54,-16 84,-19 -18,-15 -8,-8 -27,-4 -90,23 -58,-12 -110,0 -45,10 -40,-8 -75,-3 -27,5 -47,14 -72,20 12,-16 15,-18 43,-19 -24,-32 -47,9 -95,-1 -8,-2 -42,-23 -93,1 6,16 -1,10 22,21 l 22,8 c 1,-2 3,1 5,2 l -55,0 c 0,0 -1,2 -1,2 -13,26 -135,33 -162,34 17,-12 45,-18 66,-18 -21,-19 -51,-19 -77,-5 l -37,11 c -17,4 6,0 -19,6 l 14,5 c 24,9 12,-2 23,13 -23,-5 -22,0 -55,0 -29,0 -31,-4 -55,-6 l 7,24 c -38,-1 -41,-12 -79,6 l 0,-24 -90,0 c -7,-17 5,-11 -30,-13 -43,-2 -69,7 -116,7 l 31,-12 c -38,0 -63,2 -79,24 22,5 20,3 30,18 -57,14 -22,0 -56,-22 l -104,-29 c -19,-4 -33,-8 -49,-12 -28,-6 -104,21 -117,39 25,6 28,4 30,30 -35,0 -51,-9 -88,-4 -30,5 -60,11 -83,15 -106,16 -105,-16 -154,-14 l -130,7 c -7,1 -53,36 -86,30 -20,-3 -50,-17 -71,-19 -24,-1 -44,18 -72,21 -32,4 -72,-30 -131,10 -30,20 -23,14 -78,28 -66,17 -153,23 -162,25 -26,8 -53,59 -124,64 l 0,-24 c -31,0 -30,7 -60,7 -29,0 -30,-6 -61,-7 -52,-2 -74,9 -115,12 17,-14 23,-12 49,-12 l 0,-6 c -59,0 -70,8 -108,32 l -188,83 c -50,21 -35,24 -109,24 -5,-23 -5,-6 0,-30 -23,0 -33,-3 -50,5 -6,3 -3,3 -14,10 -32,19 -62,-11 -87,27 l 145,-12 c -11,15 -43,27 -62,42 l -52,38 c -9,9 -8,25 -43,22 -23,-2 -15,-11 -34,-6 -21,5 -18,28 -57,37 0,27 4,19 6,43 -47,24 -118,48 -175,48 l 120,-73 c -20,-42 31,-55 62,-65 l 102,-31 c -8,-16 -5,-12 0,-31 -40,0 -31,19 -133,43 -19,-14 -10,4 -12,-24 -14,3 -14,4 -31,6 6,14 4,4 0,24 9,4 -11,7 18,0 -16,22 -85,53 -114,66 -45,20 -53,13 -70,46 -2,3 -8,16 -9,16 -8,21 -15,7 6,23 3,-30 6,-17 21,-33 l 4,-11 c 0,-1 0,-2 0,-2 l 66,-39 c -3,29 -10,21 -24,43 l 30,6 -107,57 c -54,41 -72,1 -123,27 -24,12 -24,33 -67,36 l 19,-24 c -58,0 -83,1 -91,37 27,-1 19,-4 42,-6 -16,22 1,5 -28,14 -62,17 -126,89 -177,100 14,-19 14,-5 25,-23 14,-24 -5,-8 5,-31 -54,5 -164,184 -174,232 -5,26 -2,45 -60,73 -38,18 -69,40 -74,100 -16,-16 -12,-12 -43,-12 -11,17 -20,30 -30,48 29,-7 7,-10 36,-18 -16,71 -90,144 -90,218 -24,-8 -3,2 -9,-28 -3,-16 -9,-17 -9,-39 -15,11 -27,36 -30,56 -4,33 15,36 27,56 13,22 2,39 -3,64 -44,204 31,359 173,479 149,126 298,211 479,283 80,33 160,62 248,91 l 421,110 c 2,1 3,2 4,2 28,15 6,12 41,14 123,8 248,30 381,37 l 314,24 c 112,3 216,6 333,6 62,0 107,-7 163,-6 35,0 53,-3 79,-6 49,-5 7,7 69,-7 18,-4 53,5 79,-2 24,-6 32,-21 53,-32 71,-37 59,17 134,-23 73,-38 184,-39 267,-72 31,-12 23,-19 60,-19 23,-1 6,3 27,-8 56,-31 102,-25 173,-39 88,-18 50,-41 129,-40 99,0 41,-50 97,-55 -8,15 -14,25 -18,43 34,-8 104,-48 120,-73 -15,4 -21,11 -36,18 3,-28 36,-44 67,-60 l -6,24 36,-24 c 39,13 -21,-1 18,12 22,-19 57,-28 79,-55 0,0 7,-10 10,-14 9,-12 2,-3 8,-10 l 0,43 c 25,-7 21,-14 35,-32 29,-40 4,4 33,-21 20,-17 8,-21 18,-37 12,-20 15,-10 29,-31 -32,2 -11,7 -43,0 8,-28 9,-11 19,-30 10,-19 3,-19 6,-43 1,-14 4,-27 15,-31 15,-5 2,-1 21,13 16,-31 30,-41 30,-91 1,0 2,0 3,0 39,-16 33,-71 66,-137 11,-22 15,-32 4,-56 8,-4 -11,-7 18,0 0,-33 -7,-40 -18,-61 l -14,4 c -21,6 2,7 -11,2 0,-58 -10,-75 -40,-104 -16,-15 -24,-18 -40,-33 -70,-68 -39,-39 -61,-84 -10,-19 -14,-16 -27,-27 l -9,-9 c -1,-1 -2,-2 -3,-3 l -40,-28 c -9,-7 -15,-10 -21,-10 -14,0 -13,9 -15,6 0,-1 -2,2 -4,2 -36,-68 -20,-26 -14,-43 1,-1 26,-4 -11,-14 -16,-5 -20,-2 -34,-4 -36,-6 -14,-15 -38,-28 -9,-5 -48,-17 -60,-20 7,-4 1,-1 12,-6 1,-1 6,-3 8,-4 15,-7 7,-4 23,-8 -6,-5 -1,0 -10,-8 -1,-1 -3,-2 -4,-2 l -20,-17 c -13,-11 4,0 -17,-13 -52,-33 -71,-12 -88,-44 l -67,6 c 18,0 33,1 44,4 12,4 79,30 95,44 -25,-2 -67,-23 -97,-30 3,31 15,40 -23,31 l -175,-56 c -186,-62 -468,-173 -666,-175 -33,0 -36,-5 -67,-6 l -150,6 c -17,-2 -38,-14 -59,-20 -149,-44 -139,-7 -194,-17 -22,-4 -33,-16 -68,-11 -22,3 -32,15 -50,23 -39,20 -75,-9 -120,-6 -143,8 -63,12 -124,28 l -216,7 c -28,1 -9,13 -53,14 8,-19 -4,-3 13,-18 l -88,15 c -39,6 -69,-4 -90,1 -33,7 -43,33 -70,33 -25,0 -26,-11 -38,-14 -9,-2 -26,3 -36,6 -65,16 -19,18 -56,47 -16,12 -49,26 -69,34 -158,63 -94,60 -187,121 -92,61 -218,181 -286,271 0,1 -1,2 -2,4 -1,1 -2,2 -3,3 l -85,66 c 0,66 -29,118 -30,157 l -12,0 c -5,-17 1,-9 -12,-18 14,-62 13,-104 23,-128 l 11,-19 c 10,-20 25,-75 52,-129 53,-107 19,-26 47,-51 24,-46 29,-88 49,-137 8,-19 21,-47 35,-57 36,-25 25,0 24,31 41,-11 29,-53 37,-96 7,-39 46,-34 84,-43 -4,16 -10,22 -18,36 26,0 32,-7 47,-19 l 32,-35 c -13,-6 -33,-9 -49,-12 3,-30 17,-42 37,-55 32,9 3,14 39,11 53,-5 54,-33 92,-66 30,-27 90,-66 110,-96 23,6 34,8 56,2 12,-3 23,-8 28,-9 16,-1 7,-13 13,7 62,-14 109,-50 151,-78 10,23 38,24 55,18 23,-8 25,-18 60,-18 -1,-1 -3,-2 -4,-2 l -20,-10 c 61,0 177,-40 247,-56 20,-5 48,-1 63,-3 58,-8 96,-32 192,-32 -13,19 -10,4 -12,30 15,10 24,10 30,30 -21,30 -60,23 -79,49 86,20 50,-43 224,-43 l 0,-12 c -23,-5 -38,-12 -66,-12 l 0,-6 c 33,0 183,11 180,-2 l -1,-5 c -2,-30 102,-47 129,-47 -7,13 -10,18 -18,30 53,0 84,-6 133,-6 38,13 -22,1 20,11 20,5 14,-3 34,7 -16,22 -25,7 -54,0 -1,1 -1,2 -1,3 l -2,5 c -1,0 -2,2 -2,2 -5,9 0,3 -6,7 l -26,-29 c -18,12 -23,17 -54,18 -35,1 -41,-9 -48,18 51,0 70,9 122,2 180,-25 150,-39 337,4 l 0,12 c 20,5 30,11 52,15 22,5 39,2 60,7 19,5 30,17 46,18 8,1 39,-4 60,-4 38,1 184,32 211,49 l -30,12 c 30,0 70,9 101,14 31,5 64,11 97,18 164,35 166,63 244,94 27,11 53,20 78,31 l 131,69 c 12,7 5,2 14,11 l -36,-7 c 13,19 10,13 30,24 11,7 20,14 33,22 l 66,36 c 93,50 173,105 229,195 9,14 35,53 36,71 2,15 -18,30 23,57 l 0,-30 c 22,5 13,2 25,17 5,7 12,18 17,25 34,47 59,132 61,193 2,64 -2,111 -10,159 -20,123 -16,122 -68,187 -76,95 -43,62 -86,168 -23,56 -28,47 -77,92 -2,2 -11,11 -12,12 -8,11 3,33 -55,72 -5,-18 -7,-19 -7,-43 -48,26 -40,63 -63,100 -12,19 -23,25 -41,37 -31,21 -22,11 -59,8 15,-22 17,-11 30,-30 -33,8 -73,36 -90,61 26,-1 19,-4 42,-6 -5,18 -17,30 -31,33 -23,5 -5,-11 -40,10 -33,20 -41,29 -92,29 -9,32 -46,62 -83,63 -60,2 -18,52 -86,58 4,-19 7,-17 12,-36 -33,0 -34,-4 -56,11 l -37,23 c -16,14 -2,-3 -12,19 -9,21 -10,35 -46,44 -14,-61 7,-42 30,-73 -84,0 -37,-20 -71,-5 -16,7 -22,17 -54,31 -41,17 -80,34 -117,53 -125,62 -78,12 -137,38 -48,21 -48,69 -99,70 9,24 1,1 18,25 -19,9 -52,23 -78,24 2,-33 16,-19 36,-49 -57,0 -87,-9 -91,31 l 37,18 c -79,0 -56,25 -115,30 7,-17 10,-6 25,-25 l -19,-17 c 12,-17 17,-8 6,-24 -25,-33 8,28 -6,-7 16,-11 14,-10 35,-18 l 31,-18 c -57,5 -99,35 -151,36 6,-23 1,-13 21,-20 32,-12 64,-4 82,-28 -49,0 -104,17 -133,13 -24,-3 -19,2 -24,-19 49,0 74,5 109,-12 -14,-51 -98,-30 -115,-30 l 0,12 c 27,6 25,9 56,1 19,-4 15,2 16,17 -47,0 -62,12 -103,12 l 8,4 c 1,1 4,2 5,2 l 12,6 c -18,5 -10,3 -25,12 1,28 15,38 -4,50 -17,11 -32,-1 -44,-7 11,-28 33,-6 36,-49 l -46,-14 c -15,-3 -2,-5 -21,0 -28,8 -7,2 -17,8 -32,1 -57,15 -91,18 35,34 10,31 -36,31 -34,-1 -69,1 -91,12 l 6,36 c -48,0 -45,1 -74,23 -21,15 -42,19 -77,19 15,-22 16,-11 30,-30 -79,0 -78,26 -121,54 -43,-1 -51,-20 -90,-24 -11,-7 -101,-12 -103,-12 -35,4 -29,30 -85,30 22,-32 39,-20 77,-38 1,0 3,0 4,-2 1,-1 3,-1 4,-3 l -109,7 c 8,-34 16,-25 60,-24 48,1 152,-20 200,-37 13,-4 5,-1 12,-5 -37,0 -48,-11 -94,-4 -24,4 -72,10 -93,10 l 0,24 c -48,0 -80,6 -134,6 -11,0 -24,-1 -35,1 -80,12 6,-1 -79,-1 l 0,-12 c 31,-3 31,-9 36,-12 -73,-17 -85,-36 -121,-37 -77,-3 -25,17 -136,-2 -59,-11 -83,9 -128,23 -68,21 -91,5 -135,4 l 0,-19 c 19,-4 41,-7 61,-12 -24,-32 -170,-28 -199,-11 -37,20 11,-13 -25,42 -30,-3 -36,-13 -61,-19 17,-22 16,-6 55,-6 -7,-6 -8,-7 -18,-12 l -67,-18 c 12,-30 18,0 12,-18 -8,-1 -38,-5 -47,-7 -21,-5 -20,-3 -25,-23 -24,11 -73,16 -101,4 -45,-20 -50,-10 -99,-10 24,21 14,13 12,18 -17,-9 -36,-22 -60,-24 4,19 6,9 0,25 l -24,-12 c 0,-1 1,-5 1,-6 -2,-26 -52,-21 -56,-68 30,7 48,24 85,24 l -121,-84 -12,0 c 0,34 11,58 12,90 -41,-3 -49,-50 -67,-78 -29,-45 -19,-18 -14,-31 4,-10 10,5 2,-11 -13,-25 -161,-32 -244,-77 -10,-6 -5,0 -10,-9 0,0 0,-2 0,-2 -9,-27 -50,-51 -78,-58 3,4 10,12 10,12 9,14 6,-6 2,7 -4,1 4,12 -33,-10 -13,-7 -18,-10 -30,-18 -22,-14 -38,-25 -57,-40 -21,-16 -37,-28 -58,-45 C 192,2538 22,2300 0,2085 Z m 2914,1010 c 39,0 37,5 66,12 -16,10 -49,14 -66,18 l 0,12 c -22,1 -30,5 -52,9 -23,4 -38,3 -63,3 5,-13 -11,-18 37,-13 28,3 37,3 54,-11 l -103,12 c -4,15 -16,29 -34,34 -25,8 -36,-6 -51,-16 9,-23 1,0 18,-24 l -36,-12 c 43,0 61,23 85,-12 -26,0 -25,-2 -42,6 10,-29 59,-23 90,-24 36,-1 31,-9 73,-1 l 24,7 z m 218,-12 c -19,-9 -23,-6 -49,-6 1,-10 -2,-6 3,-16 4,-11 4,-19 52,-20 -1,20 -4,23 -6,42 z M 937,2938 914,2924 c -25,-12 -10,5 -25,-16 46,0 47,1 66,30 l -18,0 z m 3506,-206 0,0 z m 133,-115 0,0 z m -399,-36 0,0 z m 206,-919 c -43,-1 -40,-21 -79,-24 12,-21 2,-12 14,-16 20,-6 50,18 65,40 z m -48,-48 1,2 c 0,-1 -2,-2 -1,-2 z m -43,-18 c 25,2 26,3 37,18 -16,-4 -7,-1 -19,-6 -9,-5 -11,-6 -18,-12 z m 0,0 -13,-4 13,4 z m -78,-37 2,2 c -1,0 -3,-1 -2,-2 z m -12,-6 0,0 z m 0,0 -12,-6 12,6 z M 2074,1287 c 13,-18 -4,-9 24,-12 -14,19 4,10 -24,12 z m -412,-66 -18,0 c 0,-35 -7,-31 67,-49 -19,26 -40,17 -49,49 z m 55,-55 2,2 c 0,0 -3,-1 -2,-2 z m 24,-12 2,2 c 0,0 -3,-1 -2,-2 z m 18,-6 0,0 z m -508,-223 2,1 c 0,0 -2,-1 -2,-1 z M 2400,550 c 32,0 35,-7 48,12 -32,0 -34,7 -48,-12 z m 12,-6 0,-6 c 43,0 77,-6 127,-6 l 0,6 c -43,0 -77,6 -127,6 z m 151,-12 c 2,-1 4,-4 4,-2 l 39,-10 c -14,18 -11,12 -43,12 z M 4117,429 c 16,-14 14,-18 42,-18 -7,26 -8,18 -42,18 z m -435,-24 c 22,-5 17,-13 24,18 l -24,-7 0,-11 z m 641,0 -12,7 12,-7 z m 0,0 c 7,-5 -1,-3 13,-5 8,-2 14,-1 23,-1 l 0,6 -36,0 z M 2388,374 c 6,-6 23,10 7,4 0,0 -17,7 -7,-4 z m 3089,-18 0,0 z m -731,-12 2,2 c -1,0 -3,-1 -2,-2 z M 2775,332 c 7,-7 34,10 7,3 0,-1 -18,8 -7,-3 z m 3688,-18 0,-18 c 45,-12 90,1 139,12 -17,23 -24,0 -58,3 -27,1 -51,3 -81,3 z m -1046,6 0,-12 c 23,-2 24,-6 54,-6 -1,1 -3,0 -4,2 l -23,13 c -22,11 5,10 -27,3 z m 743,-66 -39,16 c -21,11 -13,17 -3,32 -40,0 -56,11 -91,12 12,-42 51,-20 55,-67 37,0 48,7 78,7 z m -163,-25 0,6 c -30,0 -31,0 -54,-6 l 20,-2 c 10,0 21,2 34,2 z M 4129,205 c 1,-1 25,-1 13,9 -7,4 -16,-5 -13,-9 z m 961,-12 c 2,1 4,0 4,2 1,2 4,2 5,2 4,2 9,3 13,4 l 27,10 c -21,5 -31,13 -55,18 -10,-22 1,23 1,-8 0,-9 10,-4 -14,-20 l 19,-8 z"
       id="path3287"
       inkscape:connector-curvature="0"
       style="fill:#084294;fill-opacity:1;stroke:none" /><path
       class="fil1"
       d="m 3138,3210 c -23,0 -51,-20 -97,48 22,0 33,-3 47,-13 19,-16 11,-15 38,-29 28,21 -5,24 54,24 46,0 67,-8 97,-24 -16,-24 -34,-21 -18,-55 -45,4 -99,49 -121,49 z"
       id="path3289"
       inkscape:connector-curvature="0"
       style="fill:#084294;fill-opacity:1;stroke:none" /><path
       class="fil1"
       d="m 1922,3216 -48,-6 c 0,1 1,1 1,2 0,7 4,8 -12,10 -15,1 -40,0 -55,0 l 0,12 c 36,0 52,-2 79,-6 63,-7 42,30 98,14 25,-7 22,-2 22,-44 26,-1 33,-6 67,-6 l 0,-6 c -133,-20 -89,30 -152,30 z"
       id="path3291"
       inkscape:connector-curvature="0"
       style="fill:#084294;fill-opacity:1;stroke:none" /><path
       class="fil1"
       d="m 6838,380 0,13 c 20,4 38,25 97,0 19,-8 30,-15 36,-37 -64,15 -118,0 -188,0 l 22,14 c 11,5 22,8 33,10 z"
       id="path3293"
       inkscape:connector-curvature="0"
       style="fill:#084294;fill-opacity:1;stroke:none" /><path
       class="fil1"
       d="m 5229,362 -10,7 c 0,1 -1,3 -1,3 0,0 0,2 -1,2 -34,0 -42,7 -78,7 -30,0 -61,-1 -91,-1 l 25,12 c 34,12 58,53 130,10 19,-11 34,-22 26,-40 z"
       id="path3295"
       inkscape:connector-curvature="0"
       style="fill:#084294;fill-opacity:1;stroke:none" /><path
       class="fil1"
       d="m 6989,302 66,4 c -13,21 -15,10 -30,32 51,29 70,-46 127,-18 -14,-38 -73,-8 -118,-39 -12,-8 0,-6 -39,-15 -10,20 -2,5 -4,20 l -1,9 c -2,10 -5,-4 -1,7 z"
       id="path3297"
       inkscape:connector-curvature="0"
       style="fill:#084294;fill-opacity:1;stroke:none" /><path
       class="fil1"
       d="m 7176,326 c 73,4 108,13 163,0 l -18,-12 c -30,-12 -118,-24 -145,12 z"
       id="path3299"
       inkscape:connector-curvature="0"
       style="fill:#084294;fill-opacity:1;stroke:none" /><path
       class="fil1"
       d="m 3482,247 c 10,13 13,19 33,15 14,-3 13,-5 23,-7 37,-8 92,-5 113,-38 -60,0 -148,29 -169,30 z"
       id="path3301"
       inkscape:connector-curvature="0"
       style="fill:#084294;fill-opacity:1;stroke:none" /><path
       class="fil1"
       d="m 5229,151 c 33,7 149,-2 170,-31 -41,0 -56,4 -91,7 -23,2 -65,5 -79,24 z"
       id="path3303"
       inkscape:connector-curvature="0"
       style="fill:#084294;fill-opacity:1;stroke:none" /><path
       class="fil1"
       d="m 3597,459 c 37,51 79,27 91,24 -13,-18 -18,-13 -24,-36 -28,1 -41,10 -67,12 z"
       id="path3305"
       inkscape:connector-curvature="0"
       style="fill:#084294;fill-opacity:1;stroke:none" /><path
       class="fil1"
       d="m 5332,356 0,12 c 29,8 27,25 67,25 23,0 2,1 18,-6 -8,-30 -10,-7 -18,-37 -31,0 -33,6 -67,6 z"
       id="path3307"
       inkscape:connector-curvature="0"
       style="fill:#084294;fill-opacity:1;stroke:none" /><path
       class="fil1"
       d="m 5761,356 c -28,3 -10,-6 -24,12 40,4 41,19 97,19 -14,-26 -22,-31 -67,-31 10,-14 8,-6 13,-24 l -19,0 0,24 z"
       id="path3309"
       inkscape:connector-curvature="0"
       style="fill:#084294;fill-opacity:1;stroke:none" /><path
       class="fil1"
       d="m 2515,592 c 32,-1 128,-14 145,-36 -16,-7 -54,3 -75,10 l -56,16 c -16,8 -9,6 -14,10 z"
       id="path3311"
       inkscape:connector-curvature="0"
       style="fill:#084294;fill-opacity:1;stroke:none" /><path
       class="fil1"
       d="m 4304,2496 c 51,-13 20,-47 73,-48 4,-17 11,-40 18,-54 -33,9 -49,50 -69,76 -9,13 -13,14 -22,26 z"
       id="path3313"
       inkscape:connector-curvature="0"
       style="fill:#084294;fill-opacity:1;stroke:none" /><path
       class="fil1"
       d="m 3017,3119 c -23,16 -35,17 -48,25 -1,0 -3,2 -4,3 0,0 -2,1 -3,2 20,5 27,11 49,12 9,-35 22,-8 42,-36 -17,-8 -12,-6 -36,-6 z"
       id="path3315"
       inkscape:connector-curvature="0"
       style="fill:#084294;fill-opacity:1;stroke:none" /><path
       class="fil1"
       d="m 985,1124 33,-15 c 1,-1 2,-3 3,-3 35,-34 58,-28 67,-61 -27,8 -89,59 -103,79 z"
       id="path3317"
       inkscape:connector-curvature="0"
       style="fill:#084294;fill-opacity:1;stroke:none" /><path
       class="fil1"
       d="m 4492,399 0,12 c 21,0 56,18 78,-12 -25,-6 -50,-11 -78,0 z"
       id="path3319"
       inkscape:connector-curvature="0"
       style="fill:#084294;fill-opacity:1;stroke:none" /><path
       class="fil1"
       d="m 1783,3174 c 19,25 38,18 79,18 -12,-17 -32,-24 -60,-24 -8,0 -17,4 -19,6 z"
       id="path3321"
       inkscape:connector-curvature="0"
       style="fill:#084294;fill-opacity:1;stroke:none" /><path
       class="fil1"
       d="m 6227,356 c 69,2 -22,25 85,0 -12,-8 11,0 -16,-8 -8,-3 -66,-12 -69,8 z"
       id="path3323"
       inkscape:connector-curvature="0"
       style="fill:#084294;fill-opacity:1;stroke:none" /><path
       class="fil1"
       d="m 1572,3174 c 5,13 -2,4 6,11 24,21 32,1 12,31 26,-1 19,-4 42,-6 -8,-13 -48,-51 -60,-36 z"
       id="path3325"
       inkscape:connector-curvature="0"
       style="fill:#084294;fill-opacity:1;stroke:none" /><path
       class="fil1"
       d="m 3488,471 c 33,-3 82,-22 97,-42 -25,0 -65,20 -87,34 -14,9 -2,1 -10,8 z"
       id="path3327"
       inkscape:connector-curvature="0"
       style="fill:#084294;fill-opacity:1;stroke:none" /><path
       class="fil1"
       d="m 5979,145 c 26,2 45,11 73,12 -5,-16 0,-13 -17,-20 -10,-4 -52,-12 -56,8 z"
       id="path3329"
       inkscape:connector-curvature="0"
       style="fill:#084294;fill-opacity:1;stroke:none" /><path
       class="fil1"
       d="m 2884,3228 c 22,-5 45,-12 72,-12 -8,-15 -16,-17 -50,-8 -22,6 -16,-3 -22,20 z"
       id="path3331"
       inkscape:connector-curvature="0"
       style="fill:#084294;fill-opacity:1;stroke:none" /><path
       class="fil1"
       d="m 2473,3258 -43,6 c 16,0 15,2 24,6 -6,16 -11,8 -18,24 19,-1 29,-5 43,-12 -2,-18 0,-11 -6,-24 z"
       id="path3333"
       inkscape:connector-curvature="0"
       style="fill:#084294;fill-opacity:1;stroke:none" /><path
       class="fil1"
       d="m 7206,368 0,6 85,0 0,-12 c -13,0 -30,-1 -42,0 -22,2 -19,6 -43,6 z"
       id="path3335"
       inkscape:connector-curvature="0"
       style="fill:#084294;fill-opacity:1;stroke:none" /><path
       class="fil1"
       d="m 1203,3095 0,12 c 23,2 24,6 54,6 l 0,-18 -54,0 z"
       id="path3337"
       inkscape:connector-curvature="0"
       style="fill:#084294;fill-opacity:1;stroke:none" /><path
       class="fil1"
       d="m 5713,145 c 64,0 70,8 85,-12 -51,11 -82,-14 -85,12 z"
       id="path3339"
       inkscape:connector-curvature="0"
       style="fill:#084294;fill-opacity:1;stroke:none" /><path
       class="fil1"
       d="m 3815,3071 c 35,-1 45,-18 84,-18 l 0,-6 c -31,0 -68,1 -84,24 z"
       id="path3341"
       inkscape:connector-curvature="0"
       style="fill:#084294;fill-opacity:1;stroke:none" /><path
       class="fil1"
       d="m 2914,3095 -90,17 c 7,2 27,1 36,1 31,0 34,-5 60,-6 l -6,-12 z"
       id="path3343"
       inkscape:connector-curvature="0"
       style="fill:#084294;fill-opacity:1;stroke:none" /><path
       class="fil1"
       d="m 3017,3240 -67,0 c 10,13 20,21 52,10 18,-6 10,-6 15,-10 z"
       id="path3345"
       inkscape:connector-curvature="0"
       style="fill:#084294;fill-opacity:1;stroke:none" /><path
       class="fil1"
       d="m 5659,350 0,6 c 30,0 50,11 72,0 -15,-21 17,-6 -72,-6 z"
       id="path3347"
       inkscape:connector-curvature="0"
       style="fill:#084294;fill-opacity:1;stroke:none" /><path
       class="fil1"
       d="m 6783,241 c 17,4 32,9 49,13 -7,-11 -48,-56 -49,-13 z"
       id="path3349"
       inkscape:connector-curvature="0"
       style="fill:#084294;fill-opacity:1;stroke:none" /><path
       class="fil1"
       d="m 4268,2478 c 7,26 3,13 24,25 l 7,-37 c -22,6 -9,6 -31,12 z"
       id="path3351"
       inkscape:connector-curvature="0"
       style="fill:#084294;fill-opacity:1;stroke:none" /><path
       class="fil1"
       d="m 3682,3095 c -24,2 -36,12 -61,18 l 0,12 c 24,-2 22,-4 47,-20 1,-1 6,-4 7,-5 l 7,-5 z"
       id="path3353"
       inkscape:connector-curvature="0"
       style="fill:#084294;fill-opacity:1;stroke:none" /><path
       class="fil1"
       d="m 7400,362 17,7 c 10,2 12,2 21,5 22,5 23,10 28,-12 l -66,0 z"
       id="path3355"
       inkscape:connector-curvature="0"
       style="fill:#084294;fill-opacity:1;stroke:none" /><path
       class="fil1"
       d="m 1118,1668 c 25,-2 26,-7 37,-24 -23,-10 -31,0 -37,24 z"
       id="path3357"
       inkscape:connector-curvature="0"
       style="fill:#084294;fill-opacity:1;stroke:none" /><path
       class="fil1"
       d="m 713,1275 c 21,-5 28,-12 31,-36 -23,6 -25,13 -31,36 z"
       id="path3359"
       inkscape:connector-curvature="0"
       style="fill:#084294;fill-opacity:1;stroke:none" /><path
       class="fil1"
       d="m 2122,3246 c -23,-5 -24,-6 -54,-6 11,10 25,19 40,16 14,-4 11,-7 14,-10 z"
       id="path3361"
       inkscape:connector-curvature="0"
       style="fill:#084294;fill-opacity:1;stroke:none" /><path
       class="fil1"
       d="m 3567,3119 c 24,-2 67,-14 78,-30 l -68,22 c -8,5 -6,4 -10,8 z"
       id="path3363"
       inkscape:connector-curvature="0"
       style="fill:#084294;fill-opacity:1;stroke:none" /><path
       class="fil1"
       d="m 7218,350 0,6 c 35,0 42,9 49,-18 -17,4 -31,12 -49,12 z"
       id="path3365"
       inkscape:connector-curvature="0"
       style="fill:#084294;fill-opacity:1;stroke:none" /><path
       class="fil1"
       d="m 1505,3198 55,0 0,-6 c -25,0 -52,-10 -55,6 z"
       id="path3367"
       inkscape:connector-curvature="0"
       style="fill:#084294;fill-opacity:1;stroke:none" /><path
       class="fil1"
       d="m 3676,3119 28,-8 c 1,0 3,-1 4,-2 15,-9 1,-1 10,-8 -23,2 -29,7 -42,18 z"
       id="path3369"
       inkscape:connector-curvature="0"
       style="fill:#084294;fill-opacity:1;stroke:none" /><path
       class="fil1"
       d="m 2182,3276 49,-18 c -17,1 -12,-1 -27,4 l -22,14 z"
       id="path3371"
       inkscape:connector-curvature="0"
       style="fill:#084294;fill-opacity:1;stroke:none" /><path
       class="fil1"
       d="m 1306,3113 c 5,21 3,19 24,24 l -24,-24 z"
       id="path3373"
       inkscape:connector-curvature="0"
       style="fill:#084294;fill-opacity:1;stroke:none" /><path
       class="fil1"
       d="m 1276,973 c -29,0 -12,0 -19,6 29,0 12,0 19,-6 z"
       id="path3375"
       inkscape:connector-curvature="0"
       style="fill:#084294;fill-opacity:1;stroke:none" /><path
       class="fil1"
       d="m 2497,598 c 6,6 22,-9 7,-3 0,0 -17,-7 -7,3 z"
       id="path3377"
       inkscape:connector-curvature="0"
       style="fill:#084294;fill-opacity:1;stroke:none" /><polygon
       transform="translate(-1726,-1226)"
       class="fil1"
       points="5408,4321 5414,4321 5409,4314 "
       id="polygon3379"
       style="fill:#084294;fill-opacity:1;stroke:none" /><polygon
       transform="translate(-1726,-1226)"
       class="fil1"
       points="5958,1661 5952,1661 5957,1668 "
       id="polygon3381"
       style="fill:#084294;fill-opacity:1;stroke:none" /><polygon
       transform="translate(-1726,-1226)"
       class="fil1"
       points="3032,4339 3032,4333 3025,4338 "
       id="polygon3383"
       style="fill:#084294;fill-opacity:1;stroke:none" /><polygon
       transform="translate(-1726,-1226)"
       class="fil1"
       points="2711,2290 2717,2290 2712,2283 "
       id="polygon3385"
       style="fill:#084294;fill-opacity:1;stroke:none" /><polygon
       transform="translate(-1726,-1226)"
       class="fil1"
       points="2711,2350 2705,2350 2710,2357 "
       id="polygon3387"
       style="fill:#084294;fill-opacity:1;stroke:none" /><polygon
       transform="translate(-1726,-1226)"
       class="fil1"
       points="9126,1588 9126,1582 9119,1587 "
       id="polygon3389"
       style="fill:#084294;fill-opacity:1;stroke:none" /><polygon
       transform="translate(-1726,-1226)"
       class="fil1"
       points="5390,4351 5384,4351 5389,4358 "
       id="polygon3391"
       style="fill:#084294;fill-opacity:1;stroke:none" /><polygon
       transform="translate(-1726,-1226)"
       class="fil1"
       points="5214,1697 5208,1697 5213,1704 "
       id="polygon3393"
       style="fill:#084294;fill-opacity:1;stroke:none" /><polygon
       transform="translate(-1726,-1226)"
       class="fil1"
       points="6309,3886 6302,3886 6308,3893 "
       id="polygon3395"
       style="fill:#084294;fill-opacity:1;stroke:none" /><polygon
       transform="translate(-1726,-1226)"
       class="fil1"
       points="6689,1643 6689,1649 6696,1644 "
       id="polygon3397"
       style="fill:#084294;fill-opacity:1;stroke:none" /><polygon
       transform="translate(-1726,-1226)"
       class="fil1"
       points="5498,2344 5498,2350 5505,2345 "
       id="polygon3399"
       style="fill:#084294;fill-opacity:1;stroke:none" /><polygon
       transform="translate(-1726,-1226)"
       class="fil1"
       points="4743,4466 4749,4466 4744,4459 "
       id="polygon3401"
       style="fill:#084294;fill-opacity:1;stroke:none" /><polygon
       transform="translate(-1726,-1226)"
       class="fil1"
       points="4241,1575 4253,1582 "
       id="polygon3403"
       style="fill:#084294;fill-opacity:1;stroke:none" /><polygon
       transform="translate(-1726,-1226)"
       class="fil1"
       points="5390,4351 5402,4345 "
       id="polygon3405"
       style="fill:#084294;fill-opacity:1;stroke:none" /><polygon
       transform="translate(-1726,-1226)"
       class="fil1"
       points="6187,1632 6176,1625 "
       id="polygon3407"
       style="fill:#084294;fill-opacity:1;stroke:none" /><polygon
       transform="translate(-1726,-1226)"
       class="fil1"
       points="2970,2208 2983,2205 "
       id="polygon3409"
       style="fill:#084294;fill-opacity:1;stroke:none" /></g><path
     class="fil2"
     d="m 9933,3313 -544,0 c -153,0 -285,-6 -436,-6 -39,0 -58,-7 -102,-6 -35,0 -81,2 -115,-1 -34,-3 -60,-6 -103,-6 l -532,-24 c -162,-8 -267,-30 -441,-30 -256,0 -159,202 -148,215 39,45 285,49 348,56 53,6 143,-2 199,1 27,2 29,6 60,6 90,2 182,0 272,0 52,0 79,-6 127,-6 89,1 350,5 404,-1 82,-9 295,-5 400,-5 54,0 85,-6 133,-6 303,2 591.001,-27 884.001,-60 43,-5 82,-12 121,-18 79,-11 154,-26 224,-41 136,-29 531,-131 543,-274 -28,1 -48,11 -73,18 -235,65 -234,87 -524,135 -51,9 -105,17 -163,24 -46,6 -118,17 -171,17 -39,-1 -52,5 -85,6 -31,1 -65,-2 -97,0 -30,1 -46,6 -84,6 -32.0002,0 -65.001,0 -97.001,0 z"
     id="path3411"
     inkscape:connector-curvature="0"
     style="fill:#f79c10;fill-opacity:1" /><g
     id="g4654"
     style="stroke:none"><path
       style="fill:#084294;fill-opacity:1;stroke:none"
       inkscape:connector-curvature="0"
       id="path3413"
       d="M 8226,71.999999 C 8234,70 8235,71 8245,68 c -11,54 11,13.999999 42,67 20,-1 28,2 42,6 l -24,22 c 4,4 8,11 10,15 l 12,13 c 1,1 3,2 4,2 l 16,14 20,-23 c 28,8 14,12 41,5 -6,11 -16,10 -26,18 27,16 13,19 37,37 25,18 17,5 36,34 -26,15 -11,-12 -29,19 58,31 82,43 43,139 9,4 17,6 25,11 -2,29 -4,55 -24,65 -33,17 -38,-36 -61,1 -1,2 -3,7 -4,8 -24,53 -4,73 -22,80 -11,3 -5,1 -15,3 l -31,-50 c -17,-3 -41,-3 -54,-10 -12,29 25,4 -22,50 -36,35 -40,14 -63,37 l 30,-2 c 2,53 -59,49 -83,80 -19,25 4,18 -17,37 l -35,19 c -49,30 -143,79 -137,-28 2,-40 12,-21 25,-48 19,-40 -6,-77 -39,-95 -67,-35 -64,-99 -11,-130 15,-8 38,-9 53,-17 -6,-4 -6,-3 -14,-8 l -15,-9 c -20,-9 -18,-6 -35,1 -1,-1 -1,-4 -1,-4 l -2,-7 c 0,-1 0,-3 0,-3 l 3,-4 c -16,-3 -59,-40 -67,-58 -27,-67 -35,-59 -32,-155 9,-35 11,-13 29,-34 30,-37 -1,-71.000001 -34,-47 -16,12 -6,25 -4,45 -5,1 -21,4 -25,6 -13,7 -5,3 -9,13 -10,24 -8,8 -27,26 -1,47 2,8 10,41 6,23 -3,93 -4,118 -3,108 15,96 5,157 -50,0 -54,11 -78,0 -46,-19 -48,-21 -53,-85 -13,-156 37,-152 47,-192 22,0 26,2 42,6 l 15,-34 c 14,-37 34,-73 60,-104 l 33,-39.000001 c 1,-1 3,-2 4,-2 L 7853,67 c 19,-10 4,-3 12,-11 6,-6 2,-4 11,-9 21,-12 111,-22 129,-17 38,10 109,66.999999 153,50.999999 12,-5 48,-41.999999 68,-9 z M 8034,0 l 88,0 c 84,7 170,34 249,86.999999 L 8432,134 c 32,30 72,91 92,132 86,170 34,373 -107,491 -14,12 -17,18 -32,29 -11,8 -25,16 -36,23 -80,49 -165,73 -267,78 -17,1 -90,-7 -107,-11 C 7760,830 7587,674 7587,429 7587,197 7795,19 8034,0 Z"
       class="fil3" /><path
       style="fill:#dddddd;stroke:none;fill-opacity:1"
       inkscape:connector-curvature="0"
       id="path3415"
       d="m 8038,416 -15,31 c 16,-4 47,-40 55,-7 10,36 3,7 -1,19 7,-16 8,-8 24,-12 l 3,10 c 8,17 7,19 20,26 23,13 32,1 44,36 -36,24 -42,2 -64,-5 -14,-4 -17,-1 -33,-7 -24,-53 -3,-23 -24,-36 -8,-11 -13,-7 -30,-6 0,48 -3,54 19,83 l 11,17 c 8,20 -4,9 16,29 26,25 108,42 135,37 23,-23 27,-2 63,-37 47,-46 10,-21 22,-50 13,7 37,7 54,10 l 31,50 c 10,-2 4,0 15,-3 18,-7 -2,-27 22,-80 1,-1 3,-6 4,-8 23,-37 28,16 61,-1 20,-10 22,-36 24,-65 -8,-5 -16,-7 -25,-11 39,-96 15,-108 -43,-139 18,-31 3,-4 29,-19 -19,-29 -11,-16 -36,-34 -24,-18 -10,-21 -37,-37 10,-8 20,-7 26,-18 -27,7 -13,3 -41,-5 l -20,23 -16,-14 c -1,0 -3,-1 -4,-2 l -12,-13 c -2,-4 -6,-11 -10,-15 l 24,-22 c -14,-4 -22,-7 -42,-6 -17,8 -16,-2 -33,-8 -21,-7 -7,5 -35,-3 17,62 47,35 46,126 -16,4 -18,-5 -23,17 -4,17 0,35 4,47 l -12,6 c -9,4 -3,0 -12,6 -9,5 -14,11 -22,18 -20,-6 -12,-13 -25,-20 -24,-13 -59,26 -69,43 -5,10 -1,8 -11,19 -21,-6 -5,-2 -16,-15 -12,-15 19,-1 -13,-13 -12,36 -22,15 -28,58 z"
       class="fil4" /><path
       style="fill:#b8b8b8;stroke:none;fill-opacity:1"
       inkscape:connector-curvature="0"
       id="path3417"
       d="m 7821,200 c 47,-4 30,-17 69,11 40,29 14,3 42,43 17,-6 5,-5 23,-17 -2,9 -4,11 -3,17 0,13 -2,4 4,13 25,-5 47,-35 55,-55 4,1 59,27 68,-21 2,-12 -5,-8 -2,-16 4,-11 30,-28 49,-36 l 18,-6 c 23,-2 29,13 48,0 10,-6 23,-29 7,-50.000001 -3,-4 -4,-1 -9,-11.999999 l 36,0.999999 c -20,-32.999999 -56,4 -68,9 C 8114,96.999999 8043,40 8005,30 c -18,-5 -108,5 -129,17 -9,5 -5,3 -11,9 -8,8 7,1 -12,11 l -21,7.999999 c -1,0 -3,1 -4,2 L 7795,116 c -26,31 -46,67 -60,104 l -15,34 c -16,-4 -20,-6 -42,-6 -10,40 -60,36 -47,192 5,64 7,66 53,85 24,11 28,0 78,0 10,-61 -8,-49 -5,-157 1,-25 10,-95 4,-118 -8,-33 -11,6 -10,-41 19,-18 17,-2 27,-26 4,-10 -4,-6 9,-13 4,-2 20,-5 25,-6 -2,-20 -12,-33 4,-45 33,-24.000001 64,10 34,47 -18,21 -20,-1 -29,34 z"
       class="fil5" /><path
       style="fill:#0c64e1;fill-opacity:1;stroke:none"
       inkscape:connector-curvature="0"
       id="path3419"
       d="M 8226,71.999999 8190,71 c 5,10.999999 6,7.999999 9,11.999999 C 8215,104 8202,127 8192,133 c -19,13 -25,-2 -48,0 l -18,6 c -19,8 -45,25 -49,36 -3,8 4,4 2,16 -9,48 -64,22 -68,21 -8,20 -30,50 -55,55 -6,-9 -4,0 -4,-13 -1,-6 1,-8 3,-17 -18,12 -6,11 -23,17 -28,-40 -2,-14 -42,-43 -39,-28 -22,-15 -69,-11 -3,96 5,88 32,155 8,18 51,55 67,58 l -3,4 c 0,0 0,2 0,3 l 2,7 c 0,0 0,3 1,4 17,-7 15,-10 35,-1 l 15,9 c 8,5 8,4 14,8 l 20,-1 10,-36 24,6 c 6,-43 16,-22 28,-58 32,12 1,-2 13,13 11,13 -5,9 16,15 10,-11 6,-9 11,-19 10,-17 45,-56 69,-43 13,7 5,14 25,20 8,-7 13,-13 22,-18 9,-6 3,-2 12,-6 l 12,-6 c -4,-12 -8,-30 -4,-47 5,-22 7,-13 23,-17 1,-91 -29,-64 -46,-126 28,8 14,-4 35,3 17,6 16,16 33,8 -31,-53.000001 -53,-13 -42,-67 -10,3 -11,2 -19,3.999999 z"
       class="fil6" /><path
       style="fill:#b8b8b8;stroke:none;fill-opacity:1"
       inkscape:connector-curvature="0"
       id="path3421"
       d="m 7984,447 c -15,8 -38,9 -53,17 -53,31 -56,95 11,130 33,18 58,55 39,95 -13,27 -23,8 -25,48 -6,107 88,58 137,28 l 35,-19 c 21,-19 -2,-12 17,-37 24,-31 85,-27 83,-80 l -30,2 c -27,5 -109,-12 -135,-37 -20,-20 -8,-9 -16,-29 l -11,-17 c -22,-29 -19,-35 -19,-83 17,-1 22,-5 30,6 21,13 0,-17 24,36 16,6 19,3 33,7 22,7 28,29 64,5 -12,-35 -21,-23 -44,-36 -13,-7 -12,-9 -20,-26 l -3,-10 c -16,4 -17,-4 -24,12 4,-12 11,17 1,-19 -8,-33 -39,3 -55,7 l 15,-31 -24,-6 -10,36 -20,1 z"
       class="fil7" /></g></svg>
