<?xml version="1.0" encoding="UTF-8" standalone="no"?>
<!-- Created with Inkscape (http://www.inkscape.org/) -->

<svg
   xmlns:dc="http://purl.org/dc/elements/1.1/"
   xmlns:cc="http://creativecommons.org/ns#"
   xmlns:rdf="http://www.w3.org/1999/02/22-rdf-syntax-ns#"
   xmlns:svg="http://www.w3.org/2000/svg"
   xmlns="http://www.w3.org/2000/svg"
   xmlns:sodipodi="http://sodipodi.sourceforge.net/DTD/sodipodi-0.dtd"
   xmlns:inkscape="http://www.inkscape.org/namespaces/inkscape"
   width="120"
   height="42"
   id="svg2759"
   sodipodi:version="0.32"
   inkscape:version="0.91 r13725"
   version="1.0"
   sodipodi:docname="by-green.svg"
   inkscape:output_extension="org.inkscape.output.svg.inkscape">
  <defs
     id="defs2761" />
  <sodipodi:namedview
     id="base"
     pagecolor="#ffffff"
     bordercolor="#8b8b8b"
     borderopacity="1"
     gridtolerance="10000"
     guidetolerance="10"
     objecttolerance="10"
     inkscape:pageopacity="0.0"
     inkscape:pageshadow="2"
     inkscape:zoom="5.6568542"
     inkscape:cx="45.868537"
     inkscape:cy="28.770174"
     inkscape:document-units="px"
     inkscape:current-layer="layer1"
     width="120px"
     height="42px"
     inkscape:showpageshadow="false"
     inkscape:window-width="1284"
     inkscape:window-height="789"
     inkscape:window-x="278"
     inkscape:window-y="77"
     showgrid="false"
     inkscape:window-maximized="0" />
  <metadata
     id="metadata2764">
    <rdf:RDF>
      <cc:Work
         rdf:about="">
        <dc:format>image/svg+xml</dc:format>
        <dc:type
           rdf:resource="http://purl.org/dc/dcmitype/StillImage" />
        <dc:title></dc:title>
      </cc:Work>
    </rdf:RDF>
  </metadata>
  <g
     inkscape:label="Layer 1"
     inkscape:groupmode="layer"
     id="layer1">
    <path
       inkscape:connector-curvature="0"
       style="fill:#75af96;fill-opacity:1"
       d="M 3.1399826,0.50750744 116.49364,0.70886464 c 1.58383,0 2.99879,-0.23483393 2.99879,3.16052516 l -0.13878,37.3290762 -119.07416287,0 0,-37.4678422 c 0,-1.6743829 0.16207441,-3.22311636 2.86049547,-3.22311636 z"
       nodetypes="ccccccc"
       id="path3817_1_" />
    <path
       inkscape:connector-curvature="0"
       id="path263"
       d="m 117.75237,6.25128e-7 -115.5052227,0 C 1.00833,6.25128e-7 -1.532736e-6,1.0077406 -1.532736e-6,2.2464292 l 0,39.2465508 C -1.532736e-6,41.772937 0.22757244,42 0.50755799,42 L 119.49244,42 C 119.77243,42 120,41.772927 120,41.49298 L 120,2.2464292 C 119.99999,1.0077406 118.99167,6.25128e-7 117.75237,6.25128e-7 Z M 2.2471374,1.0150142 l 115.5052226,0 c 0.67982,0 1.2325,0.5521425 1.2325,1.231415 0,0 0,15.8472808 0,27.2759428 l -82.825236,0 c -3.025958,5.471005 -8.855638,9.18562 -15.546134,9.18562 -6.693408,0 -12.5216369,-3.711216 -15.5461347,-9.18562 l -4.0522477,0 c 0,-11.428652 0,-27.2759428 0,-27.2759428 9.9e-6,-0.6792626 0.5526966,-1.231415 1.2320298,-1.231415 z"
       style="fill:#003a21;fill-opacity:1" />
    <path
       d="m 73.808975,32.747426 c 0.315404,0 0.603638,0.02814 0.864702,0.08345 0.26009,0.05531 0.482327,0.146527 0.66866,0.273647 0.185358,0.126146 0.329962,0.295 0.431864,0.504595 0.101901,0.210569 0.153339,0.469668 0.153339,0.779216 0,0.333813 -0.07573,0.611335 -0.228061,0.833559 -0.151392,0.223189 -0.376551,0.404653 -0.67351,0.547294 0.409544,0.117412 0.715248,0.323141 0.917103,0.617158 0.201856,0.294017 0.302793,0.648211 0.302793,1.062571 0,0.333813 -0.06499,0.622981 -0.195068,0.867523 -0.130045,0.243568 -0.305704,0.443465 -0.52503,0.597752 -0.220299,0.155261 -0.471654,0.269761 -0.753091,0.343511 -0.28241,0.07472 -0.571618,0.11159 -0.869551,0.11159 l -3.216196,0 0,-6.621874 3.122046,0 0,10e-6 z m -0.186332,2.678257 c 0.26009,0 0.473592,-0.0621 0.64149,-0.185339 0.166924,-0.123235 0.250381,-0.323141 0.250381,-0.600663 0,-0.154287 -0.02812,-0.281408 -0.08348,-0.379423 -0.05625,-0.09898 -0.130045,-0.175641 -0.223211,-0.231923 -0.09312,-0.05531 -0.199917,-0.09413 -0.320263,-0.115474 -0.120346,-0.02134 -0.246506,-0.03203 -0.375577,-0.03203 l -1.365464,0 0,1.544848 1.476101,0 z m 0.08537,2.810217 c 0.142656,0 0.278524,-0.01358 0.40857,-0.04172 0.130045,-0.02814 0.244557,-0.07472 0.344521,-0.138766 0.09898,-0.06502 0.177597,-0.153323 0.236796,-0.264912 0.05923,-0.110626 0.08835,-0.253267 0.08835,-0.425996 0,-0.339637 -0.0961,-0.582231 -0.288234,-0.727784 -0.192155,-0.144589 -0.446422,-0.217365 -0.761826,-0.217365 l -1.589649,0 0,1.816547 1.561506,0 z"
       id="path267"
       style="fill:#ffffff;fill-opacity:1"
       inkscape:connector-curvature="0" />
    <path
       d="m 76.503024,32.747426 1.633315,0 1.550832,2.615179 1.541123,-2.615179 1.623616,0 -2.458226,4.080454 0,2.541429 -1.459604,0 0,-2.578304 -2.431056,-4.043579 z"
       id="path269"
       style="fill:#ffffff;fill-opacity:1"
       inkscape:connector-curvature="0" />
    <path
       id="path5906_1_"
       cx="296.35416"
       ry="22.939548"
       cy="264.3577"
       type="arc"
       rx="22.939548"
       d="m 34.254088,19.606077 c 0.0052,7.529675 -6.096564,13.636752 -13.626526,13.641618 -7.529962,0.0052 -13.6386533,-6.09548 -13.6430254,-13.625102 0,-0.0052 0,-0.01067 0,-0.01648 -0.00434,-7.529674 6.0965644,-13.6367513 13.6265264,-13.6411403 7.530942,-0.0052 13.638653,6.0954803 13.643025,13.6251543 0,0.0052 0,0.01067 0,0.01596 z"
       style="fill:#ffffff;fill-opacity:1"
       inkscape:connector-curvature="0" />
    <path
       inkscape:connector-curvature="0"
       d="m 31.703152,8.5015193 c 3.023541,3.0232277 4.535551,6.7257027 4.535551,11.1045567 0,4.379807 -1.485803,8.042513 -4.457408,10.988082 -3.153578,3.102325 -6.880736,4.652985 -11.181424,4.652985 -4.248743,0 -7.911352,-1.538056 -10.9868121,-4.614126 -3.0759375,-3.075644 -4.6136764,-6.750953 -4.6136764,-11.026941 0,-4.275035 1.5377389,-7.976548 4.6136764,-11.1045567 2.9973351,-3.0241816 6.6599261,-4.5360338 10.9868121,-4.5360338 4.379325,-8.7e-6 8.079791,1.5118435 11.103281,4.5360338 z M 11.648648,10.535422 c -2.5562363,2.581697 -3.8338771,5.605879 -3.8338771,9.074982 0,3.468149 1.2650362,6.466656 3.7945881,8.995468 2.530021,2.529758 5.54192,3.794168 9.036636,3.794168 3.494716,0 6.532294,-1.277005 9.114259,-3.832498 2.451452,-2.373584 3.677651,-5.357952 3.677651,-8.957138 0,-3.571968 -1.246107,-6.603878 -3.736848,-9.09436 -2.490264,-2.4900047 -5.508453,-3.7355059 -9.055062,-3.7355059 -3.546626,8.6e-6 -6.546372,1.2518072 -8.997347,3.7548839 z m 6.726904,7.549104 c -0.390619,-0.851513 -0.975313,-1.277534 -1.755113,-1.277534 -1.378581,0 -2.067607,0.928173 -2.067607,2.783566 0,1.855818 0.689026,2.783037 2.067607,2.783037 0.910322,0 1.560537,-0.451696 1.950679,-1.357048 l 1.910862,1.017428 c -0.910799,1.618108 -2.277227,2.42737 -4.099293,2.42737 -1.405239,0 -2.531,-0.430835 -3.376304,-1.291559 -0.846752,-0.861679 -1.268905,-2.049421 -1.268905,-3.56371 0,-1.487609 0.435729,-2.668576 1.307716,-3.543327 0.871988,-0.874802 1.957932,-1.311995 3.259845,-1.311995 1.925921,0 3.304953,0.758866 4.138607,2.275056 l -2.068094,1.058716 z m 8.99007,0 c -0.391123,-0.851513 -0.964166,-1.277534 -1.71972,-1.277534 -1.406219,0 -2.109837,0.928173 -2.109837,2.783566 0,1.855818 0.703618,2.783037 2.109837,2.783037 0.911805,0 1.550344,-0.451696 1.914783,-1.357048 l 1.953585,1.017428 c -0.909367,1.618108 -2.273869,2.42737 -4.092543,2.42737 -1.403314,0 -2.526638,-0.430835 -3.371455,-1.291559 -0.843343,-0.861679 -1.265965,-2.049421 -1.265965,-3.56371 0,-1.487609 0.428928,-2.668576 1.28635,-3.543327 0.856946,-0.874802 1.947765,-1.311995 3.273456,-1.311995 1.922512,0 3.29961,0.758866 4.130348,2.275056 l -2.108839,1.058716 z"
       id="path5708_1_"
       style="fill:#003a21;fill-opacity:1" />
    <ellipse
       cx="76.267197"
       cy="15.21654"
       id="circle277"
       style="fill:#ffffff;fill-opacity:1"
       rx="10.739345"
       ry="10.73823" />
    <g
       id="g279"
       transform="matrix(0.9937728,0,0,0.9936696,-177.69267,6.25128e-7)">
      <path
         d="m 258.67819,12.18701 c 0,-0.4165 -0.33789,-0.75391 -0.75293,-0.75391 l -4.77344,0 c -0.41504,0 -0.75293,0.3374 -0.75293,0.75391 l 0,4.77295 1.33105,0 0,5.65186 3.61719,0 0,-5.65186 1.33105,0 0,-4.77295 10e-6,0 z"
         id="path281"
         inkscape:connector-curvature="0"
         style="fill:#003a21;fill-opacity:1" />
      <path
         style="fill:#003a21;fill-opacity:1"
         d="m 257.17135,9.1723604 a 1.63281,1.63281 0 0 1 -1.63281,1.6328096 1.63281,1.63281 0 0 1 -1.63281,-1.6328096 1.63281,1.63281 0 0 1 1.63281,-1.63281 1.63281,1.63281 0 0 1 1.63281,1.63281 z"
         id="circle283" />
    </g>
    <path
       d="m 76.240032,3.3856615 c -3.212292,0 -5.931582,1.1207897 -8.156898,3.3623693 -2.28354,2.318728 -3.424829,5.0634422 -3.424829,8.2322242 0,3.168783 1.141289,5.894091 3.424829,8.174483 2.283541,2.279905 5.002832,3.420102 8.156898,3.420102 3.192882,0 5.960699,-1.148931 8.301501,-3.449216 2.205907,-2.183361 3.309342,-4.898484 3.309342,-8.145378 0,-3.246895 -1.122844,-5.9906457 -3.366604,-8.2322252 C 82.238573,4.5064512 79.491139,3.3856615 76.240032,3.3856615 Z m 0.02912,2.0863186 c 2.631948,0 4.866963,0.9281669 6.705055,2.7835369 1.8575,1.835477 2.78625,4.077056 2.78625,6.724738 0,2.666602 -0.909341,4.879554 -2.728025,6.637892 -1.9167,1.894183 -4.170159,2.840792 -6.76328,2.840792 -2.594095,0 -4.82912,-0.936901 -6.705055,-2.811677 -1.877882,-1.874777 -2.815368,-4.09695 -2.815368,-6.666997 0,-2.570533 0.948159,-4.811636 2.844476,-6.7247381 1.818694,-1.8553799 4.043999,-2.7835468 6.675947,-2.7835468 z"
       id="path285"
       style="clip-rule:evenodd;fill-rule:evenodd;fill:#003a21;fill-opacity:1"
       inkscape:connector-curvature="0" />
    <path
       style="opacity:1;fill:#9bdff0;fill-opacity:0;fill-rule:nonzero;stroke:none;stroke-width:0.1;stroke-linecap:square;stroke-linejoin:round;stroke-miterlimit:4;stroke-dasharray:none;stroke-dashoffset:0;stroke-opacity:1"
       d="M 17.962368,32.038363 C 13.770613,31.09768 10.1486,27.887901 8.6232933,23.762205 7.9297804,21.886371 7.751459,18.947191 8.2069507,16.899843 9.4895179,11.134949 14.812459,6.8610115 20.709733,6.8610115 c 5.254994,0 10.205422,3.5020535 11.910999,8.4261315 2.111325,6.095495 -0.349369,12.378076 -6.100371,15.575309 -2.283594,1.269548 -5.916414,1.768716 -8.557993,1.175911 z m -0.0036,-7.766876 c 0.479476,-0.146956 1.070648,-0.445422 1.313716,-0.663257 0.524318,-0.46989 1.237437,-1.36117 1.237437,-1.546591 0,-0.0722 -0.418881,-0.350577 -0.930847,-0.618626 l -0.930847,-0.487361 -0.642465,0.642466 c -0.497669,0.497669 -0.784021,0.642466 -1.270544,0.642466 -1.538632,0 -2.134094,-0.867736 -2.02863,-2.95622 0.06217,-1.231169 0.106678,-1.358835 0.639768,-1.835151 0.738207,-0.659588 1.724876,-0.701993 2.372325,-0.101958 0.243302,0.225485 0.47687,0.513481 0.519041,0.639993 0.05633,0.168986 0.367957,0.08298 1.174436,-0.324129 0.60377,-0.304782 1.097763,-0.614428 1.097763,-0.688103 0,-0.356707 -1.143241,-1.45319 -1.895163,-1.817651 -1.167178,-0.565737 -3.349059,-0.585435 -4.38041,-0.03955 -0.841002,0.445139 -1.697136,1.31855 -2.130034,2.173018 -0.455609,0.899294 -0.542551,2.892219 -0.180506,4.137612 0.703799,2.420981 3.347903,3.666605 6.03496,2.843038 z m 8.826726,0.07478 c 0.95127,-0.256199 1.953366,-0.962945 2.407704,-1.698075 0.362586,-0.586678 0.363824,-0.610891 0.04342,-0.849167 -0.181392,-0.134898 -0.614306,-0.375011 -0.962031,-0.533585 l -0.632224,-0.288315 -0.631729,0.631728 c -0.487381,0.487381 -0.77524,0.631728 -1.259806,0.631728 -1.433305,0 -2.058927,-0.805726 -2.058927,-2.65165 0,-1.822127 0.628142,-2.651651 2.007916,-2.651651 0.563362,0 1.157825,0.393598 1.489448,0.986175 0.14081,0.251616 0.284989,0.220994 1.247737,-0.264999 0.598692,-0.302219 1.088529,-0.609768 1.088529,-0.683443 0,-0.355167 -1.151986,-1.465042 -1.900135,-1.830674 -1.155704,-0.564811 -3.332849,-0.576638 -4.387496,-0.02383 -1.731075,0.90736 -2.678608,2.777153 -2.504775,4.942743 0.110996,1.38278 0.813716,2.890282 1.641683,3.521803 1.123239,0.856737 2.910632,1.165212 4.410685,0.761215 z"
       id="path4187"
       inkscape:connector-curvature="0" />
  </g>
</svg>
