<?xml version="1.0" encoding="UTF-8" standalone="no"?>
<!-- Created with Inkscape (http://www.inkscape.org/) -->

<svg
   xmlns:dc="http://purl.org/dc/elements/1.1/"
   xmlns:cc="http://creativecommons.org/ns#"
   xmlns:rdf="http://www.w3.org/1999/02/22-rdf-syntax-ns#"
   xmlns:svg="http://www.w3.org/2000/svg"
   xmlns="http://www.w3.org/2000/svg"
   xmlns:sodipodi="http://sodipodi.sourceforge.net/DTD/sodipodi-0.dtd"
   xmlns:inkscape="http://www.inkscape.org/namespaces/inkscape"
   id="svg2"
   version="1.1"
   inkscape:version="0.91 r13725"
   width="1749.0323"
   height="991.7514"
   viewBox="0 0 1749.0323 991.7514"
   sodipodi:docname="frigate.svg">
  <metadata
     id="metadata8">
    <rdf:RDF>
      <cc:Work
         rdf:about="">
        <dc:format>image/svg+xml</dc:format>
        <dc:type
           rdf:resource="http://purl.org/dc/dcmitype/StillImage" />
        <dc:title></dc:title>
      </cc:Work>
    </rdf:RDF>
  </metadata>
  <defs
     id="defs6" />
  <sodipodi:namedview
     pagecolor="#ffffff"
     bordercolor="#666666"
     borderopacity="1"
     objecttolerance="10"
     gridtolerance="10"
     guidetolerance="10"
     inkscape:pageopacity="0"
     inkscape:pageshadow="2"
     inkscape:window-width="1570"
     inkscape:window-height="871"
     id="namedview4"
     showgrid="false"
     inkscape:zoom="0.30627825"
     inkscape:cx="843.97992"
     inkscape:cy="185.6146"
     inkscape:window-x="0"
     inkscape:window-y="0"
     inkscape:window-maximized="1"
     inkscape:current-layer="svg2"
     fit-margin-top="0"
     fit-margin-left="0"
     fit-margin-right="0"
     fit-margin-bottom="0" />
  <g
     id="g99091"
     transform="translate(-0.4718012,-0.63665394)">
    <path
       style="fill:#003b22;fill-opacity:1"
       d="m 1757.043,215.35938 c -17.9779,0.0648 -40.6251,0.37372 -67.5469,0.92773 -77.4219,1.59322 -180.2425,7.64086 -262.5,15.43945 -29.2859,2.77651 -81.8654,5.76173 -164.375,9.33399 -27.1399,1.17502 -40.8608,2.76247 -69.1973,8.00195 -5.4024,0.99892 -10.4649,2.33335 -11.25,2.9668 -0.7851,0.63344 -5.0839,1.56193 -9.5527,2.0625 -4.4688,0.50057 -9.5313,1.61084 -11.25,2.46875 -3.3185,1.65643 -13.056,3.25411 -39.375,6.45507 -8.9375,1.087 -19.9062,2.48112 -24.375,3.09961 -4.4688,0.6185 -11.5,1.39707 -15.625,1.73047 -14.3861,1.16276 -24.7849,3.81144 -45.625,11.61719 -23.452,8.78405 -32.4464,18.43496 -34.9121,37.45899 -0.778,6.00206 -1.70111,12.5996 -2.0508,14.6621 -0.34969,2.0625 -0.86881,7.23495 -1.15429,11.49414 -0.50103,7.47535 -4.56356,26.60007 -10.57032,49.75586 -5.17056,19.9323 -18.56556,58.72568 -25.0332,72.5 -3.22811,6.875 -7.93059,15.17765 -10.44922,18.44922 -2.51864,3.27158 -4.58008,6.2945 -4.58008,6.7168 0,1.34217 -31.74358,31.98432 -42.56054,41.08398 -5.72073,4.8125 -13.30543,11.28125 -16.85547,14.375 -11.37937,9.91678 -39.19941,30.28302 -48.08399,35.20118 -3.09375,1.71259 -10.96875,5.51389 -17.5,8.44726 -6.53125,2.93338 -16.09375,7.35034 -21.25,9.81446 -10.32626,4.93483 -11.97806,5.10177 -37.69531,3.81054 -8.01455,-0.40242 -15.30726,-1.18534 -16.20508,-1.74023 -0.89781,-0.55487 -4.18384,-1.48804 -7.30273,-2.07227 -3.1189,-0.58424 -8.76563,-1.65468 -12.54688,-2.3789 -16.45566,-3.15179 -36.13491,-0.31151 -45.45117,6.56054 -2.70379,1.99442 -5.45012,2.64919 -11.25,2.67969 -9.6133,0.0506 -34.37728,-6.05154 -52.73828,-12.99609 -16.75064,-6.33547 -25.19838,-7.42792 -28.57812,-3.69336 -2.24894,2.48505 -2.25519,2.83682 -0.16797,9.47265 2.51065,7.982 3.75376,9.15009 6.80078,6.39258 3.91706,-3.54489 2.48629,-4.16446 39.21679,16.99609 21.20943,11.64425 38.81451,21.33786 46.70118,39.66016 4.09949,9.45263 3.59902,10.18998 -8.90821,13.17969 -10.30861,2.46416 -45.53429,7.5936 -64.83984,9.44141 -7.4746,0.71542 -14.64129,1.86334 -15.92578,2.55078 -1.28449,0.68744 -7.82354,1.5314 -14.5332,1.875 -6.70966,0.3436 -19.23243,1.14293 -27.82618,1.77734 -34.34561,2.53549 -56.07964,3.87573 -93.125,5.73828 -37.53418,1.88711 -98.91477,4.37985 -118.17578,4.80078 -8.28681,0.18109 -10.60737,0.80618 -19.1875,5.15821 -10.50882,5.33031 -29.40522,20.7797 -39.4375,32.24414 -3.29865,3.76955 -8.67479,11.82603 -11.94726,17.90429 -5.45712,10.13602 -14.08171,23.60614 -27.79297,43.40821 -2.91042,4.2033 -6.79371,9.89257 -8.63086,12.64257 -4.49293,6.72537 -10.9575,14.79593 -18.61524,23.24024 -7.1177,7.84879 -16.2632,25.18697 -41.80273,79.25976 -8.76739,18.5625 -20.82247,43.03125 -26.78906,54.375 -5.9666,11.34375 -13.98583,27.09375 -17.82031,35.00002 -17.35624,35.7864 -20.42579,42.2732 -20.42579,43.1582 0,0.5194 -1.20494,3.536 -2.67773,6.7051 -6.755108,14.5352 -10.146165,22.9828 -19.761719,49.207 -16.161795,44.0776 -27.425285,91.0836 -23.958985,99.9922 2.483674,6.3831 6.912066,3.8583 17.53711,-10 3.273873,-4.2701 4.848331,-5.3124 8.029296,-5.3164 5.111447,-0.01 10.446124,-3.3278 22.052738,-13.7344 6.6644,-5.9754 10.74725,-8.6754 14.01172,-9.2637 7.45918,-1.3442 19.48472,-10.3216 33.51757,-25.0215 7.21875,-7.5618 17.0625,-17.429 21.875,-21.9257 4.8125,-4.4968 14.1038,-13.5196 20.64649,-20.0508 6.5427,-6.5313 14.13645,-13.5352 16.875,-15.5645 2.73856,-2.0293 17.28419,-15.9745 32.32226,-30.9902 l 27.3418,-27.3008 5.29297,0.793 c 4.06965,0.6103 6.50724,0.1751 10.54101,-1.8828 7.16816,-3.6569 20.90245,-17.5801 27.8125,-28.19534 6.06735,-9.32068 26.99604,-31.85938 29.58399,-31.85938 3.84751,0 14.7265,-7.01057 21.41016,-13.79882 5.99185,-6.0856 8.08265,-7.45118 11.42187,-7.45118 2.24825,0 6.51414,-1.17238 9.47852,-2.60742 5.49237,-2.65881 6.09935,-3.3002 14.67968,-15.44726 4.75179,-6.72701 5.08877,-6.94532 10.71485,-6.94532 12.06821,0 20.60687,-5.14297 26.42578,-15.91992 1.94406,-3.60051 2.50916,-3.81882 11.25,-4.3164 12.26701,-0.69828 20.30134,-4.40165 23.2832,-10.73438 2.09497,-4.44921 2.53964,-4.69582 10.14844,-5.63476 10.81246,-1.33426 26.86844,-7.64253 29.43945,-11.56641 1.39226,-2.12485 3.16358,-3.07813 5.72266,-3.07813 3.31833,0 23.71884,-7.57887 26.85937,-9.97851 0.6875,-0.52531 3.93399,-1.34376 7.21289,-1.81836 5.68593,-0.82297 10.97247,-2.84684 27.78711,-10.63867 4.125,-1.91151 10.3125,-4.63315 13.75,-6.04688 3.4375,-1.41373 10.1875,-4.36406 15,-6.55664 4.8125,-2.19256 12.40625,-5.27643 16.875,-6.85351 4.46875,-1.57706 13.46875,-4.95374 20,-7.50391 6.53125,-2.55017 16.65625,-6.30065 22.5,-8.33398 5.84375,-2.03334 11.75,-4.68789 13.125,-5.89844 2.59876,-2.28794 14.51513,-6.22309 30.625,-10.11524 5.15625,-1.24575 11.625,-3.13821 14.375,-4.20507 2.75,-1.06687 6.21912,-1.966 7.70899,-1.9961 1.48989,-0.0302 5.31875,-1.17207 8.50781,-2.53906 4.39392,-1.88346 9.94423,-2.67826 22.91602,-3.28125 15.22748,-0.70785 17.94542,-0.5148 24.61718,1.74805 7.43528,2.52182 22.87686,8.62298 32.5,12.84179 20.46479,8.97183 41.64725,15.432 57.5,17.53711 6.1875,0.82165 13.21875,2.31219 15.625,3.31055 2.40625,0.99837 9.71875,3.76718 16.25,6.1543 6.53125,2.38713 18.625,8.42806 26.875,13.42382 8.25,4.99577 16.6875,9.8804 18.75,10.85547 6.04411,2.85745 32.29093,20.72069 35.5625,24.20313 1.64988,1.75621 3.50708,3.1914 4.12691,3.1914 0.6199,0 4.3179,2.44279 8.2188,5.42774 8.9504,6.84881 36.5253,25.81417 41.2793,28.39062 1.9713,1.06835 5.7739,3.644 8.4492,5.72266 2.6754,2.07867 8.4359,5.9849 12.8008,8.68164 4.3649,2.69674 10.2712,6.60176 13.125,8.67774 2.8538,2.07596 9.6875,6.53541 15.1875,9.91015 5.5,3.37475 13.8301,8.60641 18.5098,11.62695 4.6797,3.02053 10.3047,6.10228 12.5,6.84766 2.1953,0.74537 5.9589,2.84488 8.3652,4.66602 2.4062,1.82113 8.5937,5.74098 13.75,8.71093 5.1562,2.96995 12.1875,7.2125 15.625,9.42579 27.214,17.52206 35.0643,22.31292 44.3437,27.06252 5.8265,2.9822 14.6014,8.8093 19.5,12.9492 16.5412,13.9794 33.6238,29.6449 39.6368,36.3516 6.4139,7.1536 18.9421,15.5488 23.2031,15.5488 3.0735,0 10.9893,-6.6002 12.0957,-10.086 2.2239,-7.0069 -8.6732,-20.0236 -46.6328,-55.707 -6.6804,-6.2798 -18.7795,-17.95168 -26.8867,-25.93748 -8.1071,-7.9858 -15.3007,-14.51954 -15.9864,-14.51954 -0.6857,0 -5.3025,-3.69992 -10.2597,-8.22265 -4.9571,-4.52275 -11.2637,-10.14274 -14.0137,-12.48828 -2.75,-2.34554 -8.375,-7.27112 -12.5,-10.94727 -4.125,-3.67615 -12.8438,-11.01866 -19.375,-16.3164 -6.5313,-5.29775 -15.5313,-12.64953 -20,-16.33594 -4.4688,-3.68641 -14.0313,-11.50387 -21.25,-17.37305 -7.2188,-5.86918 -16.9632,-13.9135 -21.6563,-17.87695 -4.693,-3.96347 -10.1166,-8.1703 -12.0527,-9.34766 -6.6018,-4.01483 -28.8659,-22.50537 -40.5605,-33.68555 -6.4183,-6.1359 -12.5766,-11.15625 -13.6836,-11.15625 -1.1409,0 -2.8519,-2.00965 -3.9512,-4.64062 -1.0667,-2.55296 -2.694,-5.50609 -3.6152,-6.5625 -2.7679,-3.17384 -3.0986,-10.02594 -1.0762,-22.32227 1.5556,-9.45815 1.6241,-12.28187 0.3613,-15 -0.8556,-1.84168 -1.7036,-5.88086 -1.8847,-8.97461 -0.1812,-3.09375 -1.6049,-10.62367 -3.1641,-16.73437 -2.7191,-10.65664 -2.7511,-11.34575 -0.7695,-16.875 1.3861,-3.86786 2.0645,-9.75995 2.0605,-17.90625 -0.01,-13.93006 2.6767,-22.76874 8.8731,-29.21289 2.0382,-2.11975 4.2926,-5.97899 5.0097,-8.57617 0.7171,-2.59716 3.282,-6.69993 5.6992,-9.11719 2.4173,-2.41725 6.3444,-7.44207 8.7266,-11.16602 2.3822,-3.72396 6.8171,-9.13742 9.8555,-12.02929 16.6392,-15.83702 19.0378,-18.44301 26.9492,-29.29492 3.2495,-4.4572 7.5054,-9.11811 9.457,-10.35743 1.9515,-1.23933 14.7969,-13.82937 28.5469,-27.97656 61.4085,-63.18241 74.4267,-75.45508 87.0312,-82.05469 2.0236,-1.05956 4.7251,-3.59081 6.0039,-5.625 3.4171,-5.43553 9.6998,-11.82422 11.629,-11.82422 1.9715,0 12.5249,-10.60824 14.6113,-14.6875 0.9359,-1.82989 2.5766,-2.8125 4.6973,-2.8125 2.232,0 5.1745,-1.91279 9.332,-6.07031 4.9409,-4.94093 6.0703,-6.88359 6.0703,-10.43164 0,-6.29449 3.4609,-8.93695 11.8867,-9.07422 3.7402,-0.0609 7.291,-0.65762 7.8887,-1.32812 0.5977,-0.67048 2.3898,-4.59571 3.9844,-8.72071 3.7322,-9.65487 4.7913,-10.94569 8.2636,-10.07421 1.5585,0.39117 4.1325,0.18608 5.7188,-0.45704 1.5862,-0.64314 4.4683,-1.50998 6.4043,-1.92578 2.4495,-0.52612 4.0443,-2.01569 5.248,-4.89648 1.4737,-3.52714 2.8027,-4.45159 8.9805,-6.24805 13.8234,-4.01973 19.7745,-5.53997 24.75,-6.32226 13.3046,-2.09186 29.0842,-6.13974 32.0195,-8.21485 6.6312,-4.68792 21.6168,-9.95065 28.3985,-9.97265 6.5703,-0.0213 23.4986,-4.77395 27.9941,-7.85938 2.2487,-1.5434 5.5441,-4.27994 7.3223,-6.08203 3.072,-3.11303 12.31,-6.06497 19.0156,-6.07617 4.95,-0.008 22.0385,-7.16048 26.5293,-11.10352 2.4154,-2.12072 5.9286,-4.20343 7.8066,-4.6289 10.8658,-2.46165 18.3252,-4.61115 27.7891,-8.00586 10.8092,-3.87729 22.7463,-7.74692 46.2305,-14.99024 7.2074,-2.22298 15.9262,-5.42173 19.375,-7.10742 9.4258,-4.60694 22.239,-9.20589 34.0566,-12.22461 4.2829,-1.09402 11.8766,-3.6104 16.875,-5.58984 4.9984,-1.97945 12.4629,-4.29859 16.5879,-5.1543 9.19,-1.90642 38.1633,-9.5027 45,-11.79883 8.7568,-2.94091 25.8754,-10.48299 27.9746,-12.32422 3.6657,-3.21502 12.3117,-6.98222 22.2481,-9.69531 10.7143,-2.92557 17.1379,-5.84175 24.7773,-11.24414 3.1167,-2.2041 9.6752,-4.71227 17.4101,-6.66016 6.8249,-1.71866 13.2172,-3.93399 14.2071,-4.92382 1.5663,-1.56627 1.4164,-2.01461 -1.1582,-3.45313 -2.2045,-1.23166 -19.199,-1.79947 -49.1621,-1.6914 z M 615.39453,605.54297 c 1.70389,-0.14952 8.02741,1.73914 19.14649,5.33398 10.28795,3.32615 22.92382,6.98231 28.08007,8.125 5.15625,1.1427 11.10354,2.61291 13.21485,3.26758 2.11131,0.65466 6.64059,1.18945 10.06445,1.18945 5.16525,0 7.55736,0.8667 14.05664,5.08985 9.12818,5.93136 12.21289,10.29995 22.87891,32.41015 7.10052,14.71919 7.50665,16.05348 7.00586,23.00196 -0.44139,6.12427 -1.11087,7.87441 -3.94532,10.3125 -6.3666,5.47632 -11.29493,2.89419 -18.72265,-9.80664 -14.13998,-18.52976 -30.64936,-35.24939 -45.19727,-48.94532 l -0.01,0.01 c -1.33158,-1.11548 -3.80298,-2.77627 -6.87696,-4.5625 -5.13867,-2.98602 -15.8125,-9.30694 -23.71875,-14.04687 -12.72069,-7.62627 -18.16728,-11.18667 -15.97656,-11.37891 z"
       transform="translate(-58.872032,-214.70976)"
       id="path99093"
       inkscape:connector-curvature="0"
       sodipodi:nodetypes="sssssssssssscsssssssssssssssssssssccssssssssssssssssssssscsssssssccssssssssssssssssssssssssscssssssssssssscssssscsssscscsssssssssscssscsscsccsscssscssssssssscsscccssssscccssscsssscsssccscsssssssscccsssc" />
    <path
       style="opacity:1;fill:#ff0000;fill-opacity:1;fill-rule:nonzero;stroke:none;stroke-width:0.1;stroke-linecap:square;stroke-linejoin:round;stroke-miterlimit:4;stroke-dasharray:none;stroke-dashoffset:0;stroke-opacity:1"
       d="m 717.97694,696.51897 c -0.58038,-0.21585 -1.45275,-0.66768 -1.9386,-1.00407 -2.10228,-1.45559 -5.23293,-5.26468 -7.8336,-9.53123 -2.26072,-3.70885 -10.84965,-14.13748 -19.15933,-23.26316 -7.39557,-8.1218 -18.21832,-19.067 -26.02267,-26.31708 -2.1978,-2.04171 -4.35447,-3.44502 -14.2902,-9.2984 -24.93575,-14.69026 -33.67036,-20.20076 -33.67036,-21.242 0,-0.0979 0.34435,-0.17743 0.76523,-0.17665 1.56471,0.003 6.30284,1.32845 17.49839,4.89528 12.5316,3.99249 22.9465,7.01372 29.18098,8.46503 1.79575,0.41802 5.92803,1.42914 9.18283,2.24692 7.38672,1.85593 7.72475,1.91205 13.57017,2.25267 2.9631,0.17266 5.26332,0.40721 6.01986,0.61383 3.57866,0.97736 10.97612,5.60888 14.91997,9.34133 4.77893,4.52276 8.59173,10.91767 17.13069,28.73191 6.277,13.09528 6.87878,15.09235 6.42626,21.32619 -0.44589,6.14258 -1.05749,7.8833 -3.60604,10.26336 -2.83688,2.64934 -5.73172,3.6042 -8.17358,2.69607 z"
       id="path99167"
       inkscape:connector-curvature="0"
       transform="translate(-58.872032,-214.70976)" />
  </g>
</svg>
