<?xml version="1.0" encoding="UTF-8" standalone="no"?>
<!-- Created with Inkscape (http://www.inkscape.org/) -->

<svg
   xmlns:dc="http://purl.org/dc/elements/1.1/"
   xmlns:cc="http://creativecommons.org/ns#"
   xmlns:rdf="http://www.w3.org/1999/02/22-rdf-syntax-ns#"
   xmlns:svg="http://www.w3.org/2000/svg"
   xmlns="http://www.w3.org/2000/svg"
   xmlns:xlink="http://www.w3.org/1999/xlink"
   xmlns:sodipodi="http://sodipodi.sourceforge.net/DTD/sodipodi-0.dtd"
   xmlns:inkscape="http://www.inkscape.org/namespaces/inkscape"
   id="svg2"
   version="1.1"
   inkscape:version="0.91 r13725"
   width="405.49643"
   height="473.18619"
   viewBox="0 0 405.49642 473.18617"
   sodipodi:docname="littlehelper.svg">
  <metadata
     id="metadata8">
    <rdf:RDF>
      <cc:Work
         rdf:about="">
        <dc:format>image/svg+xml</dc:format>
        <dc:type
           rdf:resource="http://purl.org/dc/dcmitype/StillImage" />
        <dc:title></dc:title>
      </cc:Work>
    </rdf:RDF>
  </metadata>
  <defs
     id="defs6">
    <linearGradient
       inkscape:collect="always"
       id="linearGradient4524">
      <stop
         id="stop4528"
         offset="0"
         style="stop-color:#ffffff;stop-opacity:1" />
      <stop
         style="stop-color:#ffffff;stop-opacity:1"
         offset="0.5"
         id="stop4534" />
      <stop
         id="stop4526"
         offset="1"
         style="stop-color:#ffcc00;stop-opacity:1" />
    </linearGradient>
    <linearGradient
       id="linearGradient4282"
       inkscape:collect="always">
      <stop
         id="stop4286"
         offset="0"
         style="stop-color:#ffcc00;stop-opacity:1;" />
      <stop
         id="stop4284"
         offset="1"
         style="stop-color:#ffcc00;stop-opacity:0;" />
    </linearGradient>
    <radialGradient
       gradientTransform="matrix(2.2326547,0,0,2.2326547,-186.62037,-326.68658)"
       inkscape:collect="always"
       xlink:href="#linearGradient4282"
       id="radialGradient4254-3"
       cx="217.94492"
       cy="204.82785"
       fx="217.94492"
       fy="204.82785"
       r="90.860382"
       gradientUnits="userSpaceOnUse" />
    <radialGradient
       inkscape:collect="always"
       xlink:href="#linearGradient4524"
       id="radialGradient4530"
       cx="217.94492"
       cy="203.40091"
       fx="217.94492"
       fy="203.40091"
       r="90.810379"
       gradientUnits="userSpaceOnUse"
       gradientTransform="translate(82.030475,-72.777589)" />
  </defs>
  <sodipodi:namedview
     pagecolor="#ffffff"
     bordercolor="#666666"
     borderopacity="1"
     objecttolerance="10"
     gridtolerance="10"
     guidetolerance="10"
     inkscape:pageopacity="0"
     inkscape:pageshadow="2"
     inkscape:window-width="1570"
     inkscape:window-height="871"
     id="namedview4"
     showgrid="false"
     inkscape:zoom="1"
     inkscape:cx="-4.6769382"
     inkscape:cy="132.92913"
     inkscape:window-x="0"
     inkscape:window-y="0"
     inkscape:window-maximized="1"
     inkscape:current-layer="svg2"
     inkscape:snap-bbox="true"
     inkscape:snap-bbox-midpoints="true"
     inkscape:snap-object-midpoints="true"
     inkscape:snap-center="true"
     inkscape:snap-global="false"
     fit-margin-top="0"
     fit-margin-left="0"
     fit-margin-right="0"
     fit-margin-bottom="0" />
  <g
     id="g4867"
     transform="translate(-97.227188,72.124893)">
    <circle
       r="202.74821"
       cy="130.62332"
       cx="299.9754"
       id="path4246-5"
       style="opacity:0.775;fill:url(#radialGradient4254-3);fill-opacity:1;fill-rule:nonzero;stroke:none;stroke-width:0.22326547;stroke-linecap:square;stroke-linejoin:round;stroke-miterlimit:4;stroke-dasharray:none;stroke-dashoffset:0;stroke-opacity:1" />
    <circle
       r="90.810379"
       cy="130.62332"
       cx="299.9754"
       id="path4246"
       style="opacity:0.5;fill:url(#radialGradient4530);fill-opacity:1;fill-rule:evenodd;stroke:none;stroke-width:0.1;stroke-linecap:square;stroke-linejoin:round;stroke-miterlimit:4;stroke-dasharray:none;stroke-dashoffset:0;stroke-opacity:1" />
  </g>
  <path
     style="fill:#000000"
     d="m 210.31077,473.14492 c -0.16445,-0.1638 -5.76184,-0.57997 -12.43864,-0.92481 -6.6768,-0.34485 -12.61626,-0.92157 -13.19881,-1.2816 -1.402,-0.86649 -27.25742,-2.17519 -52.16155,-2.64021 -11,-0.20539 -22.25,-0.7481 -25,-1.206 -2.75,-0.45792 -7.3244,-1.01118 -10.165332,-1.2295 -2.84094,-0.21832 -5.93469,-0.87559 -6.875,-1.4606 -0.94032,-0.585 -2.97529,-0.90013 -4.52217,-0.70027 -1.792279,0.23158 -2.8125,-0.29505 -2.8125,-1.45175 0,-1.41481 2.89474,-2.01245 13.125,-2.70975 l 13.125002,-0.8946 0,-3.94957 c 0,-5.1925 4.8046,-7.39144 16.7867,-7.68279 16.32055,-0.39684 15.84697,-0.28422 15.0217,-3.57236 -0.79841,-3.18116 2.03254,-7.0547 5.15589,-7.0547 2.20706,0 2.20646,-0.0813 -0.0891,-12.07754 -2.70491,-14.13562 -2.44112,-25.07532 0.78023,-32.35771 1.46048,-3.30168 3.16337,-6.60756 3.7842,-7.3464 4.47743,-5.32861 12.24972,-16.60781 12.27705,-17.81656 0.0769,-3.39934 3.66705,-5.26061 7.83913,-4.06408 2.22897,0.63927 4.56249,1.16229 5.1856,1.16229 0.65087,0 0.79954,-4.69683 0.34942,-11.0382 -0.43093,-6.071 -0.24617,-19.95826 0.4106,-30.86056 0.65675,-10.9023 1.06572,-19.92149 0.90882,-20.04263 -0.15689,-0.12112 -3.78105,-0.5225 -8.05367,-0.8919 -7.03944,-0.60862 -8.16757,-0.36057 -12.02178,2.64333 -5.43847,4.23867 -19.58476,23.32497 -19.58476,26.42402 0,0.61768 -1.0935,2.98331 -2.43001,5.25699 -2.01225,3.42325 -2.41278,6.39036 -2.32972,17.25895 0.0551,7.21875 -0.30702,15.51562 -0.80486,18.4375 -0.90225,5.29541 -0.92261,5.3125 -6.33302,5.3125 -5.40234,0 -5.42295,-0.0171 -4.38213,-3.64633 1.31596,-4.58847 2.11923,-20.93085 1.07989,-21.97018 -0.78179,-0.7818 -8.55015,9.88213 -8.55015,11.73712 0,2.34025 -4.06723,8.87939 -5.52282,8.87939 -1.96203,0 -5.72718,-4.01985 -5.72718,-6.11461 0,-2.34549 6.50914,-15.13539 7.70283,-15.13539 0.57594,0 1.04717,-0.75424 1.04717,-1.67608 0,-0.92185 2.14752,-3.87497 4.77227,-6.5625 2.62477,-2.68753 6.54755,-8.38992 8.71732,-12.67197 2.16976,-4.28206 5.28898,-9.90706 6.93158,-12.5 4.75837,-7.51133 19.76665,-22.86523 24.94037,-25.5147 2.60508,-1.33408 5.83466,-4.23103 7.17682,-6.43768 2.36045,-3.88081 2.68013,-3.99842 9.77044,-3.59496 l 7.33014,0.41711 0.79177,-4.79211 c 1.47254,-8.91235 1.0178,-11.0502 -2.97902,-14.00517 -4.0706,-3.00954 -4.01221,-2.42115 -1.71054,-17.23685 0.67391,-4.33793 0.29451,-5.89204 -2.28869,-9.375 -4.86178,-6.55527 -7.20005,-12.23965 -8.74802,-21.26674 -1.94145,-11.32161 0.1145,-26.79443 4.74678,-35.72285 3.90619,-7.52901 14.26517,-17.8105 17.94473,-17.8105 3.3652,0 11.25861,-8.00322 15.10237,-15.3125 1.71732,-3.26563 3.49414,-5.9375 3.94852,-5.9375 0.45436,0 1.52273,3.89802 2.37415,8.66228 1.80748,10.11406 1.36465,9.35486 9.06846,15.54697 7.29011,5.85959 11.08758,11.63211 13.80774,20.98915 6.24892,21.49555 -3.07371,48.85375 -19.84598,58.23999 -1.09777,0.61435 -1.98309,3.81903 -2.33786,8.4627 -0.31405,4.11065 -0.92536,8.3792 -1.35848,9.48567 -0.91767,2.34439 -5.00782,4.60434 -9.27315,5.12374 -2.44198,0.29736 -3.29515,1.5156 -4.63233,6.6145 -3.02445,11.53275 -2.24848,13.125 6.39647,13.125 6.15024,0 10.43598,2.01979 11.26104,5.30712 0.3997,1.59254 2.80604,4.66839 5.34741,6.83521 9.10113,7.75976 12.39773,11.03683 14.6981,14.61103 2.37387,3.6884 8.03123,16.79294 8.04179,18.62771 0.0126,2.20549 5.61435,13.13977 10.17579,19.86284 2.6565,3.9154 4.83,7.96138 4.83,8.99105 0,1.02968 1.05909,3.73241 2.35352,6.00609 1.29444,2.27367 2.71367,5.68981 3.15383,7.59143 0.67676,2.92376 0.3009,3.64735 -2.4349,4.6875 -5.5332,2.10372 -6.51531,1.46673 -8.76471,-5.68468 -1.19622,-3.80309 -2.65482,-7.21129 -3.24134,-7.57377 -0.58653,-0.36249 -1.0664,-1.68856 -1.0664,-2.94682 0,-1.25826 -1.06237,-3.59972 -2.36082,-5.20325 -2.35857,-2.9127 -2.36172,-2.90262 -3.27433,10.48651 -0.94018,13.79373 -1.08811,14.07853 -6.55235,12.61417 -2.64416,-0.7086 -2.81086,-1.39965 -2.78505,-11.54543 0.0205,-8.03707 0.65859,-12.1826 2.5,-16.24071 1.3599,-2.99696 2.4425,-6.37196 2.40578,-7.5 -0.0368,-1.12805 -2.48973,-7.95725 -5.45109,-15.176 -4.77255,-11.63374 -6.07869,-13.66275 -11.49573,-17.85788 -4.63326,-3.58813 -6.86725,-4.55857 -9.2364,-4.01223 -4.70074,1.08398 -5.04934,1.05428 -13.06511,-1.11302 -4.8588,-1.31372 -7.86512,-1.58665 -8.6651,-0.78666 -1.62401,1.62401 -2.61487,48.16496 -1.14474,53.76979 l 1.14754,4.375 8.8023,0.625 c 10.08337,0.71596 12.26135,2.01775 12.68533,7.58207 0.16665,2.18704 1.38354,6.57889 2.70418,9.75968 1.32066,3.18079 3.62369,10.44476 5.11785,16.14215 2.97209,11.3329 2.82995,12.77115 -2.97264,30.08044 l -2.6615,7.93935 3.339,2.4323 c 3.50992,2.5568 3.49859,4.74955 -0.0459,8.87651 -1.0333,1.20312 -1.65093,2.22139 -1.3725,2.26281 0.27844,0.0414 3.31874,0.31579 6.75624,0.6097 17.2193,1.47231 18.93449,2.22274 20.12836,8.80654 0.86397,4.76459 1.4801,5.50244 4.63291,5.5482 2.60799,0.0379 7.11373,2.59667 7.11373,4.03991 0,0.89243 -11.46911,2.15983 -19.375,2.14104 -3.4375,-0.009 -10.05295,0.45775 -14.701,1.03539 -4.64804,0.57765 -8.58553,0.91623 -8.74999,0.75242 z m 5.91663,-4.72684 c -1.3561,-0.94507 -4.99688,-2.12796 -8.09063,-2.62863 -4.55969,-0.73793 -5.33379,-0.60659 -4.08734,0.69347 1.27071,1.32539 5.87845,2.52536 13.42797,3.49703 0.66858,0.086 0.10612,-0.61678 -1.25,-1.56187 z m 22.79821,-1.13481 c 2.53585,-2.53585 0.4151,-2.93267 -3.75265,-0.70216 -1.4847,0.79459 -5.80709,1.88156 -9.60533,2.41551 -6.84014,0.96156 -6.81967,0.96825 2.15262,0.70216 6.62928,-0.1966 9.63421,-0.84436 11.20536,-2.41551 z m -41.63702,-0.69757 c 0.35717,-0.57789 -1.85963,-1.62485 -4.92622,-2.32659 -4.38704,-1.00389 -5.5756,-0.93084 -5.5756,0.34269 0,1.40577 1.81401,2.02334 8.36372,2.84732 0.8188,0.103 1.78095,-0.28552 2.1381,-0.86342 z m -58.62682,-1.44929 c 2.5779,-0.65596 0.0384,-1.00285 -8.125,-1.10981 -7.60489,-0.0996 -13.11109,-0.80039 -15.3125,-1.94877 -1.89062,-0.98623 -3.4375,-1.35907 -3.4375,-0.82852 0,1.81645 5.62405,3.83417 11.875,4.26036 9.82789,0.67005 11.01603,0.64049 15,-0.37326 z m 24.0625,0.46214 c 1.54687,-0.41454 2.8125,-1.483 2.8125,-2.37435 0,-1.19608 -0.90053,-1.3381 -3.4375,-0.54217 -1.89063,0.59317 -5.40625,1.61188 -7.8125,2.26382 l -4.375,1.18533 5,0.1105 c 2.75,0.0607 6.26562,-0.22863 7.8125,-0.64318 z m 71.56249,-1.92779 c 0,-0.65004 0.53427,-0.85169 1.18729,-0.44811 0.653,0.40358 1.77688,-0.36792 2.49751,-1.71443 1.73035,-3.23316 -0.97638,-5.98492 -6.99819,-7.11462 -6.50339,-1.22005 -20.43694,0.35565 -22.9063,2.59038 -2.94241,2.66285 -4.26504,0.7782 -1.59553,-2.2735 2.64238,-3.0207 -0.0964,-1.76611 -4.21251,1.92969 -2.25917,2.02848 -2.75979,2.10293 -3.37417,0.50185 -0.47145,-1.22859 0.7154,-2.768 3.42528,-4.4428 2.28069,-1.40955 4.54238,-2.56281 5.02595,-2.56281 0.48359,0 1.71059,-0.83134 2.72667,-1.84743 1.01608,-1.01607 2.7503,-2.35268 3.85382,-2.97026 1.19482,-0.66865 1.69135,-1.94386 1.22753,-3.15257 -1.06831,-2.78398 -2.93008,-2.54859 -3.71953,0.47026 -0.91104,3.4838 -8.6831,3.45471 -12.1834,-0.0456 -1.40009,-1.40008 -3.08759,-2.21063 -3.75,-1.80123 -1.58835,0.98168 -1.55305,4.34686 0.0456,4.34686 2.57068,0 1.11839,2.50386 -2.5537,4.40278 -4.18245,2.16282 -7.07665,7.71687 -5.06796,9.72556 0.67168,0.67168 4.20821,1.73252 7.85895,2.35742 3.65075,0.6249 8.04396,1.37815 9.76271,1.6739 14.36675,2.4721 28.74999,2.65955 28.74999,0.37469 z m -71.05892,-4.5614 c 1.82384,-0.72531 3.71832,-1.96958 4.20994,-2.76504 1.32203,-2.13909 -1.96732,-7.45791 -4.61224,-7.45791 -2.8218,0 -2.88967,-1.01416 -0.26217,-3.91751 1.11464,-1.23166 1.70892,-3.06722 1.32066,-4.07903 -0.57656,-1.5025 -1.3889,-1.58185 -4.43261,-0.43298 -2.68383,1.01303 -4.94044,1.03415 -8.06406,0.0755 -5.58476,-1.71402 -8.89794,0.007 -5.29918,2.75278 1.33453,1.01819 3.11265,1.85125 3.95139,1.85125 2.08344,0 8.1885,7.4292 7.29419,8.87623 -0.97273,1.57388 -3.04699,0.1613 -3.04699,-2.07501 0,-0.99068 -0.5625,-1.80123 -1.25,-1.80123 -0.6875,0 -1.25,0.84375 -1.25,1.875 0,1.03125 -0.5625,1.875 -1.25,1.875 -0.6875,0 -1.25,-0.84375 -1.25,-1.875 0,-1.03125 -0.5165,-1.875 -1.14776,-1.875 -0.63128,0 -2.03753,-0.34143 -3.125,-0.75874 -1.08749,-0.4173 -1.97724,-0.17396 -1.97724,0.54077 0,0.71472 1.13316,1.65916 2.51815,2.09873 1.38499,0.43958 2.1946,1.32275 1.79914,1.96262 -0.75603,1.22327 -5.22058,-0.66568 -7.44229,-3.14883 -1.61546,-1.80556 -22.76939,-0.65625 -26.25,1.42619 -3.35471,2.00711 -1.29775,5.453 4.49487,7.52993 5.15012,1.84658 40.04302,1.3219 45.0712,-0.67772 z m 20.73352,-0.53545 c 0.67687,-0.85938 1.59615,-3.09314 2.04281,-4.96393 0.44666,-1.87077 1.93047,-3.99993 3.29736,-4.73147 1.60569,-0.85934 2.48524,-2.61658 2.48524,-4.9652 0,-3.74891 3.74156,-7.52315 7.46564,-7.53085 3.20223,-0.006 9.31651,-20.94314 8.39311,-28.73976 -1.15472,-9.74991 -5.9486,-21.17388 -9.24558,-22.03257 -1.51901,-0.39562 -9.8738,-0.80467 -18.56621,-0.90901 l -15.80437,-0.18971 -3.30879,6.25 c -3.0764,5.81102 -3.29311,7.25964 -3.08545,20.625 0.22373,14.39841 2.34833,24.375 5.19086,24.375 2.41752,0 5.49402,5.57637 4.73812,8.58814 -0.40593,1.61732 0.12901,4.02459 1.25,5.625 1.17182,1.67301 1.65955,3.9932 1.21322,5.77149 -0.63269,2.52085 -0.22239,3.05311 2.69405,3.49477 6.91361,1.04701 10.03595,0.86175 11.23999,-0.6669 z m 25.36181,-18.125 c 0.02,-0.51563 1.17026,-4.875 2.55609,-9.6875 6.17935,-21.45865 6.26469,-23.01544 1.95296,-35.625 -1.05789,-3.09375 -2.9111,-8.85938 -4.11829,-12.8125 -1.66794,-5.46195 -2.76575,-7.1875 -4.57277,-7.1875 -1.98015,0 -2.27132,0.67954 -1.74064,4.0625 0.3505,2.23437 2.13815,8 3.97255,12.8125 4.47751,11.74662 4.35951,19.75834 -0.5151,34.97589 -2.10166,6.56095 -3.8212,12.48477 -3.8212,13.16406 0,1.42137 6.23131,1.71632 6.2864,0.29755 z m -52.90274,-2.55964 c 1.16441,-0.74006 1.04104,-3.37411 -0.54062,-11.54336 -3.3733,-17.42289 -2.93333,-25.43413 1.94055,-35.33436 3.30955,-6.72265 3.9305,-9.10789 3.05488,-11.7347 -1.06526,-3.1958 -1.2816,-3.01264 -7.05002,5.9688 l -5.95105,9.26576 0.5565,14.375 c 0.48369,12.4943 1.95277,23.08102 3.94616,28.4375 0.66251,1.78026 1.86709,1.94867 4.0436,0.56536 z m 40.53656,-60.56536 c 0.13398,-3.1973 0.28992,-3.43061 0.73219,-1.09554 0.55131,2.91083 0.60748,2.89211 2.96789,-0.98929 1.32326,-2.17592 3.2069,-3.79231 4.18585,-3.59196 2.48239,0.50806 2.56179,-1.87331 0.11287,-3.38571 -1.55878,-0.96269 -2.58018,-0.53171 -4.44373,1.875 -2.41881,3.12384 -2.41973,3.12395 -2.4475,0.3125 -0.0216,-2.19156 -0.78673,-2.84517 -3.4653,-2.96053 -1.89063,-0.0814 -4,0.007 -4.6875,0.19644 -2.49723,0.68816 -8.90785,0.11863 -16.03602,-1.42466 -8.37362,-1.81295 -9.72232,-0.92849 -9.24262,6.06125 0.33024,4.81181 0.61599,4.98106 2.11469,1.2525 0.66758,-1.66086 1.17901,-2.04475 1.249,-0.9375 0.13031,2.0616 6.28995,7.10864 6.28995,5.15381 0,-0.6671 2.53745,-1.11524 5.63876,-0.99586 3.78127,0.14555 5.45065,0.70734 5.06769,1.7054 -0.51902,1.35265 1.64865,1.9589 9.60605,2.6866 1.6456,0.15049 2.22967,-0.80633 2.35772,-3.86245 z m 41.20412,-3.125 c 0.22597,-8.51809 1.04647,-14.9415 2.34476,-18.35625 1.79226,-4.71403 1.61588,-5.70625 -1.01444,-5.70625 -4.15486,0 -8.47031,23.73436 -4.95467,27.25 2.53775,2.53775 3.4948,1.69605 3.62435,-3.1875 z m 21.12464,1.25 c -0.002,-4.20559 -9.67956,-25.445 -12.34424,-27.09186 -2.9198,-1.80453 -2.13606,3.81118 1.85243,13.27315 2.40677,5.70966 4.89644,11.64683 5.5326,13.19371 1.36565,3.32077 4.96067,3.77385 4.95921,0.625 z m -129.96804,-3.51887 c 1.45957,-3.83899 1.64725,-26.79363 0.21906,-26.79363 -2.68144,0 -4.00243,3.66732 -4.02983,11.1875 -0.0164,4.50312 -0.51331,10.26871 -1.10423,12.81242 -0.59094,2.5437 -0.76503,4.93433 -0.38685,5.3125 1.64432,1.64433 4.17638,0.4414 5.30185,-2.5188 z m -18.23159,-9.46908 c 1.13895,-2.84649 4.07512,-7.62145 6.52484,-10.611 3.07246,-3.74953 4.18432,-6.11843 3.58455,-7.63705 -0.74794,-1.89378 -1.43289,-1.55579 -4.9003,2.41801 -4.96814,5.6937 -11.27803,17.9035 -10.17482,19.68853 1.49973,2.42662 2.88009,1.35406 4.96573,-3.85849 z m 74.75307,3.20636 c 0.3955,-0.3955 0.23913,-2.39265 -0.3475,-4.43809 -2.04754,-7.13936 -2.84083,-35.08769 -1.21783,-42.90561 1.39719,-6.73026 1.33225,-7.54505 -0.72111,-9.04651 -4.32903,-3.16545 -4.89098,-0.066 -4.89098,26.97665 0,20.19237 0.38284,26.45484 1.71555,28.06279 1.7286,2.0856 4.13254,2.68011 5.46188,1.35077 z m 54.61617,-30.68656 c -6.37699,-18.60128 -9.15736,-22.83754 -21.84374,-33.28185 -6.95618,-5.72682 -10.57485,-6.73949 -10.57485,-2.95932 0,1.51366 2.82511,4.19381 7.91887,7.51253 4.35538,2.83764 9.07777,6.41934 10.49421,7.95931 2.59419,2.82048 8.19977,15.84588 9.81215,22.79998 1.09227,4.71089 2.91736,7.08891 4.62882,6.03118 0.83652,-0.51699 1.01225,-0.0125 0.4793,1.37657 -1.06286,2.76978 0.23535,5.14854 1.90088,3.48301 0.76941,-0.76941 -0.24399,-5.42007 -2.81564,-12.92141 z m -113.66859,7.10442 c 0,-1.99078 -2.26795,-3.84748 -3.36259,-2.75285 -1.0283,1.0283 0.5769,4.55408 2.07336,4.55408 0.70908,0 1.28923,-0.81055 1.28923,-1.80123 z m 6.35254,-9.13448 c 3.68872,-11.17692 16.96941,-28.38104 26.96393,-34.92969 3.13755,-2.05581 4.02248,-6.6346 1.28224,-6.6346 -3.42086,0 -24.68965,22.35241 -29.09026,30.57239 -0.75161,1.40393 -2.57974,4.6791 -4.0625,7.27813 -3.06778,5.37725 -3.31654,7.27889 -1.22569,9.36974 2.03037,2.03036 4.28049,-0.045 6.13228,-5.65597 z m 72.39746,-31.39571 c 0,-1.96979 1.125,-5.01164 2.5,-6.75967 3.07175,-3.90509 3.14081,-4.90357 0.3125,-4.5173 -1.20313,0.16433 -4.4375,-0.35969 -7.1875,-1.16445 -2.75,-0.80477 -7.72378,-1.46636 -11.05284,-1.47019 -4.15203,-0.005 -7.05091,-0.79206 -9.23107,-2.50697 -2.04415,-1.60794 -5.07098,-2.5 -8.48262,-2.5 -5.14778,0 -5.34202,0.14831 -6.57958,5.0239 -1.14254,4.50125 -1.00804,5.16689 1.29282,6.39827 1.41241,0.7559 6.27721,1.60012 10.81066,1.87603 7.86719,0.47882 14.41868,2.72522 19.18779,6.5792 2.62693,2.12285 3.34143,1.57969 4.15889,-3.16154 1.01234,-5.8715 1.8639,-7.96586 3.23893,-7.96586 0.77038,0 0.9082,0.89066 0.33846,2.1875 -1.70659,3.88451 -2.16328,11.5625 -0.68774,11.5625 0.75971,0 1.3813,-1.61164 1.3813,-3.58142 z M 191.11302,285.3771 c 0.34307,-0.55513 1.00097,-3.85266 1.46197,-7.32787 0.80765,-6.08838 0.71962,-6.34121 -2.41708,-6.94082 -1.79039,-0.34226 -3.771,0.002 -4.40134,0.76536 -1.66514,2.0161 -2.83603,9.90478 -1.70879,11.51272 1.66866,2.38023 6.0598,3.61742 7.06524,1.99061 z m 14.83625,-22.91114 c 1.70237,-0.90859 2.1875,-2.79509 2.1875,-8.5065 0,-6.9696 -0.14156,-7.30636 -2.8125,-6.69063 -1.54688,0.35662 -5.0625,1.65455 -7.8125,2.88432 -10.14628,4.53727 -13.81575,6.05339 -16.5625,6.8431 -3.48544,1.00211 -3.69821,3.14016 -0.3125,3.14016 1.375,0 2.5,0.51562 2.5,1.14584 0,3.48475 16.86186,4.3597 22.8125,1.18371 z m -7.8125,-0.32081 c 0,-0.2702 0.84375,-0.81504 1.875,-1.21078 1.03125,-0.39572 1.875,-0.17465 1.875,0.49126 0,0.66593 -0.84375,1.21078 -1.875,1.21078 -1.03125,0 -1.875,-0.22107 -1.875,-0.49126 z m -6.25,-1.5589 c 1.03125,-0.45359 2.15625,-1.23219 2.5,-1.73023 0.34375,-0.49805 2.59375,-1.3063 5,-1.79612 4.24469,-0.86406 4.29359,-0.83104 1.64169,1.10837 -1.50332,1.09943 -4.59706,2.2788 -6.875,2.62081 -2.27793,0.34203 -3.29794,0.25076 -2.26669,-0.20283 z m -6.25,-1.69984 c 0,-0.6875 0.70312,-1.25346 1.5625,-1.2577 0.85937,-0.004 3.25,-0.90862 5.3125,-2.00976 7.06031,-3.76938 14.375,-6.64403 14.375,-5.64934 0,1.04401 -2.35326,2.31197 -10.625,5.7249 -2.75,1.13465 -5.97674,2.59826 -7.17054,3.25245 -2.75487,1.50966 -3.45446,1.4974 -3.45446,-0.0605 z m -0.46004,-7.60195 c 2.31551,-1.43107 4.21004,-3.00558 4.21004,-3.49889 0,-0.85847 -7.24073,-3.89916 -9.28499,-3.89916 -0.54036,0 -0.65684,0.84864 -0.25881,1.88585 0.39801,1.03722 0.19087,3.28722 -0.46033,5 -1.4855,3.90716 0.0774,4.04532 5.79409,0.5122 z m 9.83504,-2.39805 c 0.4249,-0.6875 0.21004,-1.25 -0.47746,-1.25 -0.6875,0 -1.59764,0.5625 -2.02254,1.25 -0.4249,0.6875 -0.21004,1.25 0.47746,1.25 0.6875,0 1.59764,-0.5625 2.02254,-1.25 z m 13.125,-5.17285 c 0,-0.49978 1.26562,-1.30035 2.8125,-1.77908 2.60975,-0.80763 9.0361,-6.78397 13.43749,-12.49651 1.03125,-1.33845 3.28125,-5.48033 5,-9.20419 2.73559,-5.92692 3.11421,-8.41876 3.03843,-19.9965 -0.0806,-12.31931 -0.35974,-13.76018 -4.07174,-21.02103 -2.80958,-5.49564 -5.82615,-9.16958 -10.22593,-12.45432 -3.43242,-2.56253 -6.24075,-5.19792 -6.24075,-5.85641 0,-0.6585 -0.8177,-2.10081 -1.81711,-3.20515 -0.99943,-1.10435 -1.95814,-4.10176 -2.13049,-6.66092 -0.17235,-2.55918 -0.47259,-4.65304 -0.6672,-4.65304 -0.19461,0 -1.69275,2.10937 -3.3292,4.6875 -4.16684,6.5646 -9.07723,11.17131 -12.9415,12.14119 -7.40545,1.85865 -16.01881,12.14888 -20.3156,24.27071 -5.01705,14.15377 -2.01072,38.36735 5.72397,46.10204 0.91929,0.9193 2.42807,2.75167 3.35283,4.07197 3.03843,4.33796 11.99881,7.47954 20.5618,7.20913 4.29688,-0.13569 7.8125,-0.65561 7.8125,-1.15539 z m -8.75,-30.82715 c 0,-0.55 0.53024,-1.53438 1.17831,-2.1875 2.29768,-2.31559 5.72963,-19.3125 3.89951,-19.3125 -3.30448,0 -5.57248,2.25735 -8.33421,8.2951 -1.68679,3.68769 -3.35959,6.7049 -3.71732,6.7049 -0.35774,0 -0.26859,-3.375 0.1981,-7.5 0.70412,-6.22365 0.52801,-7.5 -1.03488,-7.5 -2.79196,0 -4.10416,2.32405 -5.82264,10.3125 -1.97425,9.17749 -4.373,9.55759 -3.62808,0.5749 0.60989,-7.35445 4.96167,-14.6374 8.74628,-14.6374 1.24572,0 2.27354,0.42187 2.28407,0.9375 0.071,3.47622 2.18617,3.94324 6.92263,1.52846 4.69708,-2.39471 5.01098,-2.4091 6.60389,-0.30259 3.51147,4.64365 -0.89006,24.08663 -5.45276,24.08663 -1.0136,0 -1.8429,-0.45 -1.8429,-1 z m -121.250002,248.5 c 0,-0.6875 0.5625,-1.25 1.25,-1.25 0.6875,0 1.25,0.5625 1.25,1.25 0,0.6875 -0.5625,1.25 -1.25,1.25 -0.6875,0 -1.25,-0.5625 -1.25,-1.25 z M 286.86168,339.4812 c -2.41546,-2.91047 -0.69193,-3.45894 1.89314,-0.60245 1.24818,1.37921 1.6886,2.50766 0.97873,2.50766 -0.70988,0 -2.00221,-0.85734 -2.87187,-1.90521 z m -8.998,-11.35689 c -2.94356,-3.85666 -7.9289,-10.61001 -11.07853,-15.00746 -3.14965,-4.39745 -6.85835,-9.25763 -8.24157,-10.8004 -4.79813,-5.35159 -12.90682,-17.59689 -12.90682,-19.49117 0,-1.04728 2.47019,1.77904 5.4893,6.28072 3.01911,4.50167 6.37901,9.24699 7.46645,10.54513 1.08744,1.29816 6.33792,8.26653 11.66775,15.48528 5.32982,7.21875 10.68868,14.21544 11.90855,15.5482 2.10985,2.3051 2.897,4.4518 1.63237,4.4518 -0.32206,0 -2.99393,-3.15545 -5.9375,-7.0121 z m -18.8315,-7.33846 c -3.92998,-5.76202 -7.14542,-11.07783 -7.14542,-11.81292 0,-0.73508 -0.5625,-1.33652 -1.25,-1.33652 -0.6875,0 -1.25,-0.57368 -1.25,-1.27484 0,-0.70116 -1.37011,-3.44524 -3.04469,-6.09795 -4.00386,-6.34251 -7.11269,-13.87721 -5.72576,-13.87721 0.60609,0 1.47404,1.17223 1.92876,2.60495 0.45473,1.43272 3.65932,7.4796 7.1213,13.4375 8.93509,15.37682 9.91793,16.97137 13.96858,22.66239 1.99276,2.79974 3.38007,5.33356 3.08292,5.63071 -0.29715,0.29715 -3.7557,-4.1741 -7.68569,-9.93611 z m -11.66164,-4.59578 c -8.49748,-16.13584 -13.77436,-27.44006 -13.02531,-27.903 0.71637,-0.44274 4.8111,6.56671 5.08343,8.70191 0.0411,0.32278 2.60031,5.455 5.687,11.40494 3.08669,5.94995 5.3519,11.07835 5.0338,11.39645 -0.3181,0.3181 -1.56861,-1.30204 -2.77892,-3.6003 z m 30.63501,-3.36945 c -4.69051,-5.58667 -16.27349,-18.8984 -21.43129,-24.6299 -2.57812,-2.86489 -4.66879,-5.98974 -4.64591,-6.9441 0.0253,-1.05139 1.05074,-0.5037 2.60232,1.38979 1.4084,1.71875 3.94408,4.8125 5.63484,6.875 1.69075,2.0625 4.21851,5.15625 5.61724,6.875 1.39872,1.71875 4.0622,4.8125 5.91884,6.875 4.52362,5.02522 10.6269,13.125 9.88982,13.125 -0.32564,0 -1.93928,-1.6046 -3.58586,-3.56579 z M 105.632,314.35196 c -0.006,-1.29509 12.85763,-13.02935 13.53761,-12.34939 0.49894,0.49895 -7.68031,8.98886 -11.34534,11.77626 -1.20312,0.91503 -2.18965,1.17294 -2.19227,0.57313 z m 129.0666,-6.68074 c -1.80523,-2.89061 -6.56028,-15.10025 -6.56121,-16.84731 -0.001,-2.37861 2.21413,1.24021 3.7879,6.1875 0.8748,2.75 2.40188,6.2476 3.39352,7.77245 0.99164,1.52484 1.60763,3.35851 1.36885,4.07484 -0.23876,0.71631 -1.13385,0.18195 -1.98906,-1.18748 z m -114.06183,-7.53481 c 0,-0.6875 0.5957,-1.25 1.32377,-1.25 0.72808,0 0.97613,0.5625 0.55123,1.25 -0.4249,0.6875 -1.0206,1.25 -1.32378,1.25 -0.30317,0 -0.55122,-0.5625 -0.55122,-1.25 z m 16.25,-3.8003 c 3.09375,-2.75826 8.05077,-7.30891 11.01561,-10.11257 2.96484,-2.80367 5.70599,-4.78221 6.09144,-4.39674 1.22397,1.22397 -18.90379,19.5763 -21.43249,19.54196 -0.71476,-0.01 1.23169,-2.2744 4.32544,-5.03265 z m 135.62499,-2.06926 c -3.4375,-3.76378 -8.37214,-9.12633 -10.96587,-11.91679 -2.59373,-2.79046 -4.40207,-5.38738 -4.01853,-5.77091 0.78041,-0.78042 2.88758,1.37532 14.24692,14.57527 9.24949,10.74823 9.78834,13.02237 0.73748,3.11243 z m -47.5,2.11956 c -0.4693,-1.47862 -0.57201,-2.96965 -0.22826,-3.3134 0.34375,-0.34375 1.00896,0.58477 1.47826,2.0634 0.4693,1.47862 0.57201,2.96965 0.22826,3.3134 -0.34375,0.34375 -1.00896,-0.58477 -1.47826,-2.0634 z m -89.99999,-9.20439 c 6.1875,-5.83749 11.45152,-10.04998 11.69784,-9.36111 0.43556,1.2182 -3.94845,6.0655 -5.48579,6.0655 -0.42211,0 -3.58608,2.67187 -7.03104,5.9375 -3.44496,3.26562 -7.20123,6.3952 -8.34729,6.95461 -1.14604,0.55941 2.97878,-3.75901 9.16628,-9.5965 z m 18.125,1.74836 c 0,-0.66331 1.125,-1.8081 2.5,-2.54397 2.75326,-1.4735 3.35949,-0.1095 1,2.25 -1.80729,1.80729 -3.5,1.94946 -3.5,0.29397 z m -30.4215,-4.75927 c 12.37747,-9.88784 16.78363,-12.95566 18.01704,-12.54452 0.78767,0.26256 -1.02097,2.14247 -4.0192,4.17758 -2.99824,2.03511 -5.73259,3.98304 -6.07634,4.32873 -0.34375,0.34567 -2.43035,1.89413 -4.63689,3.44101 -4.69472,3.2912 -7.23512,3.75309 -3.28461,0.5972 z m 152.92149,1.21199 c 0,-0.55183 -2.34067,-3.3674 -5.20151,-6.25683 -2.86083,-2.88944 -4.9702,-5.48383 -4.6875,-5.76535 0.5977,-0.59517 5.18917,3.39063 10.43537,9.05881 2.87293,3.10401 3.21274,3.96668 1.5625,3.96668 -1.15987,0 -2.10886,-0.45149 -2.10886,-1.00331 z m 62.8125,-3.62885 c -1.54688,-0.29795 -2.8125,-1.02719 -2.8125,-1.62054 0,-0.59336 -1.26563,-1.45527 -2.8125,-1.91536 -3.14629,-0.93581 -15.84616,-6.93524 -17.80024,-8.40884 -4.62144,-3.48511 -18.84616,-12.35176 -23.72453,-14.78814 -5.63303,-2.81326 -8.1873,-4.88496 -6.02287,-4.88496 0.8857,0 6.42155,3.19441 23.98898,13.84261 7.86307,4.76606 21.27344,11.75869 28.81048,15.02278 7.50417,3.24983 7.62613,4.14942 0.37318,2.75245 z m -63.40821,-8.46489 c -2.7339,-2.33925 -4.64572,-4.5782 -4.24848,-4.97544 0.39724,-0.39723 3.19656,1.51475 6.22073,4.24885 6.69627,6.05404 4.98902,6.68299 -1.97225,0.72659 z m 22.22666,-4.1754 c -7.00924,-4.5939 -13.75924,-8.9897 -15,-9.76845 -1.24078,-0.77874 -1.94024,-1.7507 -1.55438,-2.1599 0.38587,-0.40921 4.32337,1.72305 8.75,4.73835 4.42664,3.0153 11.70468,7.77233 16.17343,10.57116 4.46875,2.79884 7.28125,5.06238 6.25,5.0301 -1.03125,-0.0322 -7.60983,-3.81735 -14.61905,-8.41126 z m -7.93498,4.40574 c -11.62616,-7.24049 -13.76226,-8.73366 -13.24051,-9.25541 0.73599,-0.73599 6.18413,2.34215 13.74353,7.76492 6.73582,4.83198 6.41047,5.79603 -0.50302,1.49049 z m -166.32085,-0.10775 c 2.26418,-2.72817 11.34976,-8.71726 12.0945,-7.97253 0.37088,0.37088 -1.18619,1.9828 -3.46014,3.58205 -2.27396,1.59924 -4.87777,3.62937 -5.78626,4.51137 -2.2851,2.21848 -4.70439,2.11581 -2.8481,-0.12089 z m -77.375112,-4.4375 c 0,-1.41839 7.155343,-4.66351 9.0625,-4.11009 0.515625,0.14962 0.9375,-0.24576 0.9375,-0.87863 0,-0.63287 1.828125,-1.52506 4.0625,-1.98263 2.234375,-0.45758 8.450912,-2.18977 13.814527,-3.84932 5.363615,-1.65956 10.988615,-2.95517 12.500003,-2.87915 1.51138,0.076 -0.0645,0.82958 -3.50203,1.67457 -8.395977,2.06385 -33.358094,10.7363 -35.3125,12.26842 -1.058366,0.82969 -1.5625,0.75123 -1.5625,-0.24317 z m 38.565093,-4.4781 c 2.992047,-1.71047 6.085797,-3.1116 6.874997,-3.11364 0.7892,-0.002 7.62241,-3.08844 15.184912,-6.85869 7.5625,-3.77024 14.45312,-6.86232 15.3125,-6.8713 2.86864,-0.03 1.60665,2.20159 -1.71677,3.03571 -1.80359,0.45268 -7.85047,2.97469 -13.4375,5.60448 -21.964371,10.33855 -33.227348,14.49709 -22.218139,8.20344 z m 17.684909,0.92465 c 2.40625,-1.18778 4.5625,-2.58147 4.79167,-3.09709 0.22916,-0.51563 1.07291,-0.93795 1.875,-0.93849 0.80208,-5.4e-4 5.02445,-1.68803 9.38307,-3.75 4.3586,-2.06196 8.57735,-3.7174 9.375,-3.67876 2.11258,0.10237 -22.19468,11.99921 -26.31471,12.8794 -3.078572,0.6577 -2.974782,0.49266 0.88997,-1.41506 z m 21.25,-1.98738 c 3.78125,-2.30585 7.40331,-3.89205 8.04902,-3.52488 0.6457,0.36716 -0.19805,1.25615 -1.875,1.97553 -1.67696,0.71938 -3.33027,1.66119 -3.67402,2.09293 -1.056,1.32625 -5.99211,3.65951 -7.73033,3.65403 -0.90457,-0.002 1.44908,-1.89176 5.23033,-4.19761 z M 302.1566,251.8322 c -7.75785,-3.86492 -13.82484,-7.30745 -13.4822,-7.65009 0.59288,-0.59289 7.96612,2.30195 11.96236,4.6966 1.03125,0.61795 4.6875,2.61916 8.125,4.44713 5.76557,3.06597 9.41925,5.57971 8.0625,5.54702 -0.30938,-0.007 -6.90982,-3.17575 -14.66766,-7.04066 z M 96.836768,250.14877 c 4.441252,-2.11557 9.363122,-4.1698 10.937502,-4.56494 1.57437,-0.39515 2.8625,-1.15436 2.8625,-1.68714 0,-0.53278 0.98438,-1.25174 2.1875,-1.59768 1.20312,-0.34592 3.17187,-1.03421 4.375,-1.52952 4.36741,-1.79798 2.03199,1.2987 -2.51434,3.33392 -2.57023,1.15059 -7.78508,3.49976 -11.58855,5.22039 -10.203922,4.61606 -15.753802,5.34751 -6.259612,0.82497 z m 205.674992,-5.9834 c -6.1875,-3.12832 -10.55785,-5.92032 -9.7119,-6.20445 1.42547,-0.47875 19.47449,8.52925 22.1494,11.05445 2.33294,2.20236 -1.25926,0.80159 -12.4375,-4.85 z m -225.937492,2.64319 c 0.859375,-0.34676 2.265625,-0.34676 3.125,0 0.859375,0.34676 0.15625,0.63049 -1.5625,0.63049 -1.71875,0 -2.421875,-0.28373 -1.5625,-0.63049 z m 12.8125,-3.69574 c 9.01308,-3.83653 24.112962,-9.22641 25.848092,-9.22641 3.44142,0 0.32372,1.92889 -5.84809,3.61815 -3.09375,0.84678 -7.40822,2.35292 -9.587712,3.34701 -2.17948,0.99408 -5.83573,2.08911 -8.125,2.4334 -2.28926,0.34429 -3.31854,0.26681 -2.28729,-0.17215 z m 218.749992,-5.11247 c -1.03125,-0.37878 -3.84375,-1.56927 -6.25,-2.64553 -2.40625,-1.07626 -5.49433,-2.29284 -6.8624,-2.70351 -1.36806,-0.41066 -1.93056,-1.08135 -1.25,-1.4904 0.68057,-0.40905 5.1749,1.13849 9.9874,3.43898 7.64451,3.65424 9.95484,5.44995 4.375,3.40046 z M 95.060028,232.79648 c 1.15368,-1.15368 14.846812,-5.12581 17.451742,-5.06243 2.15485,0.0524 2.06857,0.2536 -0.625,1.45711 -3.49354,1.56096 -17.860702,4.63929 -16.826742,3.60533 z m 205.264232,-6.66343 c -2.57813,-0.68474 -4.6875,-1.75161 -4.6875,-2.37081 0,-1.60244 1.1132,-1.43427 8.79799,1.32907 7.20437,2.5906 4.39851,3.3017 -4.11049,1.04174 z M 98.761768,224.08651 c 0.6875,-0.68444 4.062502,-1.58061 7.500002,-1.99149 7.12421,-0.85155 4.34712,0.87829 -3.75,2.33586 -3.319692,0.59759 -4.579922,0.48187 -3.750002,-0.34437 z m 212.746192,-3.49556 c -0.4375,-0.4375 -3.76563,-1.56053 -7.39583,-2.49561 l -6.60037,-1.70015 6.73185,0.68613 c 3.70252,0.37736 8.48377,1.45452 10.625,2.39364 3.83325,1.68124 3.84346,1.70909 0.66399,1.80949 -1.77605,0.0561 -3.58713,-0.256 -4.02464,-0.6935 z m -210.76702,-3.41372 c 1.47323,-1.29882 9.89583,-2.02012 9.89583,-0.84746 0,0.71865 -2.34375,1.30664 -5.20833,1.30664 -2.86459,0 -4.97396,-0.20663 -4.6875,-0.45918 z m -8.854172,-7.04967 c 2.29988,-1.49715 18.750002,-1.35061 18.750002,0.16702 0,0.6005 -4.64062,1.08322 -10.3125,1.07269 -7.161752,-0.0132 -9.739642,-0.39206 -8.437502,-1.23971 z m 208.187492,0.11175 c 0.697,-0.67329 6.35066,-0.74839 13.6875,-0.18181 l 12.5,0.96527 -13.6875,0.18182 c -8.33146,0.11062 -13.22283,-0.26705 -12.5,-0.96528 z m -209.437492,-7.6029 c -18.775629,-0.89313 -17.415405,-1.43823 3.125,-1.25234 8.250002,0.0746 15.534372,0.66824 16.187502,1.31905 0.7483,0.74565 0.28599,1.08958 -1.25,0.92991 -1.34063,-0.13934 -9.468752,-0.58783 -18.062502,-0.99662 z m 213.124992,-0.071 c -5.18539,-0.48121 -1.21201,-0.86698 12.87489,-1.25 11.20617,-0.3047 21.33117,-0.19033 22.5,0.25417 2.82533,1.07445 -25.83388,1.88124 -35.37489,0.99583 z m 41.04687,-2.66831 c 2.517,-0.91682 3.95067,-0.88815 4.9375,0.0986 1.02084,1.02084 0.0776,1.36439 -3.54687,1.29194 -4.88268,-0.0976 -4.89811,-0.113 -1.39063,-1.39063 z m -241.98436,-3.17949 c -3.265622,-0.2575 -5.937502,-1.07346 -5.937502,-1.81324 0,-0.85871 1.69495,-1.06491 4.687502,-0.57027 2.57813,0.42613 5.67188,0.78098 6.875,0.78855 1.20313,0.007 2.1875,0.57626 2.1875,1.26376 0,0.6875 -0.42187,1.14861 -0.9375,1.02469 -0.51562,-0.12388 -3.60937,-0.43599 -6.875,-0.69349 z m -15.937502,-2.25001 -5.625,-1.67338 6.77179,0.23359 c 4.12597,0.14232 6.97491,0.84409 7.29167,1.7961 0.63209,1.89976 -1.10069,1.82659 -8.43846,-0.35631 z m 209.999992,-0.4354 c 0,-0.76769 0.98437,-1.40788 2.1875,-1.42265 1.20312,-0.0147 15.125,-0.78031 30.9375,-1.7012 34.17681,-1.99038 34.375,-1.99554 34.375,-0.89652 0,0.47353 -13.92188,1.52289 -30.9375,2.33194 -17.01563,0.80904 -32.20313,1.83397 -33.75,2.2776 -1.71909,0.49303 -2.8125,0.26398 -2.8125,-0.58917 z M 61.319012,191.176 c -5.468517,-0.62339 -10.202891,-1.39357 -10.520834,-1.71152 -2.33719,-2.33718 6.715197,-1.67503 23.58859,1.72542 5.235699,1.05513 5.32221,1.13311 1.25,1.12656 -2.40625,-0.004 -8.84924,-0.51709 -14.317756,-1.14046 z m 35.279146,-2.86062 c -6.00248,-0.80548 -11.346232,-1.91453 -11.874999,-2.46455 -0.528765,-0.55001 1.288609,-0.67781 4.038609,-0.28398 2.75,0.39382 8.51664,1.07592 12.814742,1.5158 4.29811,0.43986 8.12818,1.3069 8.51127,1.92676 0.78278,1.26655 1.33057,1.29472 -13.489622,-0.69403 z m 201.538602,-1.92897 c 4.48851,-1.43748 6.51341,-1.43748 5.625,0 -0.4249,0.6875 -2.56748,1.19392 -4.76128,1.1254 -3.80921,-0.11899 -3.84808,-0.16964 -0.86372,-1.1254 z m -218.749992,-1.25 c 0,-0.6875 0.5625,-1.25 1.25,-1.25 0.6875,0 1.25,0.5625 1.25,1.25 0,0.6875 -0.5625,1.25 -1.25,1.25 -0.6875,0 -1.25,-0.5625 -1.25,-1.25 z m 226.249992,0.20242 c 0,-0.73652 2.10937,-1.69341 4.6875,-2.12642 2.57812,-0.433 8.625,-1.62613 13.4375,-2.65138 4.8125,-1.02525 11.84375,-2.09713 15.625,-2.38197 l 6.875,-0.51788 -7.5,1.79168 c -4.125,0.98541 -12,2.63784 -17.5,3.67205 -5.5,1.0342 -11.26563,2.25674 -12.8125,2.71672 -1.68694,0.50165 -2.8125,0.30043 -2.8125,-0.5028 z m -203.3444,-3.59972 c -2.18318,-0.27346 -4.710012,-1.38959 -5.615202,-2.48026 -1.4522,-1.74979 -1.27936,-1.86535 1.46941,-0.98246 1.71336,0.55032 4.240202,1.14363 5.615202,1.31846 1.375,0.17482 3.90625,0.89503 5.625,1.60047 l 3.125,1.28263 -3.125,-0.12088 c -1.71875,-0.0665 -4.91124,-0.34456 -7.09441,-0.61802 z m 192.39567,-1.88154 c 0.29438,-0.8831 5.22209,-2.18545 11.66668,-3.0834 6.13638,-0.85501 15.09455,-2.39635 19.90705,-3.42521 10.75686,-2.29971 15.65668,-2.31495 8.3779,-0.026 -2.95465,0.92912 -6.18903,1.37582 -7.1875,0.99267 -0.99847,-0.38321 -1.8154,-0.15558 -1.8154,0.50578 0,0.66136 -5.20313,1.8851 -11.5625,2.71941 -6.35938,0.83431 -12.53924,2.04089 -13.73304,2.68126 -3.07392,1.64893 -6.25594,1.44375 -5.65319,-0.36451 z m -187.80126,-4.28675 c -2.40625,-1.08226 -3.71001,-2.2194 -2.89724,-2.527 1.44268,-0.54597 9.14724,2.82289 9.14724,3.99969 0,0.98435 -1.65319,0.59481 -6.25,-1.47269 z m 184.37499,-2.93441 c 0.4249,-0.6875 2.56747,-1.27469 4.76127,-1.30486 2.19381,-0.0301 6.23873,-0.86547 8.98873,-1.85619 6.0604,-2.18334 11.91119,-2.48875 6.875,-0.35888 -3.26674,1.38155 -16.93396,4.65014 -19.76128,4.72602 -0.89995,0.0242 -1.28862,-0.51859 -0.86372,-1.20609 z m -186.09287,-6.42973 c -4.03858,-2.0219 -7.056582,-3.96247 -6.706672,-4.3124 0.83996,-0.83996 15.924552,6.06924 15.924552,7.29393 0,1.42186 -1.19369,1.03576 -9.21788,-2.98153 z m 184.21787,0.0615 c 0,-1.23984 3.16286,-2.66991 9.0625,-4.09759 3.71989,-0.90017 4.84951,0.99199 1.25,2.09381 -1.20313,0.36828 -4.01563,1.23837 -6.25,1.93353 -2.53151,0.78761 -4.0625,0.81409 -4.0625,0.0702 z m 29.24847,-0.53686 c 1.99292,-1.0393 3.94538,-1.56775 4.3388,-1.17433 1.03828,1.03827 -2.54219,3.03919 -5.46227,3.05255 -1.99788,0.009 -1.77223,-0.3681 1.12347,-1.87822 z m -206.20144,-4.46957 c -2.01961,-1.36526 -5.64077,-3.36477 -8.04702,-4.44336 -2.40625,-1.07859 -3.67292,-2.22605 -2.81483,-2.54992 0.85809,-0.32388 3.4038,0.55056 5.65713,1.9432 2.25333,1.39262 5.67126,3.34881 7.59542,4.34707 1.92416,0.99826 2.99961,2.12334 2.38989,2.50016 -0.60971,0.37683 -2.76097,-0.43189 -4.78059,-1.79715 z m 173.20297,-0.83027 c 0,-1.31674 12.37571,-7.08605 13.27379,-6.18798 0.39863,0.39864 -2.12494,2.16887 -5.60794,3.93384 -6.84478,3.4685 -7.66585,3.70994 -7.66585,2.25414 z m -170.20833,-3.7326 c -0.3346,-0.75285 -9.12412,-7.04309 -16.498302,-11.80704 -0.74028,-0.47823 -1.00632,-1.20916 -0.59121,-1.62427 0.79049,-0.79049 6.246342,2.62291 14.367742,8.98901 2.64281,2.07163 5.64886,4.08515 6.68011,4.47451 1.28115,0.48371 1.01722,0.73918 -0.83334,0.8066 -1.48957,0.0542 -2.89582,-0.32319 -3.125,-0.83881 z m 166.4717,-2.5 c 0.0168,-1.17936 22.45315,-12.01264 23.24302,-11.22277 0.49672,0.49672 -21.32293,12.16027 -22.7489,12.16027 -0.27911,0 -0.50148,-0.42188 -0.49412,-0.9375 z m -166.26336,-7.31372 c -3.78125,-3.00805 -8.74544,-7.02271 -11.03154,-8.92148 -2.2861,-1.89875 -4.676722,-3.63977 -5.312502,-3.86893 -0.63578,-0.22918 -1.15596,-0.91464 -1.15596,-1.52328 0,-2.45921 6.644422,2.13223 15.921972,11.00244 1.61792,1.54687 3.39142,2.8125 3.94112,2.8125 1.26972,0 5.71167,4.85436 5.02508,5.49164 -0.28225,0.26196 -3.60692,-1.98483 -7.38817,-4.99289 z m 2.05146,-6.49194 c -4.71543,-3.87262 -7.95483,-7.24735 -7.19865,-7.49941 0.75618,-0.25206 2.14091,0.29004 3.0772,1.20465 0.93629,0.91462 4.575,3.91295 8.08604,6.66295 5.89216,4.61501 7.86444,7.02377 5.54645,6.77396 -0.51563,-0.0556 -4.79559,-3.26954 -9.51104,-7.14215 z m 162.32353,5.99319 c 0.4249,-0.6875 1.5831,-1.25 2.57377,-1.25 0.99068,0 1.80123,-0.5625 1.80123,-1.25 0,-0.6875 0.70312,-1.25111 1.5625,-1.25248 0.85937,-0.001 6.34375,-3.40663 12.1875,-7.56728 11.6901,-8.32314 17.5282,-11.76129 17.44709,-10.27484 -0.0291,0.53327 -2.13848,2.35222 -4.6875,4.04211 -2.54903,1.68988 -9.92791,6.61175 -16.39753,10.9375 -10.75871,7.19355 -16.45101,9.79273 -14.48706,6.61499 z m -4.375,-4.8164 c 0,-0.66766 4.35937,-4.17411 9.6875,-7.79211 5.32812,-3.61799 15.13774,-10.97991 21.79915,-16.35983 12.08481,-9.75999 13.51335,-10.68635 13.51335,-8.76292 0,1.02605 -21.85492,18.98126 -23.10382,18.98126 -0.36869,0 -4.74303,2.99169 -9.72077,6.6482 -11.15955,8.19753 -12.17541,8.80539 -12.17541,7.2854 z m -148.7717,-4.2461 c -3.1039,-4.21465 -3.39976,-4.59195 -7.50147,-9.56626 -1.36225,-1.65208 -2.47682,-3.5927 -2.47682,-4.3125 0,-0.81167 0.3838,-0.85772 1.01051,-0.12124 14.48094,17.01729 15.23173,18.0625 12.97456,18.0625 -0.55821,0 -2.36126,-1.82813 -4.00678,-4.0625 z m 7.38671,-3.67803 c -1.59924,-2.27396 -3.62936,-4.87777 -4.51136,-5.78626 -0.882,-0.90847 -1.58342,-2.31472 -1.55869,-3.125 0.0248,-0.81026 1.4698,0.21429 3.21127,2.27679 4.81678,5.70472 7.15335,9.38209 6.42447,10.11098 -0.36188,0.36188 -1.96644,-1.20255 -3.56569,-3.47651 z m 135.82249,1.63835 c 0.65313,-0.6062 6.25,-4.66694 12.4375,-9.02388 6.1875,-4.35695 13.65212,-10.13072 16.58806,-12.8306 2.93594,-2.69988 5.69812,-4.54883 6.13818,-4.10877 1.29825,1.29826 -3.28316,5.59313 -14.60124,13.68802 -5.84375,4.17955 -12.21504,8.89928 -14.15841,10.4883 -3.28103,2.68275 -9.12663,4.31385 -6.40409,1.78693 z m -8.1875,-2.2 c 0,-1.3184 6.54532,-7.06917 12.52784,-11.00704 3.07843,-2.02632 7.08234,-5.02557 8.89755,-6.665 1.96357,-1.77343 3.61876,-2.46562 4.08642,-1.70892 0.43233,0.69952 -3.81274,4.54252 -9.43347,8.54 -5.62075,3.99748 -11.25652,8.25251 -12.52394,9.45564 -2.41264,2.29025 -3.5544,2.73525 -3.5544,1.38532 z m -120.8878,-2.94782 c -0.35958,-1.375 -1.08242,-2.5 -1.60633,-2.5 -1.13617,0 -4.33379,-7.33874 -3.54242,-8.13011 0.30247,-0.30247 2.31786,2.52807 4.47866,6.29009 2.16079,3.76201 3.34261,6.84002 2.62627,6.84002 -0.71633,0 -1.59661,-1.125 -1.95618,-2.5 z m 1.93573,-12.0896 c -3.169,-6.75697 -6.11428,-13.69165 -6.54507,-15.4104 -0.4308,-1.71875 2.33574,3.28852 6.14785,11.12727 3.81211,7.83875 6.7574,14.77343 6.54507,15.4104 -0.21232,0.63698 -2.97886,-4.37029 -6.14785,-11.12727 z m 112.70207,11.48212 c 0,-1.6302 14.34576,-18.23021 14.73791,-17.05378 0.24909,0.74725 -2.54317,4.98892 -6.20501,9.42594 -5.92384,7.17784 -8.5329,9.51017 -8.5329,7.62784 z m -4.79166,-4.25078 c 0.75025,-1.99555 19.14353,-24.9608 20.06493,-25.05242 1.21982,-0.12129 -0.39632,3.98363 -2.17943,5.53568 -0.78985,0.6875 -4.93898,5.60938 -9.22026,10.9375 -7.13478,8.87934 -9.75246,11.47102 -8.66524,8.57924 z m -98.20205,-3.18872 c -0.4206,-1.67584 -3.3303,-8.56646 -6.46598,-15.3125 -3.13568,-6.74603 -6.47015,-13.95302 -7.40994,-16.01552 -1.96607,-4.31484 -3.75021,-10.299249 -2.79497,-9.375 1.41636,1.370414 5.91562,10.17068 5.93092,11.60052 0.009,0.838464 3.10106,7.71198 6.8713,15.27448 3.77025,7.5625 6.85665,14.45313 6.85869,15.3125 0.006,2.7607 -2.19944,1.66549 -2.99003,-1.48448 z m 92.66887,-0.21735 c -0.4304,-0.6964 2.69353,-6.17547 6.94205,-12.1757 4.24854,-6.00024 7.89855,-10.38769 8.11114,-9.749913 0.41029,1.230863 -3.15075,6.853143 -9.34855,14.759833 -2.07162,2.64281 -4.02657,5.62115 -4.34434,6.61854 -0.3433,1.07754 -0.89531,1.29961 -1.3603,0.54724 z m -86.19823,-5.18751 c -6.00484,-13.06363 -8.35601,-18.800998 -9.09457,-22.19281 -0.44675,-2.051693 1.18658,0.4884 3.62964,5.64465 2.44305,5.15625 4.45227,10.07812 4.46496,10.9375 0.0126,0.85937 0.51995,1.5625 1.12726,1.5625 0.60732,0 1.38725,0.98437 1.73319,2.1875 0.34592,1.20312 1.03421,3.17187 1.52953,4.375 1.78308,4.33125 -1.29159,2.05077 -3.39,-2.51434 z m 81.03453,2.42264 c -0.39921,-0.64594 0.53178,-3.06924 2.06885,-5.38512 1.53708,-2.31587 3.62095,-5.81003 4.63081,-7.76479 1.00988,-1.95476 2.0297,-2.97343 2.26627,-2.26372 0.23657,0.70971 -0.39583,2.59031 -1.40533,4.17911 -1.0095,1.58879 -2.9603,5.03077 -4.33511,7.64883 -1.3748,2.61807 -2.82628,4.23163 -3.22549,3.58569 z m -72.34714,-2.32514 c -0.32231,-0.56136 -1.2709,-3.27066 -2.10797,-6.02066 -0.83708,-2.75 -2.27381,-6.6875 -3.19275,-8.75 -1.87083,-4.19895 -3.82343,-11.590005 -2.80694,-10.625 0.56691,0.538206 2.78254,6.035646 8.70647,21.60258 1.21778,3.20007 0.75258,6.14676 -0.59881,3.79308 z m 66.26248,0.0927 c -0.86355,-1.39726 6.3336,-17.3946 7.36276,-16.36544 0.35418,0.35419 -0.74222,3.64955 -2.43645,7.32304 -1.69422,3.67349 -3.32003,7.49512 -3.61291,8.4925 -0.31418,1.06997 -0.85265,1.29541 -1.3134,0.5499 z m -60.78444,-2.05083 c 0.13857,-0.85937 -0.0673,-2.40625 -0.45743,-3.4375 -1.02771,-2.71641 -3.27953,-15.552106 -2.81224,-16.03019 0.44608,-0.456397 4.0218,11.44006 5.18173,17.23975 0.4982,2.49103 0.25723,3.79044 -0.70296,3.79044 -0.80358,0 -1.34766,-0.70312 -1.2091,-1.5625 z m 52.35764,-0.19962 c 0,-1.88402 3.83794,-9.81664 4.45224,-9.20233 1.07407,1.07407 -0.78689,6.97857 -2.69988,8.5662 -0.9638,0.79988 -1.75236,1.08614 -1.75236,0.63613 z m -45.60565,-4.1172 c -1.80157,-6.95185 -2.1066,-10.649443 -0.8126,-9.8497 1.37606,0.85045 3.37357,11.69034 2.34397,12.71995 -0.34401,0.344 -1.03312,-0.94761 -1.53137,-2.87025 z m 5.73122,-2.30821 0.12556,-6.1875 1.15128,4.91067 c 0.75251,3.2098 0.70902,5.35291 -0.12556,6.1875 -0.86912,0.86911 -1.23674,-0.69898 -1.15128,-4.91067 z m 35.55141,0.0625 c 0.92502,-8.08106 1.70113,-10.625 3.24149,-10.625 0.70092,0 0.8841,1.152836 0.41703,2.62444 -0.45813,1.44344 -0.99348,3.83407 -1.18968,5.3125 -0.19618,1.47843 -0.99291,4.09431 -1.77048,5.81306 -1.20259,2.65818 -1.30692,2.19136 -0.69837,-3.125 z m -29.40783,-5.9375 c 0.0132,-7.119834 0.39428,-9.732015 1.23086,-8.4375 1.61178,2.494035 1.61178,18.75 0,18.75 -0.73387,0 -1.2421,-4.25807 -1.23086,-10.3125 z m 7.94056,6.71875 c 0.43466,-2.32031 0.7903,-10.429688 0.7903,-18.020834 0,-7.591145 0.34166,-13.460422 0.75925,-13.042837 1.35783,1.357827 0.45121,32.703021 -0.98426,34.029631 -0.96386,0.89078 -1.12721,0.0337 -0.56529,-2.96596 z m 6.35937,0.78125 c 0.33919,-1.54687 0.90094,-6.46875 1.24836,-10.9375 0.34741,-4.46875 1.19607,-9.8125 1.88593,-11.875 1.00001,-2.989776 1.13864,-1.976144 0.68384,5 -0.84351,12.93841 -2.08489,20.625 -3.33093,20.625 -0.60714,0 -0.82638,-1.26562 -0.4872,-2.8125 z m 7.34024,0.19547 c 0.44173,-1.65439 1.17519,-7.38504 1.62991,-12.734799 0.45472,-5.349756 1.36839,-10.061569 2.03037,-10.470693 0.7358,-0.454752 0.92771,1.139484 0.49376,4.101828 -0.39041,2.665131 -1.06972,8.362334 -1.5096,12.660434 -0.43986,4.29811 -1.39551,8.18295 -2.12366,8.63297 -0.86587,0.53514 -1.04605,-0.22244 -0.52077,-2.18975 z m -67.1849,-24.88297 c -0.5407,-3.09375 -1.6814,-7.3125 -2.53487,-9.375 -0.85348,-2.0625 -2.58188,-7.125 -3.84089,-11.25 -1.25901,-4.125 -3.28116,-9.644966 -4.49366,-12.266593 -1.2125,-2.621624 -1.60248,-4.565905 -0.86663,-4.320621 2.7238,0.907935 14.20538,36.143514 13.22144,40.574989 -0.27626,1.244224 -0.94469,-0.269025 -1.48539,-3.362775 z m 10.72295,1.25 c 0,-1.71875 0.28373,-2.421875 0.63049,-1.5625 0.34676,0.859375 0.34676,2.265625 0,3.125 -0.34676,0.859375 -0.63049,0.15625 -0.63049,-1.5625 z m 59.80263,-3.75 c 0,-0.6875 0.5957,-1.25 1.32377,-1.25 0.72808,0 0.97613,0.5625 0.55123,1.25 -0.4249,0.6875 -1.0206,1.25 -1.32378,1.25 -0.30317,0 -0.55122,-0.5625 -0.55122,-1.25 z m -61.05263,-2.5 c 0,-1.71875 0.28373,-2.421875 0.63049,-1.5625 0.34676,0.859375 0.34676,2.265625 0,3.125 -0.34676,0.859375 -0.63049,0.15625 -0.63049,-1.5625 z m 55.55184,-6.25 c 0.92346,-14.283881 1.95997,-21.25 3.16183,-21.25 1.43667,0 1.36427,2.801557 -0.30686,11.875 -0.75974,4.125 -1.84927,10.03125 -2.42119,13.125 -0.8146,4.406446 -0.90858,3.594076 -0.43378,-3.75 z"
     id="path4138"
     inkscape:connector-curvature="0"
     sodipodi:nodetypes="cssssscssscssssssscsssscsssssssssssssssssssscssssssssssssssssssssscssssssssssssscsssssscssssscsscsscscsccssscsssssscssscsssssscsssccccccssssssssscsssssssssccssssssscsssssssscssssssscssscssscsssssssccsssssssscssssscssscssssscccssssssssccssssscsssccssscccsssssscsssssccssssssscssssssssssssssscscssssssssssscsscscsscsssssscsssssssssscsssssssscsssssssscssssssssssssssssssssssssssssssssssssssssssssssssssssssssssssssscssssscssssssccscscsscssssssssccssscsssssssscssssssssssscsssscssssssssssssssssscssscssssssssssssssscsssscsssssscsscsssssccssssscsssscssssscssssssssssssssssssccsccsssssssssscsssssssssscssscssssscsssssccsccssscscsscsssscsssssssscsssssssssssssssssssscsssscsssscscccssscssscscssscsscsscsscsssccsscsssssscsscssccssscccsscsscssscssssscsssscsssssssssssssssssssscsssssssssssssssssssssssssscsssssssssscssscscccsssssscsscsccccsssssssssssssssscscccsscsssssscsscssscsscsccssssssssssssssscsssssccsssssssssssssssssssssssss" />
  <path
     style="opacity:1;fill:#ffcc00;fill-opacity:1;fill-rule:evenodd;stroke:none;stroke-width:0.1;stroke-linecap:square;stroke-linejoin:round;stroke-miterlimit:4;stroke-dasharray:none;stroke-dashoffset:0;stroke-opacity:1"
     d="m 196.66232,244.68518 c -3.97853,-0.28418 -8.2541,-1.40144 -11.57618,-3.025 -2.45398,-1.1993 -4.00323,-2.43398 -5.47684,-4.36479 -0.67191,-0.88039 -1.91277,-2.37889 -2.75745,-3.33001 -1.7332,-1.95159 -2.64999,-3.24507 -3.55941,-5.02192 -4.55884,-8.90719 -6.288,-24.98374 -3.90701,-36.32476 1.35689,-6.46308 4.67573,-13.58236 9.03905,-19.38976 2.58664,-3.44271 6.34571,-6.94658 9.10573,-8.48757 0.61781,-0.34494 1.93614,-0.9097 2.92961,-1.25503 3.41059,-1.1855 5.16214,-2.35263 8.10761,-5.40242 1.97071,-2.04052 3.38891,-3.84549 5.29867,-6.74371 2.48803,-3.77581 3.28169,-4.81535 3.44863,-4.51704 0.0799,0.14275 0.27272,1.49531 0.42851,3.00569 0.45485,4.40972 1.04729,6.36483 2.48205,8.19105 0.43298,0.55112 0.96318,1.39759 1.1782,1.88103 0.82747,1.8604 0.99498,2.10891 2.12647,3.15459 0.64093,0.59234 2.48972,2.13933 4.10841,3.43776 5.70491,4.57618 8.02886,7.49404 11.36061,14.26391 2.95074,5.99571 3.11077,6.92223 3.21934,18.6395 0.0897,9.67842 -0.0334,12.0476 -0.77926,15.00552 -1.11308,4.41395 -5.14091,12.48616 -8.0676,16.16832 -1.94262,2.44409 -7.50714,8.01363 -9.47882,9.48738 -1.40993,1.05387 -1.99863,1.37618 -4.10248,2.24609 -0.44146,0.18254 -1.09611,0.64148 -1.45479,1.01988 -0.58417,0.6163 -0.801,0.71398 -2.08085,0.93741 -0.78579,0.13718 -2.29831,0.29428 -3.36115,0.3491 -1.06285,0.0548 -2.45417,0.1259 -3.09184,0.15794 -0.63767,0.032 -2.05031,-0.005 -3.13921,-0.0832 z m 5.22343,-30.85157 c 2.14951,-0.8104 4.4139,-5.80982 5.60984,-12.38567 0.56507,-3.10699 0.58227,-8.4141 0.0325,-10.03789 -0.42402,-1.25249 -1.3146,-2.53173 -2.08034,-2.98822 -0.76901,-0.45845 -1.61516,-0.23552 -4.74198,1.24932 -3.90405,1.85392 -5.15998,2.17622 -6.26117,1.60677 -0.63196,-0.3268 -0.98762,-0.96869 -1.15493,-2.08438 -0.1742,-1.16166 -0.56183,-1.45478 -2.03384,-1.53795 -0.98548,-0.0557 -1.35048,0.005 -1.99354,0.33106 -2.83903,1.43981 -5.47641,5.79874 -6.71752,11.10237 -0.41811,1.78669 -0.46974,2.37654 -0.47974,5.48037 -0.0121,3.76132 0.10532,4.35363 0.84199,4.24707 0.93844,-0.13573 1.57789,-1.7742 3.15638,-8.08763 1.8744,-7.49694 2.86975,-9.18034 5.42812,-9.18034 1.18112,0 1.35443,0.34283 1.35012,2.67063 -0.002,1.03277 -0.12427,2.92122 -0.27191,4.19656 -0.37848,3.26937 -0.54569,7.84983 -0.29228,8.00645 0.35032,0.21651 1.26275,-1.2892 3.34589,-5.52144 1.11388,-2.26304 2.41561,-4.71114 2.89272,-5.44024 1.66429,-2.54325 3.76573,-4.02354 5.50624,-3.87868 0.60394,0.0503 0.68398,0.11664 0.79386,0.65818 0.27454,1.35314 -0.39475,6.20287 -1.45762,10.562 -1.02595,4.20774 -1.84821,6.44516 -2.86216,7.78813 -0.85678,1.13479 -1.28503,2.08659 -1.14184,2.53773 0.10376,0.32695 1.16048,0.86854 1.72851,0.88591 0.16529,0.005 0.52649,-0.076 0.80266,-0.18011 z"
     id="path4552"
     inkscape:connector-curvature="0" />
  <path
     style="opacity:1;fill:#784421;fill-opacity:1;fill-rule:evenodd;stroke:none;stroke-width:0.1;stroke-linecap:square;stroke-linejoin:round;stroke-miterlimit:4;stroke-dasharray:none;stroke-dashoffset:0;stroke-opacity:1"
     d="m 155.21156,466.23408 c -0.0729,-0.004 -1.22142,-0.0284 -2.55221,-0.0544 -1.3308,-0.026 -2.43769,-0.0541 -2.45977,-0.0624 -0.025,-0.009 0.43349,-0.14324 1.21534,-0.35484 5.19031,-1.40467 7.3035,-2.00444 10.48101,-2.97476 1.61153,-0.49211 2.12646,-0.60093 2.74447,-0.57998 0.42361,0.0144 0.63915,0.10076 0.80203,0.32148 0.15319,0.20758 0.22246,0.60175 0.15862,0.90257 -0.1621,0.76388 -1.16137,1.60922 -2.41198,2.04045 -1.21525,0.41904 -4.06361,0.72752 -7.01629,0.75988 -0.45575,0.005 -0.8883,0.006 -0.96122,0.002 l 0,0 z"
     id="path4779"
     inkscape:connector-curvature="0" />
  <path
     style="opacity:1;fill:#784421;fill-opacity:1;fill-rule:evenodd;stroke:none;stroke-width:0.1;stroke-linecap:square;stroke-linejoin:round;stroke-miterlimit:4;stroke-dasharray:none;stroke-dashoffset:0;stroke-opacity:1"
     d="m 130.44626,465.89091 c -1.67964,-0.0716 -6.08823,-0.34749 -7.40253,-0.46325 -4.558,-0.40145 -8.73623,-1.62335 -10.45716,-3.05812 -0.34004,-0.28351 -0.61995,-0.69412 -0.66135,-0.9702 -0.0274,-0.1829 -0.0192,-0.21487 0.0748,-0.29133 0.29322,-0.23839 1.62593,0.14081 3.11084,0.88516 1.40678,0.70518 3.12746,1.13 6.0325,1.48938 2.75661,0.34101 5.67727,0.50576 10.23095,0.57714 4.907,0.0769 7.6489,0.25714 8.21189,0.53978 0.28733,0.14425 -0.0313,0.30846 -1.14789,0.59159 -1.65067,0.41854 -2.7944,0.61212 -4.14718,0.70192 -0.74914,0.0497 -2.65392,0.0487 -3.84489,-0.002 l 0,0 z"
     id="path4781"
     inkscape:connector-curvature="0" />
  <path
     style="opacity:1;fill:#784421;fill-opacity:1;fill-rule:evenodd;stroke:none;stroke-width:0.1;stroke-linecap:square;stroke-linejoin:round;stroke-miterlimit:4;stroke-dasharray:none;stroke-dashoffset:0;stroke-opacity:1"
     d="m 194.15216,467.29049 c -4.49264,-0.63602 -6.115,-1.06104 -6.85722,-1.79643 -0.26993,-0.26745 -0.39087,-0.54645 -0.39038,-0.90061 6e-4,-0.43485 0.24151,-0.801 0.59737,-0.90792 0.27425,-0.0824 1.0217,-0.10571 1.52773,-0.0477 1.0652,0.12219 3.21081,0.55975 4.55415,0.92875 2.01829,0.55439 3.53893,1.26157 3.77288,1.75459 0.074,0.15603 0.0736,0.15854 -0.0572,0.34016 -0.17222,0.23916 -0.59318,0.51963 -0.96893,0.64556 -0.4776,0.16007 -0.95726,0.15646 -2.17843,-0.0164 z"
     id="path4783"
     inkscape:connector-curvature="0" />
  <path
     style="opacity:1;fill:#784421;fill-opacity:1;fill-rule:evenodd;stroke:none;stroke-width:0.1;stroke-linecap:square;stroke-linejoin:round;stroke-miterlimit:4;stroke-dasharray:none;stroke-dashoffset:0;stroke-opacity:1"
     d="m 216.73538,469.86543 c -6.78829,-0.95648 -10.67057,-1.92669 -12.26644,-3.06548 -0.33493,-0.239 -0.73653,-0.67443 -0.86302,-0.93572 -0.086,-0.17762 -0.088,-0.20141 -0.0249,-0.29759 0.19987,-0.30504 1.31106,-0.26221 3.98412,0.15358 3.11079,0.48388 6.37814,1.45127 8.14261,2.41087 0.90123,0.49012 2.14366,1.58797 2.02125,1.78603 -0.0369,0.0598 -0.29953,0.0461 -0.99357,-0.0517 z"
     id="path4785"
     inkscape:connector-curvature="0" />
  <path
     style="opacity:1;fill:#784421;fill-opacity:1;fill-rule:evenodd;stroke:none;stroke-width:0.1;stroke-linecap:square;stroke-linejoin:round;stroke-miterlimit:4;stroke-dasharray:none;stroke-dashoffset:0;stroke-opacity:1"
     d="m 220.91911,469.79518 c -0.0425,-0.0687 0.64713,-0.18847 3.251,-0.56447 2.67209,-0.38585 3.27139,-0.48365 4.62822,-0.75531 2.34158,-0.46882 4.58279,-1.07652 5.80617,-1.57432 0.23899,-0.0972 0.75606,-0.34023 1.14905,-0.53997 2.28322,-1.16046 4.04355,-1.53785 4.30085,-0.92203 0.0561,0.13436 0.0556,0.18124 -0.004,0.38673 -0.15735,0.54126 -0.98286,1.49338 -1.74077,2.00776 -1.38219,0.93805 -3.68042,1.4586 -7.52041,1.70338 -2.66628,0.16995 -9.80908,0.35683 -9.87002,0.25823 z"
     id="path4787"
     inkscape:connector-curvature="0" />
  <path
     style="opacity:1;fill:#784421;fill-opacity:1;fill-rule:evenodd;stroke:none;stroke-width:0.1;stroke-linecap:square;stroke-linejoin:round;stroke-miterlimit:4;stroke-dasharray:none;stroke-dashoffset:0;stroke-opacity:1"
     d="m 223.51013,465.19064 c -5.32456,-0.19272 -11.73162,-0.8803 -17.74515,-1.90433 -10.78887,-1.83721 -11.62661,-1.99033 -13.5,-2.46752 -2.36293,-0.60189 -3.85456,-1.18529 -4.30125,-1.68228 -0.39548,-0.44002 -0.49807,-0.74578 -0.52615,-1.5681 -0.0209,-0.61247 -0.002,-0.80654 0.12884,-1.3125 0.66201,-2.56281 2.88032,-5.24752 5.52191,-6.68288 1.44544,-0.78541 2.29325,-1.3966 3.05165,-2.19994 0.79056,-0.83742 1.01752,-1.5197 0.63751,-1.91652 -0.19517,-0.20382 -0.52909,-0.32548 -0.89477,-0.326 -0.6574,-9.5e-4 -1.10261,-0.3329 -1.30363,-0.97199 -0.15808,-0.50257 -0.14617,-1.35561 0.0267,-1.91204 0.22463,-0.72309 0.75752,-1.37749 1.23775,-1.51997 0.0776,-0.023 0.30257,-0.009 0.5,0.0321 0.82547,0.17008 1.79368,0.76233 2.85896,1.74882 1.40149,1.29785 2.82039,2.0362 4.72366,2.45806 1.04706,0.23208 1.89967,0.31233 2.90134,0.27307 1.79835,-0.0705 3.10102,-0.51611 3.97081,-1.3584 0.40237,-0.38964 0.60958,-0.75779 0.80869,-1.43682 0.39062,-1.3321 1.09137,-2.1875 1.79202,-2.1875 0.68332,0 1.44348,0.82788 1.83642,2 0.10978,0.3275 0.1313,0.51022 0.111,0.94256 -0.0445,0.94734 -0.48433,1.57793 -1.55019,2.22243 -1.15895,0.70078 -2.48492,1.73252 -3.68885,2.8703 -1.21433,1.14761 -1.95475,1.63635 -2.80002,1.84827 -0.77661,0.19471 -2.77794,1.21885 -4.66738,2.38843 -1.9783,1.22459 -3.04224,2.17362 -3.54506,3.16217 -0.17824,0.35041 -0.20494,0.46477 -0.20494,0.87764 0,0.42966 0.0237,0.52171 0.25,0.96978 0.28873,0.57178 0.47458,0.7348 0.83205,0.72987 0.4682,-0.006 0.98528,-0.36097 2.67727,-1.83554 2.54265,-2.21592 4.42518,-3.50984 4.86241,-3.34206 0.20778,0.0797 -0.0717,0.52228 -1.19038,1.8849 -0.76267,0.92898 -1.2126,1.86057 -1.2126,2.5107 0,0.52217 0.23304,0.76704 0.73203,0.76916 0.59776,0.003 1.27658,-0.34241 2.20197,-1.11898 0.77384,-0.64938 1.83016,-1.1106 3.59725,-1.57065 3.5018,-0.91167 8.05549,-1.46001 12.78125,-1.53909 3.57119,-0.0598 5.78848,0.13622 8.03125,0.70986 1.2259,0.31356 1.99617,0.58826 2.93946,1.04831 2.58654,1.26146 3.63705,3.05068 2.94878,5.02231 -0.41992,1.20291 -1.40554,2.308 -2.20985,2.47772 -0.14151,0.0299 -0.303,-0.003 -0.57625,-0.1183 -0.68042,-0.28639 -1.07995,-0.16908 -1.16895,0.34322 -0.0693,0.39887 -0.16464,0.55612 -0.45292,0.74707 -1.17414,0.77772 -5.08041,1.12801 -10.42262,0.93465 z"
     id="path4789"
     inkscape:connector-curvature="0" />
  <path
     style="opacity:1;fill:#784421;fill-opacity:1;fill-rule:evenodd;stroke:none;stroke-width:0.1;stroke-linecap:square;stroke-linejoin:round;stroke-miterlimit:4;stroke-dasharray:none;stroke-dashoffset:0;stroke-opacity:1"
     d="m 129.8239,460.82243 c -5.35598,-0.1581 -9.07729,-0.45849 -10.89239,-0.87924 -1.09947,-0.25487 -3.04507,-1.14444 -4.2171,-1.92816 -1.19497,-0.79907 -2.11046,-1.8069 -2.39871,-2.64069 -0.17383,-0.5028 -0.15365,-1.17958 0.0481,-1.61389 0.27007,-0.58136 0.7958,-1.11589 1.49601,-1.52109 0.69311,-0.40108 2.68233,-0.90695 4.93282,-1.25444 4.68795,-0.72385 11.70148,-1.15487 16.01744,-0.98437 2.43658,0.0963 3.65555,0.23676 4.54352,0.52369 0.35154,0.11359 0.48292,0.20552 1,0.69968 1.02762,0.98209 2.05596,1.69469 3.34529,2.31818 2.01396,0.97391 3.45678,1.11541 3.80882,0.37353 0.1522,-0.32074 0.0544,-0.63542 -0.32286,-1.03873 -0.3561,-0.3807 -0.73399,-0.59801 -1.61096,-0.9264 -1.15446,-0.4323 -1.96498,-1.00762 -2.27461,-1.61454 -0.17597,-0.34493 -0.16739,-0.58593 0.0292,-0.81954 0.33204,-0.3946 0.908,-0.4061 1.96419,-0.0392 0.93246,0.3239 1.97601,0.58473 2.64068,0.66002 0.70935,0.0804 0.91839,0.21829 1.18086,0.77919 0.14059,0.30044 0.19502,0.53528 0.24056,1.03803 0.0682,0.75322 0.12226,0.96426 0.34348,1.34176 0.46983,0.80169 1.40993,0.79586 1.88318,-0.0117 0.19918,-0.33986 0.33391,-0.86808 0.33527,-1.31436 0.001,-0.48478 0.21137,-1.08697 0.48539,-1.39256 0.43696,-0.4873 0.95637,-0.5224 1.39485,-0.0942 0.35051,0.34227 0.50114,0.74979 0.56351,1.52456 0.0827,1.02759 0.34989,1.67053 0.9131,2.19734 0.70581,0.66021 1.55268,0.64807 2.08597,-0.0299 0.41707,-0.53022 0.0605,-1.62008 -1.09771,-3.35505 -0.84431,-1.26478 -1.68672,-2.28261 -2.87269,-3.47089 -1.07534,-1.07743 -1.84311,-1.70584 -2.4423,-1.999 -0.1837,-0.0899 -0.58324,-0.20094 -0.91236,-0.25363 -1.31965,-0.21125 -3.20671,-1.21939 -4.40419,-2.35291 -0.78054,-0.73884 -1.06712,-1.41667 -0.80954,-1.91477 0.55945,-1.08185 3.09793,-1.25116 6.12819,-0.40872 2.5409,0.7064 3.09374,0.80243 4.625,0.80342 1.47723,9.5e-4 2.16988,-0.12224 3.72947,-0.66329 2.92685,-1.01538 3.55206,-1.08041 4.17789,-0.43453 0.73846,0.76213 0.75836,2.05722 0.0533,3.47088 -0.31049,0.62257 -0.51829,0.91512 -1.2602,1.77421 -1.32554,1.53489 -1.74308,2.38607 -1.44921,2.95435 0.18173,0.35142 0.72861,0.52107 1.89235,0.58704 1.10737,0.0628 1.74094,0.38147 2.7348,1.37561 0.96756,0.96783 1.62584,2.02585 2.07646,3.33735 0.21306,0.62012 0.22905,0.7182 0.23076,1.41626 0.002,0.69573 -0.0107,0.77562 -0.17204,1.10409 -0.34289,0.69822 -1.5578,1.6193 -3.23237,2.45061 -0.99052,0.49172 -1.45744,0.65728 -2.40625,0.85323 -2.88611,0.59605 -8.24243,1.02159 -16.5625,1.31586 -2.35937,0.0834 -13.30752,0.1235 -15.5625,0.0569 z"
     id="path4791"
     inkscape:connector-curvature="0" />
  <path
     style="opacity:1;fill:#999999;fill-opacity:1;fill-rule:evenodd;stroke:none;stroke-width:0.1;stroke-linecap:square;stroke-linejoin:round;stroke-miterlimit:4;stroke-dasharray:none;stroke-dashoffset:0;stroke-opacity:1"
     d="m 153.56455,438.64709 c -0.54678,-0.22307 -0.96863,-0.97596 -1.48857,-2.65672 -1.66562,-5.38425 -2.89988,-14.45969 -3.4139,-25.10229 -0.18299,-3.7887 -0.63297,-15.8734 -0.60229,-16.17507 0.0231,-0.22705 0.99194,-1.80267 3.64143,-5.92202 5.61121,-8.72415 6.41628,-9.91197 7.35275,-10.84844 0.8545,-0.8545 1.22801,-0.59784 1.83122,1.25831 0.88396,2.72009 0.3529,4.85579 -2.85721,11.49048 -2.4671,5.09906 -3.57056,8.73015 -4.08279,13.43503 -0.15413,1.41574 -0.15463,7.17664 -7.7e-4,8.83884 0.33296,3.59691 0.82676,7.03434 1.66336,11.57887 0.26848,1.45841 0.6233,3.38748 0.7885,4.28683 0.61399,3.34262 0.77984,4.6948 0.78625,6.41018 0.006,1.53199 -0.003,1.60941 -0.21503,2.02113 -0.47324,0.91688 -2.51416,1.74746 -3.40295,1.38487 l 0,0 z"
     id="path4793"
     inkscape:connector-curvature="0" />
  <path
     style="opacity:1;fill:#999999;fill-opacity:1;fill-rule:evenodd;stroke:none;stroke-width:0.1;stroke-linecap:square;stroke-linejoin:round;stroke-miterlimit:4;stroke-dasharray:none;stroke-dashoffset:0;stroke-opacity:1"
     d="m 205.45264,441.25648 c -0.74171,-0.10503 -1.23926,-0.24722 -1.72327,-0.49249 -0.42664,-0.2162 -0.52074,-0.3455 -0.52074,-0.71556 0,-0.64198 1.32952,-5.2232 3.83101,-13.20075 2.2056,-7.03392 3.22478,-11.6036 3.60013,-16.1418 0.15279,-1.84734 0.0598,-5.98955 -0.17256,-7.68512 -0.46261,-3.37601 -1.28108,-6.45252 -2.85538,-10.73292 -2.46492,-6.70195 -3.85413,-11.33506 -4.186,-13.96061 -0.31089,-2.4596 0.0327,-3.11588 1.63647,-3.12621 2.01057,-0.0129 2.92507,1.42715 4.87292,7.67346 1.27623,4.0926 2.01911,6.39553 3.74934,11.62307 2.16176,6.53127 2.59634,8.09042 2.9526,10.59302 0.24622,1.72967 0.30414,3.209 0.18741,4.78655 -0.30676,4.1455 -1.15482,7.80008 -4.68002,20.16797 -1.41086,4.94988 -2.25678,8.07762 -2.61346,9.6631 -0.24607,1.09382 -0.32219,1.19669 -1.05004,1.41913 -0.53991,0.16499 -2.2579,0.23827 -3.02841,0.12916 z"
     id="path4801"
     inkscape:connector-curvature="0" />
  <path
     style="opacity:1;fill:#999999;fill-opacity:1;fill-rule:evenodd;stroke:none;stroke-width:0.1;stroke-linecap:square;stroke-linejoin:round;stroke-miterlimit:4;stroke-dasharray:none;stroke-dashoffset:0;stroke-opacity:1"
     d="m 193.22075,381.01629 c -4.55657,-0.49939 -6.50603,-0.85624 -7.53382,-1.37908 -0.49789,-0.25328 -0.63028,-0.51156 -0.55815,-1.08886 0.0758,-0.6066 -0.0182,-0.78638 -0.55117,-1.05423 -0.98732,-0.49619 -2.61077,-0.7073 -5.45481,-0.70933 -2.33049,-0.002 -3.40899,0.12846 -4.2484,0.51259 -0.36226,0.16577 -0.46401,0.26206 -0.53314,0.5045 -0.0754,0.26438 -0.12462,0.30289 -0.41863,0.32733 -0.25119,0.0209 -0.47895,-0.0519 -0.92528,-0.29567 -2.20108,-1.20218 -4.87852,-4.11389 -4.87883,-5.3057 -8e-5,-0.3385 -0.19269,-0.61607 -0.37813,-0.54491 -0.20343,0.0781 -0.54397,0.70324 -1.17114,2.15006 -0.603,1.39106 -0.94333,1.97978 -1.14447,1.97978 -0.34046,0 -0.68369,-2.78096 -0.69819,-5.65685 -0.012,-2.37487 0.21906,-3.35398 0.96816,-4.10308 0.58112,-0.58112 1.16347,-0.77573 2.4679,-0.82475 1.35348,-0.0509 2.37998,0.089 6.01041,0.81896 4.38484,0.88163 7.38952,1.33885 10.19485,1.55132 1.78848,0.13546 4.71734,0.0613 5.49408,-0.13911 0.7663,-0.19772 4.78903,-0.28962 5.85906,-0.13385 1.33971,0.19502 1.96827,0.62707 2.22175,1.52717 0.0718,0.25501 0.16434,1.09009 0.20561,1.85573 0.0461,0.85553 0.11526,1.43229 0.17937,1.4964 0.20519,0.20519 0.57349,-0.14562 1.92751,-1.836 1.3839,-1.72767 1.73068,-2.09083 2.40476,-2.51832 0.79346,-0.50319 1.56947,-0.39978 2.63962,0.35175 0.95852,0.67315 1.46906,1.41167 1.48163,2.14324 0.0131,0.76372 -0.52434,1.09473 -1.62206,0.99897 -0.62407,-0.0544 -0.72424,-0.0393 -1.18538,0.17882 -0.62346,0.29495 -1.849,1.4337 -2.52614,2.34725 -0.27115,0.36581 -0.87085,1.27474 -1.33268,2.01984 -0.93652,1.51095 -1.35063,2.04383 -1.58828,2.04383 -0.22317,0 -0.38014,-0.43817 -0.66492,-1.85615 -0.1318,-0.65629 -0.29771,-1.33246 -0.36867,-1.50261 -0.11353,-0.27221 -0.13975,-0.29037 -0.21831,-0.15122 -0.0491,0.087 -0.12688,0.68359 -0.17282,1.32582 -0.2356,3.29341 -0.31934,3.80396 -0.72059,4.39356 -0.36241,0.53251 -0.6227,0.66072 -1.37681,0.67817 -0.37347,0.009 -1.17623,-0.0388 -1.78389,-0.10537 z"
     id="path4803"
     inkscape:connector-curvature="0" />
  <path
     style="opacity:1;fill:#999999;fill-opacity:1;fill-rule:evenodd;stroke:none;stroke-width:0.1;stroke-linecap:square;stroke-linejoin:round;stroke-miterlimit:4;stroke-dasharray:none;stroke-dashoffset:0;stroke-opacity:1"
     d="m 125.24979,375.0932 c -0.32226,-0.0867 -0.72199,-0.30567 -0.97795,-0.5358 -0.22831,-0.20528 -0.27637,-0.3337 -0.3297,-0.88111 -0.0624,-0.64063 0.15187,-2.51968 0.44478,-3.90017 0.3889,-1.8329 0.55089,-2.85383 0.74403,-4.68934 0.30796,-2.92654 0.43638,-5.21579 0.51195,-9.1261 0.024,-1.23964 0.0639,-2.52238 0.0887,-2.85052 0.20566,-2.71768 0.60074,-4.62073 1.23056,-5.92742 0.53773,-1.11563 1.25962,-1.77418 2.14964,-1.96105 0.48578,-0.10199 0.58278,-0.0911 0.68636,0.0772 0.32847,0.53344 0.55569,2.33711 0.71403,5.6679 0.0741,1.55907 0.0742,8.24705 4e-5,10.14256 -0.22604,5.78242 -0.58972,9.33657 -1.10098,10.75953 -0.7007,1.95022 -2.1843,3.30108 -3.61402,3.29066 -0.17015,-10e-4 -0.41651,-0.0311 -0.54746,-0.0663 l 1e-5,0 z"
     id="path4831"
     inkscape:connector-curvature="0" />
  <path
     style="opacity:1;fill:#999999;fill-opacity:1;fill-rule:evenodd;stroke:none;stroke-width:0.1;stroke-linecap:square;stroke-linejoin:round;stroke-miterlimit:4;stroke-dasharray:none;stroke-dashoffset:0;stroke-opacity:1"
     d="m 107.26773,367.40365 c -0.26892,-0.13401 -0.75426,-0.63643 -0.98221,-1.01677 -0.14971,-0.24981 -0.15464,-0.27234 -0.15342,-0.70176 0.002,-0.53975 0.11713,-1.09499 0.42767,-2.05411 1.4309,-4.4193 5.90016,-12.246 9.36767,-16.40494 0.81742,-0.98041 1.77871,-2.04598 2.51093,-2.78329 1.55967,-1.57052 2.12724,-1.698 2.66374,-0.59829 0.2509,0.51429 0.31641,0.78566 0.31106,1.28862 -0.0156,1.46063 -1.12083,3.47345 -3.59168,6.54074 -2.79203,3.46602 -5.38722,7.70811 -6.78615,11.09264 -0.973,2.35404 -1.69638,3.65788 -2.3888,4.30561 -0.48951,0.4579 -0.91832,0.56102 -1.37881,0.33155 z"
     id="path4833"
     inkscape:connector-curvature="0" />
  <path
     style="opacity:1;fill:#999999;fill-opacity:1;fill-rule:evenodd;stroke:none;stroke-width:0.1;stroke-linecap:square;stroke-linejoin:round;stroke-miterlimit:4;stroke-dasharray:none;stroke-dashoffset:0;stroke-opacity:1"
     d="m 125.43657,343.86975 c -0.33219,-0.0587 -0.66061,-0.26323 -1.00411,-0.62518 -0.54817,-0.57763 -1.0256,-1.54138 -1.17456,-2.37097 -0.0368,-0.20471 -0.0451,-0.28815 -0.0495,-0.49368 -0.007,-0.34923 0.0296,-0.55943 0.13798,-0.78367 0.0554,-0.11461 0.1162,-0.19779 0.2084,-0.28515 0.16014,-0.15174 0.35883,-0.25081 0.57022,-0.28434 0.0998,-0.0158 0.28442,-0.0161 0.39345,-6.2e-4 0.37501,0.0533 0.80729,0.27353 1.17715,0.59973 0.35685,0.31471 0.64459,0.69082 0.8552,1.11787 0.3372,0.6837 0.41947,1.38711 0.23622,2.01963 -0.0489,0.16878 -0.14865,0.38912 -0.23736,0.52429 -0.19938,0.30381 -0.44215,0.4918 -0.73352,0.56802 -0.0943,0.0247 -0.28058,0.0316 -0.37957,0.0141 z"
     id="path4835"
     inkscape:connector-curvature="0" />
  <path
     style="opacity:1;fill:#999999;fill-opacity:1;fill-rule:evenodd;stroke:none;stroke-width:0.1;stroke-linecap:square;stroke-linejoin:round;stroke-miterlimit:4;stroke-dasharray:none;stroke-dashoffset:0;stroke-opacity:1"
     d="m 236.4807,378.70309 c -0.46543,-0.14682 -1.15774,-0.64892 -1.76062,-1.2769 -0.53678,-0.55912 -0.83374,-1.23441 -1.06745,-2.42738 -0.34495,-1.76084 -0.37713,-4.59324 -0.0862,-7.58473 0.62546,-6.43081 2.38724,-13.06793 4.19972,-15.82151 0.33426,-0.50782 0.94792,-1.1358 1.2557,-1.285 0.43977,-0.21319 1.55929,-0.16209 2.08795,0.0953 0.47204,0.22981 0.63887,0.55225 0.63842,1.2339 -4.7e-4,0.70311 -0.2432,1.66176 -0.83246,3.28769 -0.15951,0.44015 -0.38752,1.08234 -0.50667,1.4271 -1.10203,3.18848 -1.85798,9.01562 -2.11453,16.29954 -0.0779,2.21072 -0.093,2.54909 -0.1384,3.09359 -0.15299,1.8351 -0.52409,2.81138 -1.13289,2.98045 -0.21205,0.0589 -0.29698,0.0554 -0.54259,-0.022 z"
     id="path4837"
     inkscape:connector-curvature="0" />
  <path
     style="opacity:1;fill:#999999;fill-opacity:1;fill-rule:evenodd;stroke:none;stroke-width:0.1;stroke-linecap:square;stroke-linejoin:round;stroke-miterlimit:4;stroke-dasharray:none;stroke-dashoffset:0;stroke-opacity:1"
     d="m 257.37631,377.52728 c -0.99797,-0.13125 -2.07833,-1.02337 -2.69493,-2.22536 -0.112,-0.21831 -0.57567,-1.29186 -1.0304,-2.38567 -0.45473,-1.0938 -1.78762,-4.27578 -2.96199,-7.07106 -2.70747,-6.44446 -3.10528,-7.43935 -3.84351,-9.61224 -1.02874,-3.02797 -1.52594,-5.19289 -1.52594,-6.6442 0,-1.10153 0.27101,-1.56749 0.88582,-1.52302 0.56784,0.0411 1.13435,0.46788 1.8043,1.35937 2.95101,3.92679 9.08359,17.19199 10.87033,23.51325 0.25941,0.91778 0.39105,1.53229 0.45956,2.14541 0.042,0.37583 0.0387,0.52095 -0.0198,0.87921 -0.18587,1.13734 -0.88867,1.70304 -1.94342,1.56431 z"
     id="path4839"
     inkscape:connector-curvature="0" />
  <path
     style="opacity:1;fill:#999999;fill-opacity:1;fill-rule:evenodd;stroke:none;stroke-width:0.1;stroke-linecap:square;stroke-linejoin:round;stroke-miterlimit:4;stroke-dasharray:none;stroke-dashoffset:0;stroke-opacity:1"
     d="m 192.87014,250.12798 c -0.0964,-0.0116 -0.20293,-0.0409 -0.26846,-0.0739 -0.15006,-0.0757 -0.25267,-0.20545 -0.29027,-0.36712 -0.0161,-0.0692 -0.0147,-0.23871 0.003,-0.3204 0.0398,-0.18776 0.13754,-0.39664 0.27882,-0.59602 0.14656,-0.20684 0.36925,-0.43146 0.5977,-0.60285 0.36865,-0.27658 0.76917,-0.45639 1.14628,-0.51463 0.0919,-0.0142 0.30162,-0.0141 0.37842,1.8e-4 0.31606,0.0587 0.49705,0.25233 0.50936,0.54493 0.007,0.16571 -0.0326,0.33016 -0.12549,0.52205 -0.10703,0.22098 -0.25631,0.42062 -0.47298,0.63253 -0.42913,0.41972 -0.99295,0.71396 -1.47699,0.77081 -0.0616,0.007 -0.23305,0.01 -0.27901,0.004 z"
     id="path4845"
     inkscape:connector-curvature="0" />
  <path
     style="opacity:1;fill:#999999;fill-opacity:1;fill-rule:evenodd;stroke:none;stroke-width:0.1;stroke-linecap:square;stroke-linejoin:round;stroke-miterlimit:4;stroke-dasharray:none;stroke-dashoffset:0;stroke-opacity:1"
     d="m 179.56502,253.80585 c -0.51183,-0.0457 -0.75386,-0.42992 -0.69324,-1.10045 0.0443,-0.48953 0.17156,-0.97608 0.47518,-1.81596 0.22048,-0.6099 0.27603,-0.78698 0.39065,-1.24546 0.31375,-1.2549 0.3991,-2.66744 0.21301,-3.52545 -0.0161,-0.0742 -0.075,-0.27103 -0.13093,-0.4375 -0.11813,-0.35163 -0.1737,-0.59017 -0.19608,-0.84174 -0.0416,-0.46782 0.0729,-0.80453 0.30968,-0.91034 0.12828,-0.0573 0.51446,-0.0314 1.00931,0.0678 1.56861,0.31428 4.27044,1.30877 6.34375,2.335 1.38062,0.68336 2.08653,1.17745 2.08574,1.45987 -10e-4,0.37795 -1.13505,1.41401 -2.85136,2.6051 -0.51691,0.35872 -1.22267,0.81079 -1.92188,1.23104 -2.64688,1.59086 -4.18037,2.2544 -5.03383,2.17814 z"
     id="path4847"
     inkscape:connector-curvature="0" />
  <path
     style="opacity:1;fill:#999999;fill-opacity:1;fill-rule:evenodd;stroke:none;stroke-width:0.1;stroke-linecap:square;stroke-linejoin:round;stroke-miterlimit:4;stroke-dasharray:none;stroke-dashoffset:0;stroke-opacity:1"
     d="m 192.33776,264.35425 c -4.27769,-0.241 -7.48915,-1.01876 -8.652,-2.09536 -0.31004,-0.28704 -0.47969,-0.58276 -0.5214,-0.90885 -0.0388,-0.30316 -0.1047,-0.43517 -0.30522,-0.61123 -0.4469,-0.39239 -1.08173,-0.5666 -2.27703,-0.6249 -1.10389,-0.0538 -1.67411,-0.20246 -2.05293,-0.53507 -0.44175,-0.38786 -0.36572,-0.90089 0.21385,-1.44304 0.5215,-0.48784 1.15599,-0.79464 2.47989,-1.19912 2.70002,-0.8249 6.2929,-2.30207 14.36311,-5.90521 3.07284,-1.37194 4.35324,-1.90696 6.20928,-2.59457 1.97049,-0.73 3.30636,-1.13453 4.28067,-1.2963 1.37855,-0.22887 1.76389,0.22936 1.95253,2.32186 0.0739,0.82024 0.10591,5.55222 0.0466,6.89429 -0.1468,3.32011 -0.50666,4.67786 -1.48655,5.60866 -0.28246,0.26831 -0.42382,0.35954 -0.96019,0.61966 -1.84394,0.89424 -4.33612,1.42966 -8.05358,1.73024 -0.75693,0.0612 -4.36559,0.088 -5.23701,0.0389 z m 8.36307,-1.79083 c 0.71944,-0.17459 1.18571,-0.61641 1.18967,-1.12729 0.004,-0.45194 -0.27149,-0.67139 -0.87376,-0.69731 -0.4951,-0.0213 -0.90096,0.0968 -1.7184,0.50006 -0.97251,0.47974 -1.33582,0.83297 -1.08772,1.0575 0.33999,0.30768 1.71507,0.45514 2.49021,0.26704 z m -7.15536,-1.67524 c 0.94029,-0.11958 1.61289,-0.25287 2.46834,-0.48916 1.68086,-0.46428 3.56977,-1.26307 4.65073,-1.96671 1.0231,-0.66598 2.19143,-1.614 2.19143,-1.77819 0,-0.20182 -0.32429,-0.20294 -1.45841,-0.005 -2.76791,0.48299 -5.06992,1.10634 -6.26132,1.69548 -0.47315,0.23397 -0.56421,0.29967 -0.96442,0.69576 -0.52596,0.52055 -1.15782,0.95497 -2.00966,1.3817 -0.33121,0.16593 -0.6303,0.33553 -0.66463,0.37689 -0.0546,0.0658 -0.0518,0.083 0.0217,0.13672 0.1349,0.0986 1.04503,0.0773 2.02624,-0.0475 z m -6.4853,-0.9551 c 0.25267,-0.0809 0.84773,-0.35309 1.46999,-0.67231 2.54538,-1.30576 4.42144,-2.1622 8.02814,-3.66493 7.76959,-3.23718 10.012,-4.41642 10.30326,-5.41832 0.0642,-0.22085 0.0634,-0.24064 -0.013,-0.32585 -0.0749,-0.0835 -0.11661,-0.0888 -0.52332,-0.0664 -1.74744,0.096 -7.38502,2.45332 -13.50132,5.64549 -2.48678,1.29789 -4.4071,2.04756 -5.54011,2.16281 -0.57754,0.0587 -0.83709,0.13505 -1.10335,0.32436 -0.4369,0.31062 -0.58513,0.64221 -0.54741,1.22451 0.0292,0.45035 0.0995,0.64358 0.29396,0.80717 0.20309,0.17089 0.56462,0.16562 1.13319,-0.0165 z"
     id="path4849"
     inkscape:connector-curvature="0" />
  <path
     style="opacity:1;fill:#999999;fill-opacity:1;fill-rule:evenodd;stroke:none;stroke-width:0.1;stroke-linecap:square;stroke-linejoin:round;stroke-miterlimit:4;stroke-dasharray:none;stroke-dashoffset:0;stroke-opacity:1"
     d="m 188.94114,286.08592 c -0.0547,-0.004 -0.22276,-0.0277 -0.3735,-0.0519 -1.07116,-0.17129 -2.23312,-0.66292 -3.18611,-1.34804 -0.63914,-0.45949 -1.23623,-1.08986 -1.4396,-1.51985 -0.48666,-1.02897 -0.42465,-3.80173 0.14909,-6.66569 0.44546,-2.22365 1.09137,-3.97885 1.71553,-4.66177 0.40138,-0.43918 1.25544,-0.73856 2.37224,-0.83156 0.37382,-0.0311 1.10132,-0.0141 1.49156,0.0349 0.35445,0.0445 1.27579,0.23032 1.64474,0.33173 0.80336,0.22082 1.20708,0.4925 1.43553,0.96603 0.17796,0.36887 0.23325,0.71012 0.23377,1.44277 5.8e-4,0.82534 -0.0891,1.7636 -0.37691,3.94433 -0.49956,3.78485 -1.1574,7.09807 -1.52221,7.66658 -0.23052,0.35923 -0.68946,0.60291 -1.28946,0.68466 -0.16101,0.0219 -0.62688,0.0262 -0.85467,0.008 z"
     id="path4851"
     inkscape:connector-curvature="0" />
  <path
     style="opacity:1;fill:#999999;fill-opacity:1;fill-rule:evenodd;stroke:none;stroke-width:0.1;stroke-linecap:square;stroke-linejoin:round;stroke-miterlimit:4;stroke-dasharray:none;stroke-dashoffset:0;stroke-opacity:1"
     d="m 127.91719,339.14414 c -0.55434,-0.25155 -1.3794,-1.15745 -1.76582,-1.93883 -0.30694,-0.62066 -0.3255,-0.70664 -0.32438,-1.5026 0.002,-1.59732 0.63142,-3.0514 3.60677,-8.33563 0.99211,-1.762 2.21016,-3.93776 2.70677,-4.83503 1.06312,-1.92084 1.80171,-3.05635 3.27953,-5.04193 3.89446,-5.23256 9.63806,-11.69102 15.91751,-17.89864 4.62293,-4.57004 7.60568,-7.0833 9.40674,-7.92612 0.48929,-0.22897 0.64724,-0.26329 0.99534,-0.21628 1.37964,0.18634 1.73302,1.81776 0.81205,3.74886 -0.6445,1.35137 -1.25295,2.00189 -3.02425,3.23333 -1.21087,0.84183 -2.59591,1.92705 -4.00317,3.13663 -1.31746,1.13239 -5.40315,5.24253 -6.86553,6.90661 -6.97399,7.93585 -12.78652,16.99543 -15.14132,23.59969 -0.234,0.65628 -0.64207,1.75009 -0.90683,2.43068 -1.44449,3.71326 -3.10878,5.35835 -4.69341,4.63926 z"
     id="path4859"
     inkscape:connector-curvature="0" />
  <path
     style="opacity:1;fill:#999999;fill-opacity:1;fill-rule:evenodd;stroke:none;stroke-width:0.1;stroke-linecap:square;stroke-linejoin:round;stroke-miterlimit:4;stroke-dasharray:none;stroke-dashoffset:0;stroke-opacity:1"
     d="m 183.58988,366.26886 c -1.21556,-0.20351 -2.91265,-1.46982 -3.38731,-2.52752 -1.13316,-2.52501 -1.45097,-9.77237 -1.3596,-31.00423 0.027,-6.27115 0.0904,-12.37658 0.14099,-13.56761 0.3087,-7.27281 0.78679,-9.88546 1.95408,-10.67858 0.25197,-0.1712 0.37881,-0.19944 0.705,-0.15694 0.52813,0.0688 1.31571,0.47535 2.11935,1.09397 1.28401,0.98841 1.56246,1.61717 1.4758,3.33249 -0.0582,1.15179 -0.13327,1.63454 -0.72189,4.64129 -0.78385,4.004 -1.01704,7.63456 -1.01622,15.82152 9.4e-4,9.46693 0.49865,18.56107 1.33027,24.30679 0.2176,1.5034 0.36674,2.25329 0.79835,4.01393 0.38107,1.55451 0.56391,3.07417 0.43695,3.63167 -0.18135,0.79635 -1.29959,1.29013 -2.47577,1.09322 z"
     id="path4861"
     inkscape:connector-curvature="0" />
  <path
     style="opacity:1;fill:#999999;fill-opacity:1;fill-rule:evenodd;stroke:none;stroke-width:0.1;stroke-linecap:square;stroke-linejoin:round;stroke-miterlimit:4;stroke-dasharray:none;stroke-dashoffset:0;stroke-opacity:1"
     d="m 241.84661,348.25931 c -0.31858,-0.19961 -0.6178,-0.83114 -0.7049,-1.48777 -0.075,-0.56542 0.0819,-1.51315 0.41249,-2.4911 0.45145,-1.33556 0.30859,-1.68058 -0.53418,-1.29012 -1.25012,0.5792 -2.25298,-0.0431 -3.24156,-2.01148 -0.56922,-1.13338 -0.78649,-1.76054 -1.32592,-3.82722 -0.92093,-3.52829 -1.91257,-6.49504 -3.4858,-10.4286 -2.11025,-5.27631 -4.54606,-10.16804 -6.03032,-12.11043 -1.0754,-1.40732 -5.12134,-4.55314 -10.48401,-8.15157 -3.79233,-2.5447 -5.33008,-3.73844 -6.77587,-5.26004 -1.09222,-1.1495 -1.39988,-1.68497 -1.44148,-2.50887 -0.0765,-1.51526 0.63594,-2.29087 1.94487,-2.11723 2.02073,0.26806 5.02728,2.22484 10.46007,6.80783 8.83459,7.45267 12.18327,11.88345 16.05186,21.23886 1.84904,4.47156 4.72319,12.7524 5.86667,16.90276 0.80626,2.92638 1.17681,5.30885 0.93816,6.03196 -0.20962,0.63518 -1.1315,1.02795 -1.65008,0.70302 z"
     id="path4863"
     inkscape:connector-curvature="0" />
  <path
     style="opacity:1;fill:#999999;fill-opacity:1;fill-rule:evenodd;stroke:none;stroke-width:0.1;stroke-linecap:square;stroke-linejoin:round;stroke-miterlimit:4;stroke-dasharray:none;stroke-dashoffset:0;stroke-opacity:1"
     d="m 203.95322,304.93192 c -0.40806,-0.42591 -0.56922,-1.49422 -0.51977,-3.44544 0.0728,-2.87416 0.57961,-5.49134 1.52247,-7.86257 0.44859,-1.12817 0.45432,-1.94457 0.0152,-2.17163 -0.41808,-0.2162 -0.99644,-0.0393 -1.41086,0.43149 -0.83568,0.94938 -1.36733,2.76688 -2.30621,7.88396 -0.55576,3.02902 -1.08496,4.03292 -2.04499,3.87941 -0.38041,-0.0608 -1.0067,-0.4158 -1.76982,-1.00311 -2.89411,-2.22735 -5.37654,-3.58192 -8.58322,-4.68354 -3.32025,-1.14064 -6.5765,-1.75253 -11.0042,-2.06784 -3.98078,-0.28347 -7.77817,-0.87203 -9.72139,-1.50671 -1.37817,-0.45012 -2.49192,-1.27474 -2.75792,-2.04195 -0.15431,-0.44507 -0.14013,-1.36358 0.0359,-2.32496 0.18055,-0.98606 0.93746,-3.95728 1.21313,-4.76207 0.542,-1.58234 1.12228,-2.15902 2.45424,-2.43904 0.75532,-0.15879 4.82416,-0.15895 5.83854,-2.3e-4 2.67673,0.41883 4.33208,1.07661 6.20718,2.46652 1.69094,1.25341 3.71157,1.96008 6.48032,2.26637 0.32656,0.0361 1.52187,0.0923 2.65625,0.1249 4.31678,0.12393 7.63907,0.5772 11.21875,1.53063 3.4091,0.908 5.55635,1.21398 7.5,1.06876 0.83972,-0.0628 1.17263,6e-5 1.37774,0.25999 0.35976,0.45589 -0.18717,1.53419 -1.97891,3.90149 -0.82332,1.08779 -1.19589,1.70417 -1.66355,2.75216 -0.69388,1.55493 -1.02173,2.88388 -1.10941,4.49705 -0.0807,1.48494 -0.27719,2.31678 -0.69682,2.95031 -0.19482,0.29413 -0.44828,0.47561 -0.66426,0.47561 -0.064,0 -0.19382,-0.0808 -0.28843,-0.17956 z"
     id="path4865"
     inkscape:connector-curvature="0" />
</svg>
