<?xml version="1.0" encoding="UTF-8" standalone="no"?>
<!-- Created with Inkscape (http://www.inkscape.org/) -->

<svg
   xmlns:dc="http://purl.org/dc/elements/1.1/"
   xmlns:cc="http://creativecommons.org/ns#"
   xmlns:rdf="http://www.w3.org/1999/02/22-rdf-syntax-ns#"
   xmlns:svg="http://www.w3.org/2000/svg"
   xmlns="http://www.w3.org/2000/svg"
   xmlns:sodipodi="http://sodipodi.sourceforge.net/DTD/sodipodi-0.dtd"
   xmlns:inkscape="http://www.inkscape.org/namespaces/inkscape"
   version="1.1"
   id="svg2"
   xml:space="preserve"
   width="962.66663"
   height="288"
   viewBox="0 0 962.6666 288.00001"
   sodipodi:docname="Netronome_noborder.svg"
   inkscape:version="0.92.2 (5c3e80d, 2017-08-06)"><metadata
     id="metadata8"><rdf:RDF><cc:Work
         rdf:about=""><dc:format>image/svg+xml</dc:format><dc:type
           rdf:resource="http://purl.org/dc/dcmitype/StillImage" /><dc:title></dc:title></cc:Work></rdf:RDF></metadata><defs
     id="defs6" /><sodipodi:namedview
     pagecolor="#ffffff"
     bordercolor="#666666"
     borderopacity="1"
     objecttolerance="10"
     gridtolerance="10"
     guidetolerance="10"
     inkscape:pageopacity="0"
     inkscape:pageshadow="2"
     inkscape:window-width="1890"
     inkscape:window-height="1051"
     id="namedview4"
     showgrid="false"
     fit-margin-left="0"
     fit-margin-top="96"
     fit-margin-right="0"
     fit-margin-bottom="96"
     inkscape:zoom="1.2710952"
     inkscape:cx="379.78284"
     inkscape:cy="86.879419"
     inkscape:window-x="30"
     inkscape:window-y="0"
     inkscape:window-maximized="1"
     inkscape:current-layer="g10" /><g
     id="g10"
     inkscape:groupmode="layer"
     inkscape:label="ink_ext_XXXXXX"
     transform="matrix(1.3333333,0,0,-1.3333333,-128.66666,1501.3333)"><g
       id="g12"
       transform="scale(0.1)"><path
         d="m 1525.82,9820 c 0.26,0 34.65,0 69.18,0 22.09,0 40,17.91 40,40 v 560 h -80 c -22.09,0 -40,-17.9 -40,-40 v -369.5 l -430,409.5 h -80 c -22.09,0 -40,-17.9 -40,-40 v -560 h 80 c 22.09,0 40,17.91 40,40 v 370.8 l 440,-409.98 0.82,-0.82"
         style="fill:#2354aa;fill-opacity:1;fill-rule:nonzero;stroke:none"
         id="path14"
         inkscape:connector-curvature="0" /><path
         d="m 2395,10340 v 80 h -560 c -22.09,0 -40,-17.9 -40,-40 v -80 -120.1 -119.8 -120.1 -80 c 0,-22.09 17.91,-40 40,-40 h 80 480 v 80 c 0,22.09 -17.91,40 -40,40 h -440 v 120.1 h 320 c 22.09,0 40,17.9 40,40 v 39.8 c 0,22.1 -17.91,40 -40,40 h -320 v 120.1 h 440 c 22.09,0 40,17.9 40,40"
         style="fill:#2354aa;fill-opacity:1;fill-rule:nonzero;stroke:none"
         id="path16"
         inkscape:connector-curvature="0" /><path
         d="m 2915,10420 h -400 v -80 c 0,-22.1 17.92,-40 40,-40 h 240 v -440 c 0,-22.09 17.91,-40 40,-40 h 40 c 22.09,0 40,17.91 40,40 v 440 h 240 c 22.09,0 40,17.9 40,40 v 80 h -280"
         style="fill:#2354aa;fill-opacity:1;fill-rule:nonzero;stroke:none"
         id="path18"
         inkscape:connector-curvature="0" /><path
         d="m 7345,9820 h 80 v 560 c 0,22.1 -17.91,40 -40,40 -34.9,0 -79.99,0 -80,0 l -239.99,-342.8 -240,342.8 h -80 c -22.09,0 -40,-17.9 -40,-40 v -560 h 80 c 22.09,0 40,17.91 40,40 v 331.4 l 184.27,-263.21 c 3.16,-4.52 10.2,-8.19 15.73,-8.19 h 80 c 5.53,0 12.57,3.67 15.73,8.19 L 7305,10191.4 V 9860 c 0,-22.09 17.91,-40 40,-40"
         style="fill:#2354aa;fill-opacity:1;fill-rule:nonzero;stroke:none"
         id="path20"
         inkscape:connector-curvature="0" /><path
         d="m 8185,10340 v 80 h -560 c -22.09,0 -40,-17.9 -40,-40 v -80 -120.1 -119.8 -120.1 -80 c 0,-22.09 17.91,-40 40,-40 h 80 480 v 80 c 0,22.09 -17.91,40 -40,40 h -440 v 120.1 h 320 c 22.09,0 40,17.9 40,40 v 39.8 c 0,22.1 -17.91,40 -40,40 h -320 v 120.1 h 440 c 22.09,0 40,17.9 40,40"
         style="fill:#2354aa;fill-opacity:1;fill-rule:nonzero;stroke:none"
         id="path22"
         inkscape:connector-curvature="0" /><path
         d="m 4235,9980 v 280 c 0,22.1 17.91,40 40,40 h 400 c 22.09,0 40,-17.9 40,-40 v -280 c 0,-22.09 -17.91,-40 -40,-40 h -400 c -22.09,0 -40,17.91 -40,40 z m 460.01,440 h -440 c -77.32,0 -140,-62.7 -140,-140 v -320 c 0,-77.32 62.68,-140 140,-140 h 440 c 77.32,0 140,62.68 140,140 v 320 c 0,77.3 -62.68,140 -140,140"
         style="fill:#2354aa;fill-opacity:1;fill-rule:nonzero;stroke:none"
         id="path24"
         inkscape:connector-curvature="0" /><path
         d="M 6425,10186.7 V 9980 c 0,-22.09 -17.91,-40 -40,-40 h -400 c -22.09,0 -40,17.91 -40,40 v 280 c 0,22.1 17.91,40 40,40 h 160 v 120 h -179.99 c -77.32,0 -140,-62.7 -140,-140 v -320 c 0,-77.32 62.68,-140 140,-140 h 440 c 77.32,0 140,62.68 140,140 v 295.4 L 6425,10186.7"
         style="fill:#2354aa;fill-opacity:1;fill-rule:nonzero;stroke:none"
         id="path26"
         inkscape:connector-curvature="0" /><path
         d="m 3835,10180 c 0,-22.1 -17.91,-40 -40,-40 h -360 v 160 h 360 c 22.09,0 40,-17.9 40,-40 z m 120,-20 v 120 c 0,77.3 -62.68,140 -140,140 h -380 -80 c -22.09,0 -40,-17.9 -40,-40 v -80 -160 -120 -200 h 80 c 22.09,0 40,17.91 40,40 v 160 h 252.33 l 130.95,-200 h 119.1 c 16.58,0 22.5,11.14 13.25,24.88 l -118.7,176.22 c 69.32,8.4 123.07,67.3 123.07,138.9"
         style="fill:#2354aa;fill-opacity:1;fill-rule:nonzero;stroke:none"
         id="path28"
         inkscape:connector-curvature="0" /><path
         d="m 5555.82,9820 c 0.26,0 34.65,0 69.18,0 22.09,0 40,17.91 40,40 v 560 h -80 c -22.09,0 -40,-17.9 -40,-40 v -369.5 l -430,409.5 h -80 c -22.09,0 -40,-17.9 -40,-40 v -560 h 80 c 22.09,0 40,17.91 40,40 v 370.8 l 440,-409.98 0.82,-0.82"
         style="fill:#2354aa;fill-opacity:1;fill-rule:nonzero;stroke:none"
         id="path30"
         inkscape:connector-curvature="0" /><path
         d="m 6246.6,10180 c -3.72,0 -7.45,1 -10.8,2.9 -6.68,3.8 -10.79,10.9 -10.79,18.5 v 317.2 c 0,7.6 4.11,14.7 10.79,18.5 3.35,1.9 7.08,2.9 10.8,2.9 3.76,0 7.48,-1 10.84,-2.9 l 276.77,-158.6 c 6.68,-3.8 10.79,-10.9 10.79,-18.5 0,-7.7 -4.11,-14.7 -10.79,-18.6 l -276.77,-158.5 c -3.36,-1.9 -7.08,-2.9 -10.84,-2.9"
         style="fill:#fbc707;fill-opacity:1;fill-rule:nonzero;stroke:none"
         id="path32"
         inkscape:connector-curvature="0" /></g></g></svg>