<?xml version="1.0" encoding="UTF-8" standalone="no"?>
<!-- Created with Inkscape (http://www.inkscape.org/) -->

<svg
   xmlns:dc="http://purl.org/dc/elements/1.1/"
   xmlns:cc="http://creativecommons.org/ns#"
   xmlns:rdf="http://www.w3.org/1999/02/22-rdf-syntax-ns#"
   xmlns:svg="http://www.w3.org/2000/svg"
   xmlns="http://www.w3.org/2000/svg"
   xmlns:sodipodi="http://sodipodi.sourceforge.net/DTD/sodipodi-0.dtd"
   xmlns:inkscape="http://www.inkscape.org/namespaces/inkscape"
   id="svg2"
   version="1.1"
   inkscape:version="0.91 r13725"
   xml:space="preserve"
   width="480"
   height="135.79367"
   viewBox="0 0 480 135.79367"
   sodipodi:docname="logo-beba.svg"><metadata
     id="metadata8"><rdf:RDF><cc:Work
         rdf:about=""><dc:format>image/svg+xml</dc:format><dc:type
           rdf:resource="http://purl.org/dc/dcmitype/StillImage" /><dc:title></dc:title></cc:Work></rdf:RDF></metadata><defs
     id="defs6"><clipPath
       clipPathUnits="userSpaceOnUse"
       id="clipPath18"><path
         d="M 0,0 376,0 376,149 0,149 0,0 Z"
         id="path20"
         inkscape:connector-curvature="0" /></clipPath></defs><sodipodi:namedview
     pagecolor="#ffffff"
     bordercolor="#666666"
     borderopacity="1"
     objecttolerance="10"
     gridtolerance="10"
     guidetolerance="10"
     inkscape:pageopacity="0"
     inkscape:pageshadow="2"
     inkscape:window-width="1570"
     inkscape:window-height="871"
     id="namedview4"
     showgrid="false"
     fit-margin-top="0"
     fit-margin-left="0"
     fit-margin-right="0"
     fit-margin-bottom="0"
     inkscape:snap-page="true"
     inkscape:snap-bbox="true"
     inkscape:bbox-paths="true"
     inkscape:bbox-nodes="true"
     inkscape:snap-bbox-edge-midpoints="true"
     inkscape:zoom="1.6127659"
     inkscape:cx="255.67851"
     inkscape:cy="31.844698"
     inkscape:window-x="0"
     inkscape:window-y="0"
     inkscape:window-maximized="1"
     inkscape:current-layer="g16" /><g
     id="g10"
     inkscape:groupmode="layer"
     inkscape:label="beba-purple-banner"
     transform="matrix(1.25,0,0,-1.25,-12.5,136.42273)"><g
       id="g12"
       transform="matrix(1.1172889,0,0,1.1172889,-1.1728893,-13.57459)" /><g
       id="g14"
       transform="matrix(1.1187944,0,0,1.1187944,-1.1879441,-13.593559)"><g
         id="g16"
         clip-path="url(#clipPath18)"><path
           style="fill:#572a79;fill-opacity:1;fill-rule:nonzero;stroke:none"
           d="M 18.523438,49.25 C 15.197237,49.25 12.5,51.947187 12.5,55.273438 l 0,18.976562 0,71.25 0,18.97656 c 0,3.3262 2.697237,6.02344 6.023438,6.02344 l 18.976562,0 39.443359,0 31.806641,0 c 13.80711,0 25,-11.19287 25,-25 l 0,-45.08008 0,-26.16992 0,-18.976562 C 133.75,51.947187 131.05281,49.25 127.72656,49.25 l -18.97656,0 -71.25,0 -18.976562,0 z"
           transform="matrix(0.8,0,0,-0.8,0,149)"
           id="path22"
           inkscape:connector-curvature="0" /><g
           id="g24"
           transform="matrix(1,0,0,-1,234.6426,74.5)"><g
             transform="translate(-126.947,35.5)"
             style="fill:#572a79;fill-opacity:1;fill-rule:nonzero;stroke:none"
             id="text26"><path
               d="m 12.019,-33.532 c 8.484,0 15.756,0 24.24,0 9.494,0 19.493,3.939 19.594,14.948 0,11.211 -11.413,13.332 -20.301,13.332 l -23.533,0 0,-28.28 z m 0,-32.522 23.533,0 c 8.787,0 18.079,4.343 18.079,14.645 0,10.1 -8.888,12.726 -17.372,12.726 l -24.24,0 0,-27.371 z M 35.552,-70.7 c -10.302,0 -18.786,0 -28.987,0 l 0,70.7 c 10.302,0 18.685,0 28.987,0 12.12,0 25.654,-3.939 25.654,-18.483 0,-8.181 -5.05,-15.352 -13.938,-17.776 7.07,-2.222 11.514,-7.878 11.514,-15.15 0,-13.433 -11.312,-19.291 -23.23,-19.291 z"
               id="path4148"
               inkscape:connector-curvature="0" /><path
               d="M 96.354001,0.707 C 104.333,0.707 113.019,-2.525 117.867,-8.888 l -3.535,-2.828 c -3.737,4.949 -11.413,7.575 -17.977999,7.575 -10.302,0 -19.291,-6.767 -20.301,-18.483 l 44.944999,0 c 1.919,-19.493 -10.605,-28.078 -24.643999,-28.078 -14.039,0 -25.351,10.807 -25.351,25.755 0,15.857 11.312,25.654 25.351,25.654 z m -20.301,-27.674 c 1.111,-12.221 9.999,-19.19 20.301,-19.19 12.018999,0 20.098999,6.868 20.199999,19.19 l -40.500999,0 z"
               id="path4150"
               inkscape:connector-curvature="0" /><path
               d="m 159.68099,-45.955 c 11.211,0 20.402,6.969 20.402,21.008 0,13.837 -9.191,20.907 -20.402,20.907 -11.716,0 -20.402,-8.585 -20.402,-21.008 0,-12.423 8.888,-20.907 20.402,-20.907 z m -25.351,-24.745 0,70.7 4.848,0 0,-11.009 c 4.141,7.575 12.322,11.817 20.806,11.817 13.938,0 24.947,-9.191 24.947,-25.755 0,-16.463 -11.11,-25.755 -25.048,-25.755 -8.585,0 -16.665,3.636 -20.705,11.716 l 0,-31.714 -4.848,0 z"
               id="path4152"
               inkscape:connector-curvature="0" /><path
               d="m 240.58201,-49.894 0,10.908 c -4.141,-7.777 -12.322,-11.514 -20.402,-11.514 -13.938,0 -25.351,10.302 -25.351,25.553 0,15.251 11.413,25.755 25.351,25.755 8.08,0 15.554,-3.636 20.402,-11.413 l 0,10.605 4.949,0 c 0,-16.665 0,-33.229 0,-49.894 l -4.949,0 z m -20.402,4.141 c 27.775,0 27.775,41.713 0,41.713 -11.312,0 -20.402,-8.383 -20.402,-20.907 0,-12.524 9.09,-20.806 20.402,-20.806 z"
               id="path4154"
               inkscape:connector-curvature="0" /></g></g><g
           id="g30"
           transform="matrix(1,0,0,-1,233.5,24.5)"><g
             transform="translate(-120.173,6)"
             style="fill:#572a79;fill-opacity:1;fill-rule:nonzero;stroke:none"
             id="text32"><path
               d="m 2.023,-5.644 c 1.428,0 2.652,0 4.08,0 1.598,0 3.281,0.663 3.298,2.516 0,1.887 -1.921,2.244 -3.417,2.244 l -3.961,0 0,-4.76 z m 0,-5.474 3.961,0 c 1.479,0 3.043,0.731 3.043,2.465 0,1.7 -1.496,2.142 -2.924,2.142 l -4.08,0 0,-4.607 z M 5.984,-11.9 c -1.734,0 -3.162,0 -4.879,0 l 0,11.9 c 1.734,0 3.145,0 4.879,0 2.04,0 4.318,-0.663 4.318,-3.111 0,-1.377 -0.85,-2.584 -2.346,-2.992 1.19,-0.374 1.938,-1.326 1.938,-2.55 0,-2.261 -1.904,-3.247 -3.91,-3.247 z"
               id="path4157"
               inkscape:connector-curvature="0" /><path
               d="m 13.396,-11.033 7.31,0 0,-0.867 -8.211,0 0,11.9 8.415,0 0,-0.884 -7.514,0 0,-4.692 6.97,0 0,-0.833 -6.97,0 0,-4.624 z"
               id="path4159"
               inkscape:connector-curvature="0" /><path
               d="m 22.779999,-11.9 0,11.9 0.833,0 0,-4.607 c 0,-1.751 1.224,-3.111 2.992,-3.111 1.887,0 2.703,1.173 2.703,2.907 l 0,4.811 0.816,0 0,-4.811 c 0,-2.193 -1.173,-3.706 -3.519,-3.706 -1.173,0.017 -2.346,0.476 -3.026,1.683 l 0,-5.066 -0.799,0 z"
               id="path4161"
               inkscape:connector-curvature="0" /><path
               d="m 39.542,-8.398 0,1.836 C 38.845,-7.871 37.468,-8.5 36.108,-8.5 c -2.346,0 -4.267,1.734 -4.267,4.301 0,2.567 1.921,4.335 4.267,4.335 1.36,0 2.618,-0.612 3.434,-1.921 l 0,1.785 0.833,0 c 0,-2.805 0,-5.593 0,-8.398 l -0.833,0 z m -3.434,0.697 c 4.675,0 4.675,7.021 0,7.021 -1.904,0 -3.434,-1.411 -3.434,-3.519 0,-2.108 1.53,-3.502 3.434,-3.502 z"
               id="path4163"
               inkscape:connector-curvature="0" /><path
               d="m 44.829,0 0.918,0 3.519,-8.398 -0.918,0 -3.06,7.429 -3.06,-7.429 -0.918,0 L 44.829,0 Z"
               id="path4165"
               inkscape:connector-curvature="0" /><path
               d="m 51.476,-8.432 0,8.432 -0.833,0 0,-8.432 0.833,0 z m -1.071,-2.703 c 0,0.884 1.343,0.884 1.343,0 0,-0.884 -1.343,-0.884 -1.343,0 z"
               id="path4167"
               inkscape:connector-curvature="0" /><path
               d="m 57.919002,0.119 c 2.363,0 4.267,-1.632 4.267,-4.301 0,-2.669 -1.904,-4.369 -4.267,-4.369 -2.363,0 -4.267,1.7 -4.267,4.369 0,2.669 1.904,4.301 4.267,4.301 z m 0,-0.816 c -1.904,0 -3.451,-1.309 -3.451,-3.485 0,-2.176 1.547,-3.587 3.451,-3.587 1.904,0 3.451,1.411 3.451,3.587 0,2.176 -1.547,3.485 -3.451,3.485 z"
               id="path4169"
               inkscape:connector-curvature="0" /><path
               d="m 71.689001,0 0,-8.415 -0.833,0 0,4.675 c 0,1.734 -1.207,3.043 -2.941,3.06 -1.819,0.017 -2.992,-1.003 -2.992,-2.907 l 0,-4.828 -0.833,0 0,4.845 c 0,2.329 1.547,3.706 3.791,3.706 1.173,-0.017 2.346,-0.493 2.992,-1.649 l 0,1.513 0.816,0 z"
               id="path4171"
               inkscape:connector-curvature="0" /><path
               d="m 73.881999,-8.398 0,8.398 0.833,0 0,-4.896 c 0,-1.53 1.207,-2.788 2.771,-2.805 0.493,0 0.986,0.119 1.428,0.391 l 0.374,-0.68 c -0.561,-0.34 -1.173,-0.51 -1.802,-0.493 -1.071,0 -2.261,0.442 -2.788,1.581 l -0.034,-1.496 -0.782,0 z"
               id="path4173"
               inkscape:connector-curvature="0" /><path
               d="m 87.788,-8.398 0,1.836 C 87.091,-7.871 85.714,-8.5 84.354,-8.5 c -2.346,0 -4.267,1.734 -4.267,4.301 0,2.567 1.921,4.335 4.267,4.335 1.36,0 2.618,-0.612 3.434,-1.921 l 0,1.785 0.833,0 c 0,-2.805 0,-5.593 0,-8.398 l -0.833,0 z m -3.434,0.697 c 4.675,0 4.675,7.021 0,7.021 -1.904,0 -3.434,-1.411 -3.434,-3.519 0,-2.108 1.53,-3.502 3.434,-3.502 z"
               id="path4175"
               inkscape:connector-curvature="0" /><path
               d="m 90.881999,-11.9 0,11.9 0.833,0 0,-11.9 -0.833,0 z"
               id="path4177"
               inkscape:connector-curvature="0" /><path
               d="m 99.806997,-5.644 c 1.428003,0 2.652003,0 4.080003,0 1.598,0 3.281,0.663 3.298,2.516 0,1.887 -1.921,2.244 -3.417,2.244 l -3.961003,0 0,-4.76 z m 0,-5.474 3.961003,0 c 1.479,0 3.043,0.731 3.043,2.465 0,1.7 -1.496,2.142 -2.924,2.142 l -4.080003,0 0,-4.607 z M 103.768,-11.9 c -1.734,0 -3.162,0 -4.879003,0 l 0,11.9 C 100.623,0 102.034,0 103.768,0 c 2.04,0 4.318,-0.663 4.318,-3.111 0,-1.377 -0.85,-2.584 -2.346,-2.992 1.19,-0.374 1.938,-1.326 1.938,-2.55 0,-2.261 -1.904,-3.247 -3.91,-3.247 z"
               id="path4179"
               inkscape:connector-curvature="0" /><path
               d="m 120.734,0 -5.338,-11.9 -1.003,0 -5.338,11.9 0.986,0 1.292,-2.924 7.106,0 1.309,2.924 0.986,0 z m -9.044,-3.774 3.196,-7.242 3.196,7.242 -6.392,0 z"
               id="path4181"
               inkscape:connector-curvature="0" /><path
               d="m 128.367,-7.412 c -0.833,-0.782 -1.904,-1.122 -3.128,-1.122 -1.7,-0.017 -3.349,0.697 -3.332,2.346 0.017,1.683 1.632,1.989 3.264,2.261 1.377,0.221 2.771,0.459 2.737,1.666 -0.051,1.326 -1.598,1.598 -2.618,1.598 -1.122,0 -2.38,-0.425 -3.077,-1.428 l -0.612,0.544 c 0.731,1.122 2.193,1.683 3.672,1.683 1.479,0 3.4,-0.493 3.451,-2.346 0.085,-1.955 -1.972,-2.21 -3.468,-2.465 -1.054,-0.187 -2.516,-0.408 -2.55,-1.53 -0.034,-1.071 1.224,-1.564 2.533,-1.547 0.935,0 1.768,0.136 2.618,0.884 l 0.51,-0.544 z"
               id="path4183"
               inkscape:connector-curvature="0" /><path
               d="m 134.368,0.119 c 1.343,0 2.805,-0.544 3.621,-1.615 l -0.595,-0.476 c -0.629,0.833 -1.921,1.275 -3.026,1.275 -1.734,0 -3.247,-1.139 -3.417,-3.111 l 7.565,0 c 0.323,-3.281 -1.785,-4.726 -4.148,-4.726 -2.363,0 -4.267,1.819 -4.267,4.335 0,2.669 1.904,4.318 4.267,4.318 z m -3.417,-4.658 c 0.187,-2.057 1.683,-3.23 3.417,-3.23 2.023,0 3.383,1.156 3.4,3.23 l -6.817,0 z"
               id="path4185"
               inkscape:connector-curvature="0" /><path
               d="m 144.46601,-7.735 c 1.938,0 3.434,1.428 3.434,3.519 0,2.091 -1.462,3.536 -3.434,3.536 -1.887,0 -3.434,-1.19 -3.434,-3.519 0,-2.363 1.547,-3.536 3.434,-3.536 z m 3.451,-4.165 0,5.338 c -0.68,-1.36 -2.04,-1.972 -3.485,-1.972 -2.346,0 -4.216,1.564 -4.216,4.335 0,2.788 1.853,4.335 4.199,4.335 1.428,0 2.805,-0.714 3.502,-1.989 l 0,1.853 0.816,0 0,-11.9 -0.816,0 z"
               id="path4187"
               inkscape:connector-curvature="0" /><path
               d="m 157.488,0 0,-7.599 2.771,0 0,-0.731 -2.771,0 0,-0.748 c 0,-1.462 0.612,-2.108 1.666,-2.108 0.51,0 0.833,0.153 1.292,0.425 l 0.408,-0.612 c -0.476,-0.357 -1.037,-0.578 -1.666,-0.578 -1.853,0 -2.516,1.207 -2.516,2.873 l 0,0.748 -1.717,0 0,0.731 1.717,0 0,7.599 0.816,0 z"
               id="path4189"
               inkscape:connector-curvature="0" /><path
               d="m 165.393,0.119 c 2.363,0 4.267,-1.632 4.267,-4.301 0,-2.669 -1.904,-4.369 -4.267,-4.369 -2.363,0 -4.267,1.7 -4.267,4.369 0,2.669 1.904,4.301 4.267,4.301 z m 0,-0.816 c -1.904,0 -3.451,-1.309 -3.451,-3.485 0,-2.176 1.547,-3.587 3.451,-3.587 1.904,0 3.451,1.411 3.451,3.587 0,2.176 -1.547,3.485 -3.451,3.485 z"
               id="path4191"
               inkscape:connector-curvature="0" /><path
               d="m 171.581,-8.398 0,8.398 0.833,0 0,-4.896 c 0,-1.53 1.207,-2.788 2.771,-2.805 0.493,0 0.986,0.119 1.428,0.391 l 0.374,-0.68 c -0.561,-0.34 -1.173,-0.51 -1.802,-0.493 -1.071,0 -2.261,0.442 -2.788,1.581 l -0.034,-1.496 -0.782,0 z"
               id="path4193"
               inkscape:connector-curvature="0" /><path
               d="m 190.24701,-8.398 -0.918,0 -2.516,7.429 -2.55,-7.429 -0.595,0 -2.567,7.429 -2.533,-7.429 -0.918,0 2.992,8.398 0.918,0 1.36,-3.655 1.054,-3.281 1.02,3.264 1.36,3.672 0.918,0 2.975,-8.398 z"
               id="path4195"
               inkscape:connector-curvature="0" /><path
               d="m 198.849,-8.398 0,1.836 c -0.697,-1.309 -2.074,-1.938 -3.434,-1.938 -2.346,0 -4.267,1.734 -4.267,4.301 0,2.567 1.921,4.335 4.267,4.335 1.36,0 2.618,-0.612 3.434,-1.921 l 0,1.785 0.833,0 c 0,-2.805 0,-5.593 0,-8.398 l -0.833,0 z m -3.434,0.697 c 4.675,0 4.675,7.021 0,7.021 -1.904,0 -3.434,-1.411 -3.434,-3.519 0,-2.108 1.53,-3.502 3.434,-3.502 z"
               id="path4197"
               inkscape:connector-curvature="0" /><path
               d="m 201.943,-8.398 0,8.398 0.833,0 0,-4.896 c 0,-1.53 1.207,-2.788 2.771,-2.805 0.493,0 0.986,0.119 1.428,0.391 l 0.374,-0.68 c -0.561,-0.34 -1.173,-0.51 -1.802,-0.493 -1.071,0 -2.261,0.442 -2.788,1.581 l -0.034,-1.496 -0.782,0 z"
               id="path4199"
               inkscape:connector-curvature="0" /><path
               d="m 212.398,-7.735 c 1.938,0 3.434,1.428 3.434,3.519 0,2.091 -1.462,3.536 -3.434,3.536 -1.887,0 -3.434,-1.19 -3.434,-3.519 0,-2.363 1.547,-3.536 3.434,-3.536 z m 3.451,-4.165 0,5.338 c -0.68,-1.36 -2.04,-1.972 -3.485,-1.972 -2.346,0 -4.216,1.564 -4.216,4.335 0,2.788 1.853,4.335 4.199,4.335 1.428,0 2.805,-0.714 3.502,-1.989 l 0,1.853 0.816,0 0,-11.9 -0.816,0 z"
               id="path4201"
               inkscape:connector-curvature="0" /><path
               d="m 219.895,-8.432 0,8.432 -0.833,0 0,-8.432 0.833,0 z m -1.071,-2.703 c 0,0.884 1.343,0.884 1.343,0 0,-0.884 -1.343,-0.884 -1.343,0 z"
               id="path4203"
               inkscape:connector-curvature="0" /><path
               d="m 222.275,-8.398 0,8.398 0.833,0 0,-4.675 c 0,-1.734 1.207,-3.043 2.941,-3.06 1.819,-0.017 2.992,1.003 2.992,2.907 l 0,4.828 0.833,0 0,-4.845 c 0,-2.329 -1.547,-3.706 -3.791,-3.706 -1.173,0.017 -2.346,0.493 -2.992,1.649 l 0,-1.496 -0.816,0 z"
               id="path4205"
               inkscape:connector-curvature="0" /><path
               d="m 237.98301,-7.786 c -0.646,-0.459 -1.53,-0.765 -2.38,-0.765 -2.176,0 -3.944,1.479 -3.944,4.097 0,2.244 1.513,4.063 3.944,4.063 1.564,0 3.179,0.714 3.179,2.516 0,1.785 -1.496,2.533 -3.179,2.533 -1.683,0 -3.145,-0.816 -3.145,-2.533 l -0.833,0 c 0,2.125 1.751,3.349 3.978,3.349 2.227,0 3.995,-1.088 3.995,-3.349 0,-1.445 -0.816,-2.482 -2.295,-3.009 1.394,-0.629 2.261,-2.108 2.261,-3.57 0,-1.36 -0.442,-2.21 -1.037,-2.856 l 0.816,-0.952 -0.544,-0.476 -0.816,0.952 z m -2.38,0.068 c 1.734,0 3.145,1.139 3.145,3.264 0,1.734 -1.411,3.23 -3.145,3.23 -1.921,0 -3.111,-1.496 -3.111,-3.23 0,-2.193 1.394,-3.264 3.111,-3.264 z"
               id="path4207"
               inkscape:connector-curvature="0" /></g></g><path
           d="M 107,17.41798 107,68.66366 81.01698,94.64701 72.3878,97.2908 57.09799,96.39666 43.68587,91.38948 27.72009,76.25598 41.84144,62.13429 41.0174,60.9483 l 0,-10.43533 L 59.91239,31.61764 47.26244,26.89193 61.55439,12.6 l 40.62761,0 c 2.661,0 4.818,2.15702 4.818,4.81798 z"
           style="fill:#28193b;fill-opacity:1;fill-rule:nonzero;stroke:none"
           id="path38"
           inkscape:connector-curvature="0" /><path
           d="m 64.70881,69.97057 c -1.97748,0 -3.99252,-0.21639 -5.98896,-0.64378 -6.04475,-1.29365 -13.783,-4.20675 -16.32022,-10.7372 -0.70887,-1.82476 -0.21352,-3.29794 0.32726,-4.21247 0.9392,-1.58871 2.76039,-2.74072 4.75218,-3.00646 0.71102,-0.09513 1.44386,-0.14306 2.17777,-0.14306 5.87593,0 11.35344,3.05152 14.91391,5.61162 3.58014,2.57441 7.13811,6.05512 10.01867,9.80121 0.18277,0.23784 0.24393,0.54078 0.16775,0.83119 -0.07619,0.2897 -0.27755,0.52325 -0.55223,0.64057 -2.84444,1.21567 -6.12808,1.85838 -9.49613,1.85838 M 47.26233,26.89197 c 1.95924,0.97855 16.38102,13.50473 16.62745,13.42498 -0.45101,-1.16489 -3.40704,-6.92601 -3.04402,-6.92601 0.11302,0 1.20709,0.34192 1.3151,0.38126 6.62166,2.41775 12.31626,6.55941 16.03517,11.66245 2.47212,3.39236 4.05833,7.03867 4.46642,10.26687 0.48426,3.83014 -0.61482,6.85412 -3.35983,9.24505 -0.06187,0.05437 -0.12589,0.10873 -0.19063,0.16345 L 78.53008,65.60323 78.0755,64.99021 C 74.91453,60.72838 70.90056,56.74659 66.77213,53.77805 61.02209,49.64354 55.09822,47.45826 49.64003,47.45826 c -0.89593,0 -1.79043,0.05866 -2.65918,0.17454 -2.25609,0.30079 -4.37378,1.32369 -5.96356,2.8802 -0.60802,0.59514 -1.12519,1.24966 -1.53649,1.94565 -1.36518,2.30903 -1.57655,4.97142 -0.59622,7.49647 0.46675,1.20066 1.08764,2.35338 1.84551,3.42599 3.24144,4.5873 9.18891,7.91815 17.20113,9.63311 2.24322,0.47997 4.51541,0.72354 6.75291,0.72354 4.25862,0 8.38525,-0.89343 11.93321,-2.58371 0.12875,-0.06152 0.27217,-0.09371 0.41452,-0.09371 0.34693,0 0.66775,0.18706 0.83763,0.48892 3.57335,6.33516 4.52185,13.0734 2.4757,17.58416 -1.42812,3.14737 -4.29367,5.14917 -8.51759,5.94925 -1.53327,0.29042 -3.19208,0.43813 -4.92958,0.43813 -6.24217,0 -13.56698,-1.91561 -20.62461,-5.39346 C 39.84418,86.95923 32.43425,80.97171 27.71998,76.25601 l -2.78257,2.41275 c 5.86986,6.2622 12.65675,11.38527 19.66896,14.84094 4.41527,2.17526 9.06731,3.83049 13.45468,4.78651 3.05903,0.66631 6.01435,1.0043 8.78332,1.0043 1.9757,0 3.8888,-0.17275 5.68531,-0.51288 3.51147,-0.6656 6.36664,-2.05867 8.48719,-4.14059 1.15773,-1.13698 2.08692,-2.46782 2.76218,-3.95603 1.36839,-3.01575 1.73356,-6.75076 1.05652,-10.80157 -0.58263,-3.48858 -1.90238,-7.09446 -3.81584,-10.42782 -0.23462,-0.41023 -0.13913,-0.92382 0.22604,-1.22211 0.18062,-0.147 0.35837,-0.29721 0.53398,-0.44993 3.66061,-3.1885 5.25934,-7.53224 4.62342,-12.56052 C 85.91712,51.37961 84.08449,47.11241 81.24326,43.2136 76.9682,37.34769 69.81578,32.31296 62.21666,29.66559 c -0.40701,-0.14163 5.42457,-2.38449 6.25577,-3.13378 -18.3231,0.24106 -21.2101,0.36016 -21.2101,0.36016"
           style="fill:#fffffe;fill-opacity:1;fill-rule:nonzero;stroke:none"
           id="path40"
           inkscape:connector-curvature="0" /></g></g></g></svg>
