<?xml version="1.0" encoding="UTF-8" standalone="no"?>
<!-- Created with Inkscape (http://www.inkscape.org/) -->

<svg
   xmlns:dc="http://purl.org/dc/elements/1.1/"
   xmlns:cc="http://creativecommons.org/ns#"
   xmlns:rdf="http://www.w3.org/1999/02/22-rdf-syntax-ns#"
   xmlns:svg="http://www.w3.org/2000/svg"
   xmlns="http://www.w3.org/2000/svg"
   xmlns:sodipodi="http://sodipodi.sourceforge.net/DTD/sodipodi-0.dtd"
   xmlns:inkscape="http://www.inkscape.org/namespaces/inkscape"
   width="231.13484mm"
   height="45.65078mm"
   viewBox="0 0 818.98174 161.75473"
   id="svg84815"
   version="1.1"
   inkscape:version="0.91 r13725"
   sodipodi:docname="openstate_xfsm_lookup.svg">
  <defs
     id="defs84817">
    <marker
       inkscape:stockid="Arrow2Mend"
       orient="auto"
       refY="0"
       refX="0"
       id="marker4211"
       style="overflow:visible"
       inkscape:isstock="true">
      <path
         id="path4213"
         style="fill:#003a21;fill-opacity:1;fill-rule:evenodd;stroke:#003a21;stroke-width:0.625;stroke-linejoin:round;stroke-opacity:1"
         d="M 8.7185878,4.0337352 -2.2072895,0.01601326 8.7185884,-4.0017078 c -1.7454984,2.3720609 -1.7354408,5.6174519 -6e-7,8.035443 z"
         transform="scale(-0.6,-0.6)"
         inkscape:connector-curvature="0" />
    </marker>
    <marker
       inkscape:isstock="true"
       style="overflow:visible"
       id="marker168396"
       refX="0"
       refY="0"
       orient="auto"
       inkscape:stockid="Arrow2Mend"
       inkscape:collect="always">
      <path
         transform="scale(-0.6,-0.6)"
         d="M 8.7185878,4.0337352 -2.2072895,0.01601326 8.7185884,-4.0017078 c -1.7454984,2.3720609 -1.7354408,5.6174519 -6e-7,8.035443 z"
         style="fill:#b56e59;fill-opacity:1;fill-rule:evenodd;stroke:#b56e59;stroke-width:0.625;stroke-linejoin:round;stroke-opacity:1"
         id="path168398"
         inkscape:connector-curvature="0" />
    </marker>
    <marker
       inkscape:isstock="true"
       style="overflow:visible"
       id="marker168386"
       refX="0"
       refY="0"
       orient="auto"
       inkscape:stockid="Arrow2Mend">
      <path
         transform="scale(-0.6,-0.6)"
         d="M 8.7185878,4.0337352 -2.2072895,0.01601326 8.7185884,-4.0017078 c -1.7454984,2.3720609 -1.7354408,5.6174519 -6e-7,8.035443 z"
         style="fill:#003a21;fill-opacity:1;fill-rule:evenodd;stroke:#003a21;stroke-width:0.625;stroke-linejoin:round;stroke-opacity:1"
         id="path168388"
         inkscape:connector-curvature="0" />
    </marker>
    <marker
       inkscape:stockid="Arrow2Mend"
       orient="auto"
       refY="0"
       refX="0"
       id="Arrow2Mend"
       style="overflow:visible"
       inkscape:isstock="true"
       inkscape:collect="always">
      <path
         id="path167937"
         style="fill:#b56e59;fill-opacity:1;fill-rule:evenodd;stroke:#b56e59;stroke-width:0.625;stroke-linejoin:round;stroke-opacity:1"
         d="M 8.7185878,4.0337352 -2.2072895,0.01601326 8.7185884,-4.0017078 c -1.7454984,2.3720609 -1.7354408,5.6174519 -6e-7,8.035443 z"
         transform="scale(-0.6,-0.6)"
         inkscape:connector-curvature="0" />
    </marker>
  </defs>
  <sodipodi:namedview
     id="base"
     pagecolor="#ffffff"
     bordercolor="#666666"
     borderopacity="1.0"
     inkscape:pageopacity="0.0"
     inkscape:pageshadow="2"
     inkscape:zoom="1.4"
     inkscape:cx="465.21126"
     inkscape:cy="-8.5959392"
     inkscape:document-units="px"
     inkscape:current-layer="layer1"
     showgrid="false"
     inkscape:window-width="1884"
     inkscape:window-height="1051"
     inkscape:window-x="0"
     inkscape:window-y="0"
     inkscape:window-maximized="1"
     inkscape:snap-bbox="true"
     inkscape:object-paths="true"
     inkscape:snap-intersection-paths="true"
     inkscape:object-nodes="true"
     inkscape:snap-smooth-nodes="true"
     inkscape:snap-midpoints="true"
     inkscape:bbox-paths="true"
     inkscape:bbox-nodes="true"
     inkscape:snap-bbox-edge-midpoints="true"
     inkscape:snap-bbox-midpoints="true"
     inkscape:snap-object-midpoints="true"
     inkscape:snap-center="true"
     inkscape:snap-text-baseline="true"
     inkscape:snap-page="true"
     inkscape:snap-grids="false"
     inkscape:snap-to-guides="true"
     inkscape:snap-global="true"
     fit-margin-top="0"
     fit-margin-left="50"
     fit-margin-right="50"
     fit-margin-bottom="0" />
  <metadata
     id="metadata84820">
    <rdf:RDF>
      <cc:Work
         rdf:about="">
        <dc:format>image/svg+xml</dc:format>
        <dc:type
           rdf:resource="http://purl.org/dc/dcmitype/StillImage" />
        <dc:title></dc:title>
      </cc:Work>
    </rdf:RDF>
  </metadata>
  <g
     inkscape:label="Layer 1"
     inkscape:groupmode="layer"
     id="layer1"
     transform="translate(95.736783,-265.52037)">
    <g
       id="use167859"
       transform="matrix(3.3427645,0,0,3.3427645,173.4073,323.19198)"
       style="fill:#003a21;fill-opacity:1">
      <title
         id="title167875">table</title>
      <path
         id="path167877"
         d="m 8,21.5 0,-3 C 8,18.219 7.781,18 7.5,18 l -5,0 C 2.219,18 2,18.219 2,18.5 l 0,3 C 2,21.781 2.219,22 2.5,22 l 5,0 C 7.781,22 8,21.781 8,21.5 Z m 0,-6 0,-3 C 8,12.219 7.781,12 7.5,12 l -5,0 C 2.219,12 2,12.219 2,12.5 l 0,3 C 2,15.781 2.219,16 2.5,16 l 5,0 C 7.781,16 8,15.781 8,15.5 Z m 8,6 0,-3 C 16,18.219 15.781,18 15.5,18 l -5,0 C 10.219,18 10,18.219 10,18.5 l 0,3 c 0,0.281 0.219,0.5 0.5,0.5 l 5,0 C 15.781,22 16,21.781 16,21.5 Z M 8,9.5 8,6.5 C 8,6.219 7.781,6 7.5,6 l -5,0 C 2.219,6 2,6.219 2,6.5 l 0,3 C 2,9.781 2.219,10 2.5,10 l 5,0 C 7.781,10 8,9.781 8,9.5 Z m 8,6 0,-3 C 16,12.219 15.781,12 15.5,12 l -5,0 C 10.219,12 10,12.219 10,12.5 l 0,3 c 0,0.281 0.219,0.5 0.5,0.5 l 5,0 c 0.281,0 0.5,-0.219 0.5,-0.5 z m 8,6 0,-3 C 24,18.219 23.781,18 23.5,18 l -5,0 C 18.219,18 18,18.219 18,18.5 l 0,3 c 0,0.281 0.219,0.5 0.5,0.5 l 5,0 c 0.281,0 0.5,-0.219 0.5,-0.5 z m -8,-12 0,-3 C 16,6.219 15.781,6 15.5,6 l -5,0 C 10.219,6 10,6.219 10,6.5 l 0,3 c 0,0.281 0.219,0.5 0.5,0.5 l 5,0 C 15.781,10 16,9.781 16,9.5 Z m 8,6 0,-3 C 24,12.219 23.781,12 23.5,12 l -5,0 C 18.219,12 18,12.219 18,12.5 l 0,3 c 0,0.281 0.219,0.5 0.5,0.5 l 5,0 c 0.281,0 0.5,-0.219 0.5,-0.5 z m 0,-6 0,-3 C 24,6.219 23.781,6 23.5,6 l -5,0 C 18.219,6 18,6.219 18,6.5 l 0,3 c 0,0.281 0.219,0.5 0.5,0.5 l 5,0 C 23.781,10 24,9.781 24,9.5 Z m 2,-5 0,17 c 0,1.375 -1.125,2.5 -2.5,2.5 l -21,0 C 1.125,24 0,22.875 0,21.5 L 0,4.5 C 0,3.125 1.125,2 2.5,2 l 21,0 C 24.875,2 26,3.125 26,4.5 Z"
         class="path1"
         inkscape:connector-curvature="0"
         style="fill:#003a21;fill-opacity:1" />
    </g>
    <g
       id="use167859-3"
       transform="matrix(3.3427645,0,0,3.3427645,370.82977,323.19198)"
       style="fill:#b56e59;fill-opacity:1">
      <title
         id="title167875-6">table</title>
      <path
         id="path167877-7"
         d="m 8,21.5 0,-3 C 8,18.219 7.781,18 7.5,18 l -5,0 C 2.219,18 2,18.219 2,18.5 l 0,3 C 2,21.781 2.219,22 2.5,22 l 5,0 C 7.781,22 8,21.781 8,21.5 Z m 0,-6 0,-3 C 8,12.219 7.781,12 7.5,12 l -5,0 C 2.219,12 2,12.219 2,12.5 l 0,3 C 2,15.781 2.219,16 2.5,16 l 5,0 C 7.781,16 8,15.781 8,15.5 Z m 8,6 0,-3 C 16,18.219 15.781,18 15.5,18 l -5,0 C 10.219,18 10,18.219 10,18.5 l 0,3 c 0,0.281 0.219,0.5 0.5,0.5 l 5,0 C 15.781,22 16,21.781 16,21.5 Z M 8,9.5 8,6.5 C 8,6.219 7.781,6 7.5,6 l -5,0 C 2.219,6 2,6.219 2,6.5 l 0,3 C 2,9.781 2.219,10 2.5,10 l 5,0 C 7.781,10 8,9.781 8,9.5 Z m 8,6 0,-3 C 16,12.219 15.781,12 15.5,12 l -5,0 C 10.219,12 10,12.219 10,12.5 l 0,3 c 0,0.281 0.219,0.5 0.5,0.5 l 5,0 c 0.281,0 0.5,-0.219 0.5,-0.5 z m 8,6 0,-3 C 24,18.219 23.781,18 23.5,18 l -5,0 C 18.219,18 18,18.219 18,18.5 l 0,3 c 0,0.281 0.219,0.5 0.5,0.5 l 5,0 c 0.281,0 0.5,-0.219 0.5,-0.5 z m -8,-12 0,-3 C 16,6.219 15.781,6 15.5,6 l -5,0 C 10.219,6 10,6.219 10,6.5 l 0,3 c 0,0.281 0.219,0.5 0.5,0.5 l 5,0 C 15.781,10 16,9.781 16,9.5 Z m 8,6 0,-3 C 24,12.219 23.781,12 23.5,12 l -5,0 C 18.219,12 18,12.219 18,12.5 l 0,3 c 0,0.281 0.219,0.5 0.5,0.5 l 5,0 c 0.281,0 0.5,-0.219 0.5,-0.5 z m 0,-6 0,-3 C 24,6.219 23.781,6 23.5,6 l -5,0 C 18.219,6 18,6.219 18,6.5 l 0,3 c 0,0.281 0.219,0.5 0.5,0.5 l 5,0 C 23.781,10 24,9.781 24,9.5 Z m 2,-5 0,17 c 0,1.375 -1.125,2.5 -2.5,2.5 l -21,0 C 1.125,24 0,22.875 0,21.5 L 0,4.5 C 0,3.125 1.125,2 2.5,2 l 21,0 C 24.875,2 26,3.125 26,4.5 Z"
         class="path1"
         inkscape:connector-curvature="0"
         style="fill:#b56e59;fill-opacity:1" />
    </g>
    <path
       style="display:inline;fill:none;fill-rule:evenodd;stroke:#003a21;stroke-width:3;stroke-linecap:butt;stroke-linejoin:miter;stroke-miterlimit:4;stroke-dasharray:none;stroke-opacity:1;marker-end:url(#marker168386)"
       d="m 81.428571,366.64792 91.978729,0"
       id="path167900"
       inkscape:connector-type="polyline"
       inkscape:connector-curvature="0"
       inkscape:connection-end="#use167859"
       sodipodi:nodetypes="cc" />
    <path
       style="fill:none;fill-rule:evenodd;stroke:#b56e59;stroke-width:3;stroke-linecap:butt;stroke-linejoin:miter;stroke-miterlimit:4;stroke-dasharray:none;stroke-opacity:1;marker-end:url(#Arrow2Mend)"
       d="m 260.31918,366.64792 106.48183,0"
       id="path167902"
       inkscape:connector-type="polyline"
       inkscape:connector-curvature="0"
       inkscape:connection-end="#use167859-3"
       inkscape:connection-start="#use167859"
       sodipodi:nodetypes="cc" />
    <path
       style="display:inline;fill:none;fill-rule:evenodd;stroke:#b56e59;stroke-width:3;stroke-linecap:butt;stroke-linejoin:miter;stroke-miterlimit:4;stroke-dasharray:none;stroke-opacity:1;marker-end:url(#marker168396)"
       d="m 457.74165,366.64792 83.80242,0"
       id="path167904"
       inkscape:connector-type="polyline"
       inkscape:connector-curvature="0"
       inkscape:connection-start="#use167859-3"
       sodipodi:nodetypes="cc" />
    <path
       style="fill:none;fill-rule:evenodd;stroke:#003a21;stroke-width:3;stroke-linecap:butt;stroke-linejoin:miter;stroke-miterlimit:4;stroke-dasharray:none;stroke-opacity:1;marker-end:url(#marker4211)"
       d="m 414.28571,329.87751 c 0,0 -24.70279,-62.85714 -98.71124,-62.85714 -74.00844,0 -98.71123,62.85714 -98.71123,62.85714"
       id="path3361"
       inkscape:connector-curvature="0"
       sodipodi:nodetypes="czc" />
    <text
       xml:space="preserve"
       style="font-style:normal;font-weight:normal;font-size:25px;line-height:125%;font-family:sans-serif;letter-spacing:0px;word-spacing:0px;fill:#000000;fill-opacity:1;stroke:none;stroke-width:1px;stroke-linecap:butt;stroke-linejoin:miter;stroke-opacity:1"
       x="136.42857"
       y="556.64795"
       id="text4275"
       sodipodi:linespacing="125%"><tspan
         sodipodi:role="line"
         id="tspan4277"
         x="136.42857"
         y="556.64795" /></text>
    <text
       xml:space="preserve"
       style="font-style:normal;font-variant:normal;font-weight:normal;font-stretch:normal;font-size:22.5px;line-height:125%;font-family:'Fira Sans';-inkscape-font-specification:'Fira Sans';letter-spacing:0px;word-spacing:0px;fill:#b56e59;fill-opacity:1;stroke:none;stroke-width:1px;stroke-linecap:butt;stroke-linejoin:miter;stroke-opacity:1"
       x="291.73398"
       y="350.21939"
       id="text4283"
       sodipodi:linespacing="125%"><tspan
         sodipodi:role="line"
         id="tspan4285"
         x="291.73398"
         y="350.21939">State</tspan></text>
    <text
       xml:space="preserve"
       style="font-style:normal;font-variant:normal;font-weight:normal;font-stretch:normal;font-size:22.5px;line-height:125%;font-family:'Fira Sans';-inkscape-font-specification:'Fira Sans';letter-spacing:0px;word-spacing:0px;fill:#b56e59;fill-opacity:1;stroke:none;stroke-width:1px;stroke-linecap:butt;stroke-linejoin:miter;stroke-opacity:1"
       x="470.70474"
       y="350.21939"
       id="text4287"
       sodipodi:linespacing="125%"><tspan
         sodipodi:role="line"
         id="tspan4289"
         x="470.70474"
         y="350.21939">Action</tspan></text>
    <text
       xml:space="preserve"
       style="font-style:normal;font-variant:normal;font-weight:normal;font-stretch:normal;font-size:22.5px;line-height:125%;font-family:'Fira Sans';-inkscape-font-specification:'Fira Sans';letter-spacing:0px;word-spacing:0px;fill:#b56e59;fill-opacity:1;stroke:none;stroke-width:1px;stroke-linecap:butt;stroke-linejoin:miter;stroke-opacity:1"
       x="358.95908"
       y="427.0051"
       id="text4299"
       sodipodi:linespacing="125%"><tspan
         sodipodi:role="line"
         id="tspan4301"
         x="358.95908"
         y="427.0051">XFSM table</tspan></text>
  </g>
</svg>
